<svg xmlns="http://www.w3.org/2000/svg" width="64.261" height="47.793" viewBox="0 0 64.261 47.793">
  <g id="Groupe_4137" data-name="Groupe 4137" transform="translate(0.002 -0.001)">
    <g id="Groupe_4145" data-name="Groupe 4145" transform="translate(0.65 0.651)">
      <path id="Tracé_15960" data-name="Tracé 15960" d="M59.331,15.475H46.982L49.513,1.068H8.956l-6.9,39.106H7.627A7.67,7.67,0,0,1,14.892,34a5.036,5.036,0,0,1,5.085,6.175H40.563A7.67,7.67,0,0,1,47.827,34a5.036,5.036,0,0,1,5.085,6.175h6.175l2.179-12.35,1.091-6.175Z" transform="translate(-0.011 -0.462)" fill="#7c243e"/>
      <path id="Tracé_15961" data-name="Tracé 15961" d="M7.956,1.067H18.247L12.32,34.721a7.685,7.685,0,0,0-4.24,5.454H1.061Z" transform="translate(0.392 -1.067)" fill="#fff"/>
      <path id="Tracé_15962" data-name="Tracé 15962" d="M43.685,1.067a2.06,2.06,0,0,1,2.06,2.057v.062l-.411,12.289H32.983L35.51,1.067Z" transform="translate(13.994 -0.463)" fill="#fff"/>
      <path id="Tracé_15963" data-name="Tracé 15963" d="M52.282,21.65l-1.091,6.175-2.179,12.35H42.833a5.034,5.034,0,0,0-3.759-6.047A5.09,5.09,0,0,0,37.748,34a7.67,7.67,0,0,0-7.264,6.175H24.309L31.2,1.068h8.234L36.906,15.475h12.35Z" transform="translate(10.065 -0.462)" fill="#e6cea8"/>
      <path id="Tracé_15964" data-name="Tracé 15964" d="M46.692,17.159,45.6,23.334l-2.179,12.35H37.247a5.5,5.5,0,0,0-.291-3.087v-.02l1.627-9.242,1.091-6.175-3.026-6.175h7.019Z" transform="translate(15.654 4.029)" fill="#fff"/>
      <path id="Tracé_15965" data-name="Tracé 15965" d="M46.124,23.734a5.036,5.036,0,0,1,5.085,6.175,7.67,7.67,0,0,1-7.264,6.175,5.036,5.036,0,0,1-5.085-6.175,7.67,7.67,0,0,1,7.264-6.175m-32.927,0a5.036,5.036,0,0,1,5.085,6.175,7.67,7.67,0,0,1-7.265,6.175,5.036,5.036,0,0,1-5.085-6.175A7.67,7.67,0,0,1,13.2,23.734" transform="translate(1.683 9.802)" fill="#fff"/>
      <path id="Tracé_15966" data-name="Tracé 15966" d="M25.294,32.759l-.092,0a.6.6,0,0,1-.455-.221.537.537,0,0,1-.093-.4L29.371,5.4a.6.6,0,0,1,.593-.5.678.678,0,0,1,.5.259.6.6,0,0,1,.1.452L25.847,32.364a.438.438,0,0,1-.421.405Z" transform="translate(10.219 1.273)" fill="#34353d"/>
      <path id="Tracé_15967" data-name="Tracé 15967" d="M25.294,32.759l-.092,0a.6.6,0,0,1-.455-.221.537.537,0,0,1-.093-.4L29.371,5.4a.6.6,0,0,1,.593-.5.678.678,0,0,1,.5.259.6.6,0,0,1,.1.452L25.847,32.364a.438.438,0,0,1-.421.405Z" transform="translate(10.219 1.273)" fill="none" stroke="#34353d" stroke-miterlimit="10" stroke-width="1.3"/>
      <path id="Tracé_15968" data-name="Tracé 15968" d="M13.2,47.144a5.682,5.682,0,0,1-4.333-2,5.553,5.553,0,0,1-1.2-2.884l-.145-1.292H1.254A.682.682,0,0,1,.778,40.7a.648.648,0,0,1-.121-.484L1.74,34.081a.6.6,0,0,1,.594-.5.674.674,0,0,1,.5.259.6.6,0,0,1,.1.453l-.971,5.464H7.717l.362-.924a8.236,8.236,0,0,1,7.488-5.251l.235,0a5.437,5.437,0,0,1,5.416,4.879l.137,1.3h19.3l.36-.924A8.239,8.239,0,0,1,48.5,33.582l.237,0a5.435,5.435,0,0,1,5.415,4.879l.137,1.3h4.93L62.365,21.93,59.59,16.273H47.618a.664.664,0,0,1-.493-.257.606.606,0,0,1-.1-.453l1.453-8.234a.6.6,0,0,1,.594-.5.628.628,0,0,1,.6.713L48.34,15.057H59.382l.445-13.2H8.993a.6.6,0,0,1-.551-.588A.6.6,0,0,1,9.03.651H58.324a2.708,2.708,0,0,1,2.67,2.765l-.41,12.116,2.961,6.04a.608.608,0,0,1,.052.376l-3.265,18.52a.606.606,0,0,1-.6.5H54.1l-.36.924a8.247,8.247,0,0,1-7.488,5.252h0a5.741,5.741,0,0,1-4.444-2,5.553,5.553,0,0,1-1.2-2.884l-.145-1.292H21.172l-.36.924a8.247,8.247,0,0,1-7.488,5.252Zm.23-1.213a7.087,7.087,0,0,0,6.58-5.645,4.689,4.689,0,0,0-.9-3.908,4.609,4.609,0,0,0-3.458-1.588l-.189,0a7.088,7.088,0,0,0-6.593,5.643,4.7,4.7,0,0,0,.9,3.908,4.614,4.614,0,0,0,3.458,1.588h0ZM48.408,34.794A7.087,7.087,0,0,0,41.8,40.436a4.7,4.7,0,0,0,.9,3.91,4.615,4.615,0,0,0,3.459,1.588l.189,0a7.09,7.09,0,0,0,6.608-5.642,4.7,4.7,0,0,0-.9-3.91A4.61,4.61,0,0,0,48.6,34.79h-.031Z" transform="translate(-0.65 -0.651)" fill="#34353d"/>
      <path id="Tracé_15969" data-name="Tracé 15969" d="M13.2,47.144a5.682,5.682,0,0,1-4.333-2,5.553,5.553,0,0,1-1.2-2.884l-.145-1.292H1.254A.682.682,0,0,1,.778,40.7a.648.648,0,0,1-.121-.484L1.74,34.081a.6.6,0,0,1,.594-.5.674.674,0,0,1,.5.259.6.6,0,0,1,.1.453l-.971,5.464H7.717l.362-.924a8.236,8.236,0,0,1,7.488-5.251l.235,0a5.437,5.437,0,0,1,5.416,4.879l.137,1.3h19.3l.36-.924A8.239,8.239,0,0,1,48.5,33.582l.237,0a5.435,5.435,0,0,1,5.415,4.879l.137,1.3h4.93L62.365,21.93,59.59,16.273H47.618a.664.664,0,0,1-.493-.257.606.606,0,0,1-.1-.453l1.453-8.234a.6.6,0,0,1,.594-.5.628.628,0,0,1,.6.713L48.34,15.057H59.382l.445-13.2H8.993a.6.6,0,0,1-.551-.588A.6.6,0,0,1,9.03.651H58.324a2.708,2.708,0,0,1,2.67,2.765l-.41,12.116,2.961,6.04a.608.608,0,0,1,.052.376l-3.265,18.52a.606.606,0,0,1-.6.5H54.1l-.36.924a8.247,8.247,0,0,1-7.488,5.252h0a5.741,5.741,0,0,1-4.444-2,5.553,5.553,0,0,1-1.2-2.884l-.145-1.292H21.172l-.36.924a8.247,8.247,0,0,1-7.488,5.252Zm.23-1.213a7.087,7.087,0,0,0,6.58-5.645,4.689,4.689,0,0,0-.9-3.908,4.609,4.609,0,0,0-3.458-1.588l-.189,0a7.088,7.088,0,0,0-6.593,5.643,4.7,4.7,0,0,0,.9,3.908,4.614,4.614,0,0,0,3.458,1.588h0ZM48.408,34.794A7.087,7.087,0,0,0,41.8,40.436a4.7,4.7,0,0,0,.9,3.91,4.615,4.615,0,0,0,3.459,1.588l.189,0a7.09,7.09,0,0,0,6.608-5.642,4.7,4.7,0,0,0-.9-3.91A4.61,4.61,0,0,0,48.6,34.79h-.031Z" transform="translate(-0.65 -0.651)" fill="none" stroke="#34353d" stroke-miterlimit="10" stroke-width="1.3"/>
      <path id="Tracé_15970" data-name="Tracé 15970" d="M55.683,25.408a.656.656,0,0,1-.556-.744l.721-4.075a.6.6,0,0,1,.594-.5.628.628,0,0,1,.6.713l-.726,4.115a.624.624,0,0,1-.6.5Zm-42.1-4.113a.607.607,0,0,1,.038-1.212H30.048a.607.607,0,0,1,.385,1.021.608.608,0,0,1-.411.189Zm-8.234,0a.606.606,0,0,1,.038-1.21H7.408a.6.6,0,0,1,.551.588.6.6,0,0,1-.575.622ZM7.408,15.12a.605.605,0,1,1,0-1.21H23.873a.624.624,0,0,1,.661.622.6.6,0,0,1-.606.588ZM9.465,8.943A.606.606,0,0,1,9.5,7.733H21.815A.607.607,0,0,1,22.2,8.754a.608.608,0,0,1-.411.189Zm-8.232,0a.606.606,0,0,1,.038-1.21H3.29a.607.607,0,0,1,.385,1.021.608.608,0,0,1-.411.189Z" transform="translate(-0.635 2.556)" fill="#34353d"/>
      <path id="Tracé_15971" data-name="Tracé 15971" d="M55.683,25.408a.656.656,0,0,1-.556-.744l.721-4.075a.6.6,0,0,1,.594-.5.628.628,0,0,1,.6.713l-.726,4.115a.624.624,0,0,1-.6.5Zm-42.1-4.113a.607.607,0,0,1,.038-1.212H30.048a.607.607,0,0,1,.385,1.021.608.608,0,0,1-.411.189Zm-8.234,0a.606.606,0,0,1,.038-1.21H7.408a.6.6,0,0,1,.551.588.6.6,0,0,1-.575.622ZM7.408,15.12a.605.605,0,1,1,0-1.21H23.873a.624.624,0,0,1,.661.622.6.6,0,0,1-.606.588ZM9.465,8.943A.606.606,0,0,1,9.5,7.733H21.815A.607.607,0,0,1,22.2,8.754a.608.608,0,0,1-.411.189Zm-8.232,0a.606.606,0,0,1,.038-1.21H3.29a.607.607,0,0,1,.385,1.021.608.608,0,0,1-.411.189Z" transform="translate(-0.635 2.556)" fill="none" stroke="#34353d" stroke-miterlimit="10" stroke-width="1.3"/>
    </g>
  </g>
</svg>
