<svg xmlns="http://www.w3.org/2000/svg" xmlns:xlink="http://www.w3.org/1999/xlink" width="283.668" height="283.668" viewBox="0 0 283.668 283.668">
  <defs>
    <filter id="Tracé_14986" x="0" y="0" width="283.668" height="283.668" filterUnits="userSpaceOnUse">
      <feOffset dx="10" dy="10" input="SourceAlpha"/>
      <feGaussianBlur stdDeviation="15" result="blur"/>
      <feFlood flood-opacity="0.624"/>
      <feComposite operator="in" in2="blur"/>
      <feComposite in="SourceGraphic"/>
    </filter>
  </defs>
  <g id="Groupe_4108" data-name="Groupe 4108" transform="matrix(0.998, 0.07, -0.07, 0.998, 47.71, 35.06)">
    <g id="Groupe_4119" data-name="Groupe 4119" transform="translate(-0.057 -0.057)">
      <g transform="matrix(1, -0.07, 0.07, 1, -49.98, -31.59)" filter="url(#Tracé_14986)">
        <path id="Tracé_14986-2" data-name="Tracé 14986" d="M90.727,181.452a90.726,90.726,0,1,1,90.725-90.727,90.726,90.726,0,0,1-90.725,90.727" transform="matrix(1, 0.07, -0.07, 1, 47.66, 35)" fill="#e8d7b7" fill-rule="evenodd"/>
      </g>
      <path id="Tracé_14987" data-name="Tracé 14987" d="M96.185,10.12A86.066,86.066,0,1,1,35.328,35.328,86.066,86.066,0,0,1,96.185,10.12m58.97,27.094a83.4,83.4,0,1,0,24.426,58.97,83.4,83.4,0,0,0-24.426-58.97" transform="translate(-5.46 -5.46)" fill="#45444f" fill-rule="evenodd"/>
      <path id="Tracé_14988" data-name="Tracé 14988" d="M191.458,19.012c.616.794,1.567,1.09,1.318,2.371a2.272,2.272,0,0,1,3.209-.168,2.178,2.178,0,0,1,.224.233c-2.324.27-3.523,1.9-3.955,4.158-.262.022-.528.036-.794.036s-.535-.012-.794-.036c-.433-2.256-1.631-3.889-3.955-4.158a2.27,2.27,0,0,1,3.2-.288,2.173,2.173,0,0,1,.233.223c-.249-1.281.7-1.575,1.319-2.371" transform="translate(-100.734 -10.257)" fill="#45444f" fill-rule="evenodd"/>
      <path id="Tracé_14989" data-name="Tracé 14989" d="M167.133,20.744c.722.7,1.7.862,1.636,2.164a2.272,2.272,0,0,1,3.153-.613,2.223,2.223,0,0,1,.255.2c-2.264.59-3.224,2.374-3.337,4.668q-.385.088-.784.145t-.795.076c-.741-2.174-2.156-3.624-4.494-3.567a2.268,2.268,0,0,1,3.39-.542c-.425-1.233.476-1.658.975-2.532" transform="translate(-87.816 -11.191)" fill="#45444f" fill-rule="evenodd"/>
      <path id="Tracé_14990" data-name="Tracé 14990" d="M143.391,25.908c.811.595,1.806.616,1.921,1.916a2.271,2.271,0,0,1,3.038-1.046,2.233,2.233,0,0,1,.279.161c-2.159.9-2.862,2.8-2.655,5.088q-.37.141-.758.253c-.257.072-.516.136-.775.187-1.037-2.051-2.639-3.289-4.947-2.908a2.272,2.272,0,0,1,3-1.159,2.313,2.313,0,0,1,.286.151c-.592-1.162.241-1.708.614-2.642" transform="translate(-75.259 -13.978)" fill="#45444f" fill-rule="evenodd"/>
      <path id="Tracé_14991" data-name="Tracé 14991" d="M120.7,34.4c.886.476,1.875.359,2.169,1.63a2.271,2.271,0,0,1,2.863-1.457,2.336,2.336,0,0,1,.3.122c-2.013,1.191-2.445,3.17-1.922,5.407q-.345.191-.713.356c-.245.109-.493.206-.741.292-1.312-1.886-3.072-2.889-5.3-2.191a2.272,2.272,0,0,1,3.11-1.455c-.748-1.068,0-1.725.24-2.7" transform="translate(-63.31 -18.56)" fill="#45444f" fill-rule="evenodd"/>
      <path id="Tracé_14992" data-name="Tracé 14992" d="M99.484,45.4c.944.348,1.906.094,2.375,1.311a2.27,2.27,0,0,1,2.629-1.843,2.317,2.317,0,0,1,.315.079c-1.828,1.461-1.98,3.48-1.149,5.622-.211.158-.43.309-.657.451s-.459.272-.694.393c-1.561-1.685-3.443-2.434-5.557-1.431a2.271,2.271,0,0,1,2.56-1.94,2.327,2.327,0,0,1,.316.067c-.889-.955-.239-1.708-.138-2.708" transform="translate(-52.196 -24.187)" fill="#45444f" fill-rule="evenodd"/>
      <path id="Tracé_14993" data-name="Tracé 14993" d="M80.172,59.224c.983.214,1.9-.171,2.534.969a2.275,2.275,0,0,1,2.672-2.158c-1.607,1.7-1.474,3.723-.355,5.728q-.28.279-.588.538c-.206.173-.416.334-.632.486-1.781-1.451-3.749-1.932-5.7-.645a2.272,2.272,0,0,1,2.267-2.277,2.2,2.2,0,0,1,.321.022c-1.014-.821-.475-1.659-.514-2.664" transform="translate(-42.136 -31.292)" fill="#45444f" fill-rule="evenodd"/>
      <path id="Tracé_14994" data-name="Tracé 14994" d="M63.106,75.682c1,.075,1.859-.433,2.644.607a2.272,2.272,0,0,1,2.023-2.5,2.349,2.349,0,0,1,.322-.011c-1.355,1.907-.944,3.891.444,5.722-.159.21-.328.416-.506.614s-.367.389-.559.569c-1.966-1.19-3.981-1.391-5.737.156a2.272,2.272,0,0,1,2.249-2.594c-1.119-.672-.7-1.576-.88-2.566" transform="translate(-33.297 -39.805)" fill="#45444f" fill-rule="evenodd"/>
      <path id="Tracé_14995" data-name="Tracé 14995" d="M48.595,94.462c1-.066,1.781-.689,2.7.233a2.271,2.271,0,0,1,1.975-2.809c-1.076,2.077-.393,3.985,1.237,5.6-.129.23-.267.457-.417.679s-.309.436-.473.641c-2.112-.9-4.136-.823-5.659.953a2.271,2.271,0,0,1,1.549-2.814,2.329,2.329,0,0,1,.317-.068c-1.2-.51-.914-1.463-1.228-2.419" transform="translate(-25.826 -49.574)" fill="#45444f" fill-rule="evenodd"/>
      <path id="Tracé_14996" data-name="Tracé 14996" d="M36.917,115.237c.985-.2,1.667-.931,2.708-.145a2.273,2.273,0,0,1,1.562-3.057c-.776,2.207.165,4,2,5.377-.095.246-.2.49-.318.731s-.244.475-.38.7c-2.217-.6-4.21-.239-5.471,1.731a2.271,2.271,0,0,1,1.143-3,2.228,2.228,0,0,1,.3-.111c-1.261-.338-1.108-1.323-1.553-2.225" transform="translate(-19.866 -60.446)" fill="#45444f" fill-rule="evenodd"/>
      <path id="Tracé_14997" data-name="Tracé 14997" d="M27.726,137.6c.947-.34,1.521-1.155,2.662-.522a2.27,2.27,0,0,1,1.122-3.244c-.463,2.293.722,3.938,2.732,5.046q-.088.385-.212.767c-.083.255-.176.506-.28.747-2.279-.286-4.2.35-5.177,2.476a2.272,2.272,0,0,1,.715-3.132,2.305,2.305,0,0,1,.285-.152c-1.295-.159-1.281-1.156-1.847-1.986" transform="translate(-14.959 -72.207)" fill="#45444f" fill-rule="evenodd"/>
      <path id="Tracé_14998" data-name="Tracé 14998" d="M21.717,161.124c.89-.469,1.345-1.354,2.564-.886a2.275,2.275,0,0,1,.4-3.193,2.314,2.314,0,0,1,.264-.177c-.138,2.336,1.261,3.8,3.408,4.617q-.036.393-.1.791a7.937,7.937,0,0,1-.172.778c-2.3.034-4.113.931-4.782,3.173a2.272,2.272,0,0,1,.533-3.391c-1.3.022-1.43-.966-2.106-1.711" transform="translate(-11.717 -84.633)" fill="#45444f" fill-rule="evenodd"/>
      <path id="Tracé_14999" data-name="Tracé 14999" d="M19.122,185.344c.817-.588,1.144-1.528,2.415-1.235a2.272,2.272,0,0,1,.185-3.431c.189,2.333,1.778,3.587,4.018,4.1.013.263.016.53.006.8s-.03.534-.062.794c-2.271.353-3.944,1.494-4.294,3.807a2.27,2.27,0,0,1-.177-3.205,2.238,2.238,0,0,1,.233-.225c-1.289.2-1.55-.758-2.324-1.4" transform="translate(-10.317 -97.48)" fill="#45444f" fill-rule="evenodd"/>
      <path id="Tracé_15000" data-name="Tracé 15000" d="M19.988,209.8c.727-.7.92-1.672,2.22-1.559a2.273,2.273,0,0,1-.3-3.421c.511,2.283,2.261,3.3,4.55,3.5.049.259.09.522.117.789s.044.532.049.794c-2.2.665-3.7,2.028-3.723,4.368a2.271,2.271,0,0,1-.422-3.407c-1.248.38-1.641-.535-2.5-1.064" transform="translate(-10.784 -110.502)" fill="#45444f" fill-rule="evenodd"/>
      <path id="Tracé_15001" data-name="Tracé 15001" d="M24.3,234c.623-.79.679-1.784,1.982-1.853a2.272,2.272,0,0,1-.939-3.073,2.239,2.239,0,0,1,.171-.273c.824,2.19,2.7,2.958,4.992,2.83.086.25.162.506.226.765s.117.52.159.781c-2.086.965-3.38,2.523-3.079,4.843a2.272,2.272,0,0,1-.892-3.315c-1.183.552-1.7-.3-2.619-.705" transform="translate(-13.111 -123.44)" fill="#45444f" fill-rule="evenodd"/>
      <path id="Tracé_15002" data-name="Tracé 15002" d="M31.973,257.476c.506-.869.423-1.861,1.7-2.111a2.271,2.271,0,0,1-1.36-2.909,2.246,2.246,0,0,1,.132-.3c1.119,2.053,3.083,2.553,5.337,2.108.119.235.229.478.329.725s.189.5.267.751c-1.93,1.246-3,2.969-2.374,5.224a2.271,2.271,0,0,1-1.466-2.857,2.234,2.234,0,0,1,.121-.3c-1.095.71-1.724-.061-2.692-.334" transform="translate(-17.25 -136.045)" fill="#45444f" fill-rule="evenodd"/>
      <path id="Tracé_15003" data-name="Tracé 15003" d="M42.385,279.78c.381-.931.161-1.9,1.394-2.328a2.271,2.271,0,0,1-1.751-2.693,2.232,2.232,0,0,1,.09-.312c1.4,1.878,3.408,2.1,5.578,1.345.15.217.294.44.428.673s.257.47.368.707c-1.738,1.5-2.552,3.358-1.625,5.5a2.272,2.272,0,0,1-1.85-2.626,2.244,2.244,0,0,1,.078-.314c-.985.855-1.716.181-2.713.043" transform="translate(-22.648 -148.07)" fill="#45444f" fill-rule="evenodd"/>
      <path id="Tracé_15004" data-name="Tracé 15004" d="M55.512,300.474c.247-.975-.1-1.906,1.056-2.5a2.272,2.272,0,0,1-2.062-2.744c1.643,1.665,3.667,1.6,5.711.556q.27.289.518.606t.463.65c-1.512,1.73-2.06,3.679-.843,5.677a2.273,2.273,0,0,1-2.163-2.665c-.856.985-1.674.416-2.68.421" transform="translate(-29.379 -159.283)" fill="#45444f" fill-rule="evenodd"/>
      <path id="Tracé_15005" data-name="Tracé 15005" d="M71.338,318.865c.108-1-.37-1.873.7-2.621a2.272,2.272,0,0,1-2.425-2.108,2.236,2.236,0,0,1,0-.324c1.859,1.421,3.856,1.079,5.733-.244.2.166.4.342.6.529s.376.379.549.578c-1.258,1.923-1.528,3.93-.044,5.738a2.271,2.271,0,0,1-2.5-2.013,2.317,2.317,0,0,1-.012-.325c-.711,1.094-1.6.645-2.6.789" transform="translate(-37.554 -169.176)" fill="#45444f" fill-rule="evenodd"/>
      <path id="Tracé_15006" data-name="Tracé 15006" d="M89.565,334.235c-.031-1.006-.627-1.8.327-2.693a2.273,2.273,0,0,1-2.739-2.07c2.039,1.147,3.967.531,5.643-1.04q.338.2.665.44c.217.157.425.325.625.5-.978,2.079-.968,4.1.754,5.689a2.274,2.274,0,0,1-2.817-1.966c-.551,1.182-1.494.862-2.46,1.143" transform="translate(-47.021 -177.195)" fill="#45444f" fill-rule="evenodd"/>
      <path id="Tracé_15007" data-name="Tracé 15007" d="M109.877,346.936c-.171-.991-.872-1.7-.051-2.712a2.275,2.275,0,0,1-3-1.669c2.179.853,4-.026,5.444-1.815q.364.155.719.343t.686.4c-.678,2.2-.386,4.2,1.539,5.529a2.272,2.272,0,0,1-2.961-1.249,2.3,2.3,0,0,1-.1-.306c-.381,1.248-1.36,1.062-2.277,1.474" transform="translate(-57.634 -183.836)" fill="#45444f" fill-rule="evenodd"/>
      <path id="Tracé_15008" data-name="Tracé 15008" d="M131.885,356.719c-.307-.958-1.1-1.56-.429-2.679a2.272,2.272,0,0,1-3.073-.939,2.218,2.218,0,0,1-.131-.295c2.275.542,3.961-.583,5.139-2.556q.382.1.76.24c.253.092.5.195.737.305-.366,2.268.2,4.212,2.294,5.26a2.271,2.271,0,0,1-3.248-1.113c-.2,1.288-1.2,1.24-2.049,1.777" transform="translate(-69.195 -188.967)" fill="#45444f" fill-rule="evenodd"/>
      <path id="Tracé_15009" data-name="Tracé 15009" d="M155.161,363.391c-.437-.906-1.306-1.392-.8-2.594a2.272,2.272,0,0,1-3.173-.5,2.3,2.3,0,0,1-.171-.274c2.329.22,3.842-1.128,4.732-3.245.262.033.524.076.786.132s.519.122.772.2c-.047,2.3.786,4.143,3,4.89a2.273,2.273,0,0,1-3.372-.65c-.023,1.3-1.014,1.395-1.783,2.045" transform="translate(-81.478 -192.487)" fill="#45444f" fill-rule="evenodd"/>
      <path id="Tracé_15010" data-name="Tracé 15010" d="M179.252,366.827c-.559-.837-1.487-1.2-1.15-2.455a2.273,2.273,0,0,1-3.213-.057,2.242,2.242,0,0,1-.206-.247c2.337-.108,3.647-1.652,4.234-3.872q.4-.007.8.02t.791.09c.273,2.281,1.355,3.993,3.655,4.424a2.277,2.277,0,0,1-3.431-.175c.158,1.295-.81,1.523-1.48,2.275" transform="translate(-94.245 -194.332)" fill="#45444f" fill-rule="evenodd"/>
      <path id="Tracé_15011" data-name="Tracé 15011" d="M203.685,366.823c-.67-.751-1.64-.979-1.48-2.275a2.272,2.272,0,0,1-3.189.393,2.307,2.307,0,0,1-.242-.218c2.3-.433,3.382-2.144,3.655-4.424q.391-.062.792-.09t.8-.02c.587,2.22,1.9,3.764,4.235,3.872a2.273,2.273,0,0,1-3.173.51,2.25,2.25,0,0,1-.246-.206c.337,1.26-.591,1.62-1.15,2.455" transform="translate(-107.242 -194.328)" fill="#45444f" fill-rule="evenodd"/>
      <path id="Tracé_15012" data-name="Tracé 15012" d="M227.994,363.39c-.769-.65-1.759-.74-1.783-2.045a2.271,2.271,0,0,1-3.1.831,2.236,2.236,0,0,1-.268-.181c2.217-.747,3.05-2.594,3-4.89q.379-.115.771-.2t.786-.132c.891,2.118,2.4,3.467,4.734,3.245a2.271,2.271,0,0,1-3.07.947,2.187,2.187,0,0,1-.274-.171c.509,1.2-.361,1.688-.8,2.594" transform="translate(-120.226 -192.486)" fill="#45444f" fill-rule="evenodd"/>
      <path id="Tracé_15013" data-name="Tracé 15013" d="M251.7,356.718c-.851-.537-1.846-.489-2.05-1.777a2.272,2.272,0,0,1-3.247,1.113c2.092-1.047,2.66-2.993,2.294-5.26.239-.111.484-.213.737-.305s.506-.171.758-.24c1.177,1.973,2.862,3.1,5.138,2.556a2.272,2.272,0,0,1-3.2,1.234c.671,1.119-.122,1.721-.429,2.679" transform="translate(-132.938 -188.966)" fill="#45444f" fill-rule="evenodd"/>
      <path id="Tracé_15014" data-name="Tracé 15014" d="M274.338,346.937c-.917-.413-1.9-.227-2.277-1.474A2.273,2.273,0,0,1,269,347.018c1.926-1.329,2.217-3.333,1.539-5.529.221-.142.449-.278.686-.4s.477-.24.719-.343c1.44,1.789,3.266,2.668,5.444,1.815a2.275,2.275,0,0,1-2.7,1.756,2.337,2.337,0,0,1-.3-.087c.82,1.013.12,1.72-.051,2.712" transform="translate(-145.131 -183.837)" fill="#45444f" fill-rule="evenodd"/>
      <path id="Tracé_15015" data-name="Tracé 15015" d="M295.474,334.235c-.967-.281-1.91.039-2.461-1.143a2.273,2.273,0,0,1-2.5,2.022,2.324,2.324,0,0,1-.317-.057c1.722-1.585,1.733-3.611.754-5.689.2-.172.408-.339.625-.5s.438-.3.665-.44c1.675,1.572,3.6,2.188,5.643,1.04a2.274,2.274,0,0,1-2.739,2.07c.954.889.358,1.687.328,2.692" transform="translate(-156.567 -177.195)" fill="#45444f" fill-rule="evenodd"/>
      <path id="Tracé_15016" data-name="Tracé 15016" d="M314.64,318.866c-1-.145-1.885.3-2.6-.789a2.273,2.273,0,0,1-2.514,2.337c1.485-1.808,1.213-3.816-.044-5.738q.26-.3.549-.577c.193-.187.393-.361.6-.529,1.878,1.323,3.874,1.665,5.733.244a2.271,2.271,0,0,1-2.1,2.43,2.226,2.226,0,0,1-.324,0c1.068.748.588,1.621.7,2.621" transform="translate(-166.974 -169.177)" fill="#45444f" fill-rule="evenodd"/>
      <path id="Tracé_15017" data-name="Tracé 15017" d="M330.632,300.472c-1.006,0-1.824.564-2.68-.421a2.273,2.273,0,0,1-2.164,2.665c1.218-2,.67-3.947-.844-5.677.145-.221.3-.437.464-.65s.338-.413.517-.606c2.045,1.047,4.069,1.109,5.712-.556a2.271,2.271,0,0,1-2.062,2.744c1.161.592.809,1.523,1.056,2.5" transform="translate(-175.314 -159.281)" fill="#45444f" fill-rule="evenodd"/>
      <path id="Tracé_15018" data-name="Tracé 15018" d="M344.026,279.78c-1,.136-1.727.811-2.713-.043a2.27,2.27,0,0,1-1.456,2.861,2.243,2.243,0,0,1-.315.078c.928-2.147.114-4-1.625-5.5q.166-.359.368-.707c.134-.232.278-.456.428-.673,2.17.754,4.183.532,5.578-1.345a2.271,2.271,0,0,1-1.661,3c1.233.425,1.013,1.4,1.394,2.328" transform="translate(-182.313 -148.07)" fill="#45444f" fill-rule="evenodd"/>
      <path id="Tracé_15019" data-name="Tracé 15019" d="M354.558,257.476c-.968.273-1.6,1.044-2.692.334a2.272,2.272,0,0,1-1.046,3.038,2.332,2.332,0,0,1-.3.12c.621-2.255-.444-3.979-2.374-5.224.077-.253.165-.5.267-.752s.21-.49.329-.725c2.255.445,4.217-.055,5.337-2.108a2.271,2.271,0,0,1-.932,3.073,2.3,2.3,0,0,1-.3.133c1.281.249,1.2,1.241,1.7,2.111" transform="translate(-187.832 -136.045)" fill="#45444f" fill-rule="evenodd"/>
      <path id="Tracé_15020" data-name="Tracé 15020" d="M362.023,234c-.92.405-1.437,1.257-2.619.705a2.272,2.272,0,0,1-.892,3.315c.3-2.32-.994-3.879-3.079-4.843q.063-.39.159-.781t.226-.765c2.294.128,4.169-.641,4.992-2.83a2.272,2.272,0,0,1-.768,3.346c1.3.069,1.358,1.063,1.981,1.853" transform="translate(-191.762 -123.44)" fill="#45444f" fill-rule="evenodd"/>
      <path id="Tracé_15021" data-name="Tracé 15021" d="M366.276,209.8c-.856.53-1.247,1.445-2.5,1.064a2.272,2.272,0,0,1-.423,3.407c-.025-2.34-1.524-3.7-3.723-4.368.006-.263.021-.529.049-.794s.068-.53.117-.788c2.289-.194,4.039-1.216,4.55-3.5a2.272,2.272,0,0,1-.295,3.421c1.3-.114,1.493.862,2.22,1.559" transform="translate(-194.03 -110.503)" fill="#45444f" fill-rule="evenodd"/>
      <path id="Tracé_15022" data-name="Tracé 15022" d="M367.156,185.345c-.773.643-1.035,1.6-2.324,1.4a2.269,2.269,0,0,1,.28,3.2,2.215,2.215,0,0,1-.224.232c-.351-2.313-2.022-3.454-4.294-3.807-.031-.261-.052-.526-.062-.795s-.007-.534.006-.8c2.239-.51,3.83-1.765,4.018-4.1a2.272,2.272,0,0,1,.4,3.189,2.2,2.2,0,0,1-.217.241c1.27-.293,1.6.647,2.415,1.235" transform="translate(-194.511 -97.481)" fill="#45444f" fill-rule="evenodd"/>
      <path id="Tracé_15023" data-name="Tracé 15023" d="M364.555,161.125c-.676.745-.8,1.733-2.106,1.711a2.269,2.269,0,0,1,.533,3.391c-.669-2.242-2.485-3.139-4.782-3.172q-.1-.382-.172-.778t-.1-.791c2.148-.816,3.548-2.281,3.409-4.616a2.272,2.272,0,0,1,.839,3.1,2.223,2.223,0,0,1-.18.268c1.218-.467,1.673.418,2.564.886" transform="translate(-193.106 -84.634)" fill="#45444f" fill-rule="evenodd"/>
      <path id="Tracé_15024" data-name="Tracé 15024" d="M358.684,137.6c-.566.831-.553,1.827-1.848,1.986a2.271,2.271,0,0,1,1.152,3,2.225,2.225,0,0,1-.152.285c-.975-2.126-2.9-2.762-5.178-2.475-.1-.243-.2-.492-.279-.748s-.153-.511-.212-.767c2.012-1.108,3.195-2.753,2.733-5.045a2.272,2.272,0,0,1,1.122,3.244c1.141-.632,1.715.181,2.662.522" transform="translate(-190.001 -72.207)" fill="#45444f" fill-rule="evenodd"/>
      <path id="Tracé_15025" data-name="Tracé 15025" d="M349.663,115.236c-.445.9-.293,1.887-1.553,2.224a2.272,2.272,0,0,1,1.558,2.809,2.373,2.373,0,0,1-.111.3c-1.262-1.97-3.254-2.332-5.472-1.731-.135-.226-.262-.459-.38-.7s-.223-.484-.318-.73c1.839-1.377,2.78-3.17,2-5.377a2.271,2.271,0,0,1,1.562,3.057c1.043-.785,1.724-.059,2.708.145" transform="translate(-185.264 -60.444)" fill="#45444f" fill-rule="evenodd"/>
      <path id="Tracé_15026" data-name="Tracé 15026" d="M337.672,94.462c-.315.955-.028,1.909-1.228,2.419a2.271,2.271,0,0,1,1.933,2.565,2.311,2.311,0,0,1-.068.317c-1.523-1.776-3.547-1.858-5.658-.953q-.248-.307-.474-.641c-.151-.222-.289-.449-.417-.679,1.629-1.62,2.311-3.527,1.236-5.6a2.272,2.272,0,0,1,1.973,2.809c.923-.922,1.7-.3,2.7-.233" transform="translate(-178.991 -49.574)" fill="#45444f" fill-rule="evenodd"/>
      <path id="Tracé_15027" data-name="Tracé 15027" d="M322.943,75.683c-.178.99.239,1.894-.88,2.566a2.271,2.271,0,0,1,2.249,2.594c-1.754-1.547-3.77-1.345-5.736-.156-.193-.181-.379-.37-.559-.569s-.348-.4-.507-.614c1.389-1.831,1.8-3.815.444-5.722a2.273,2.273,0,0,1,2.356,2.186,2.206,2.206,0,0,1-.011.322c.785-1.042,1.641-.532,2.644-.607" transform="translate(-171.303 -39.806)" fill="#45444f" fill-rule="evenodd"/>
      <path id="Tracé_15028" data-name="Tracé 15028" d="M305.348,59.224c-.039,1.006.5,1.841-.514,2.664a2.273,2.273,0,0,1,2.588,2.255c-1.954-1.287-3.921-.806-5.7.645-.217-.151-.426-.313-.632-.485s-.4-.353-.588-.539c1.119-2.005,1.252-4.027-.355-5.727a2.271,2.271,0,0,1,2.672,2.157c.632-1.14,1.55-.755,2.534-.969" transform="translate(-161.934 -31.292)" fill="#45444f" fill-rule="evenodd"/>
      <path id="Tracé_15029" data-name="Tracé 15029" d="M285.121,45.4c.1,1,.751,1.754-.138,2.708a2.271,2.271,0,0,1,2.81,1.557,2.232,2.232,0,0,1,.067.316c-2.114-1-4-.253-5.558,1.431q-.351-.18-.693-.393t-.657-.451c.83-2.142.679-4.162-1.149-5.622a2.271,2.271,0,0,1,2.866,1.45,2.316,2.316,0,0,1,.079.314c.469-1.218,1.43-.964,2.374-1.311" transform="translate(-150.959 -24.186)" fill="#45444f" fill-rule="evenodd"/>
      <path id="Tracé_15030" data-name="Tracé 15030" d="M263.179,34.4c.239.977.988,1.634.239,2.7a2.271,2.271,0,0,1,3.11,1.455c-2.233-.7-3.992.3-5.3,2.191-.249-.087-.5-.184-.741-.292s-.483-.229-.714-.356c.524-2.237.092-4.216-1.921-5.407a2.27,2.27,0,0,1,3.162,1.336c.294-1.271,1.282-1.155,2.169-1.63" transform="translate(-139.114 -18.558)" fill="#45444f" fill-rule="evenodd"/>
      <path id="Tracé_15031" data-name="Tracé 15031" d="M239.951,25.908c.374.934,1.206,1.48.614,2.642a2.272,2.272,0,0,1,3.13.723,2.338,2.338,0,0,1,.151.285c-2.308-.381-3.91.857-4.947,2.908-.259-.052-.518-.113-.776-.187s-.51-.158-.756-.253c.207-2.289-.5-4.189-2.656-5.088a2.273,2.273,0,0,1,3.157.606,2.321,2.321,0,0,1,.161.278c.114-1.3,1.11-1.321,1.921-1.916" transform="translate(-126.632 -13.978)" fill="#45444f" fill-rule="evenodd"/>
      <path id="Tracé_15032" data-name="Tracé 15032" d="M215.886,20.745c.5.874,1.4,1.3.975,2.531a2.275,2.275,0,0,1,3.391.542c-2.339-.056-3.754,1.393-4.5,3.567q-.394-.021-.794-.076t-.784-.145c-.113-2.295-1.073-4.078-3.337-4.669a2.272,2.272,0,0,1,3.208.159,2.329,2.329,0,0,1,.2.256c-.067-1.3.915-1.463,1.636-2.165" transform="translate(-113.753 -11.192)" fill="#45444f" fill-rule="evenodd"/>
      <path id="Tracé_15033" data-name="Tracé 15033" d="M107.5,31.091A76.406,76.406,0,1,1,53.471,53.47,76.407,76.407,0,0,1,107.5,31.091M160.02,54.979a74.277,74.277,0,1,0,21.754,52.52,74.276,74.276,0,0,0-21.754-52.52" transform="translate(-16.775 -16.774)" fill="#45444f" fill-rule="evenodd"/>
      <path id="Tracé_15034" data-name="Tracé 15034" d="M72.613,159.254q-.335.276-.647.566H45.428c0-.188-.007-.377-.007-.566s.006-.376.007-.565h26.54c.209.193.423.381.646.565M53.326,191.49q-.294-.562-.578-1.131h2.321a11.5,11.5,0,0,1-.506,1.131Zm-1.135-2.262q-.27-.562-.528-1.13h4.013a11.4,11.4,0,0,1-.241,1.13Zm-1.029-2.262c-.163-.375-.325-.752-.48-1.13h5.131c.014.377.009.755-.013,1.13Zm-.939-2.262c-.148-.375-.289-.753-.43-1.131h5.719c.087.375.156.753.206,1.131Zm-.839-2.262c-.134-.376-.265-.752-.391-1.131h5.758c.166.373.314.751.441,1.131Zm-.758-2.262q-.177-.563-.344-1.131h5.172a12.953,12.953,0,0,1,.722,1.131Zm-.669-2.262q-.157-.564-.307-1.132h3.814q.412.4.8.816c.1.1.193.21.289.316Zm-.586-2.263c-.09-.376-.181-.752-.264-1.131h1.617c.5.361.994.735,1.472,1.131Zm-.511-2.262-.025-.119.193.119Zm-1.127-7.557-.034-.359H66.409a6.786,6.786,0,0,1-2.675,1.131h-2.8q-.282-.043-.575-.1l.112.1H47.386q-.806-.408-1.652-.772m-.126-1.49q-.041-.564-.072-1.132h23.3c-.353.4-.707.775-1.074,1.132Zm-.124-2.263c-.015-.377-.032-.753-.041-1.131h25.4c-.348.374-.682.755-1.011,1.131Zm-.041-4.524c.009-.379.026-.754.041-1.131H69.832c.328.376.662.758,1.011,1.131Zm.093-2.262q.031-.566.072-1.131H67.766c.367.355.722.736,1.076,1.131Zm.165-2.262.033-.361q.845-.363,1.651-.771H60.474l-.111.1c.195-.04.385-.075.572-.1h2.8a6.791,6.791,0,0,1,2.672,1.131Zm1.133-7.8.025-.119h.167Zm.272-1.25q.128-.566.264-1.13h2.824q-.717.594-1.471,1.13Zm.542-2.262c.1-.378.2-.755.307-1.131h4.6q-.141.159-.286.315c-.262.281-.532.553-.806.816Zm.632-2.262c.112-.378.225-.758.343-1.132h5.556a13.077,13.077,0,0,1-.722,1.132Zm.711-2.263q.191-.567.391-1.131h5.81q-.191.571-.441,1.131Zm.8-2.262q.211-.568.43-1.131h5.5q-.075.568-.206,1.131Zm.891-2.262c.158-.378.316-.755.479-1.131H55.8c.022.376.027.754.013,1.131Zm.981-2.262c.171-.379.348-.756.527-1.13h3.244a11.137,11.137,0,0,1,.241,1.13Zm1.083-2.262q.286-.568.578-1.131h1.239a11.394,11.394,0,0,1,.506,1.131Zm8.785,39.587a11.373,11.373,0,0,1,.8,1.131H51.067q-.8-.6-1.666-1.131ZM62.946,170q.265.551.475,1.131H53.675q-.578-.588-1.2-1.131Zm.831,2.262q.15.558.251,1.13H55.611q-.431-.583-.9-1.13Zm.4,2.261c.036.376.058.754.064,1.131H57.072q-.325-.58-.678-1.131Zm.036,2.262c-.023.379-.064.758-.12,1.131H58.171c-.16-.385-.331-.763-.51-1.131Zm-.336,2.262q-.136.574-.321,1.131H58.986q-.175-.575-.375-1.131Zm-.763,2.262a11.5,11.5,0,0,1-.58,1.132H59.567c-.08-.384-.169-.761-.264-1.132Zm-1.338,2.263a10.514,10.514,0,0,1-1,1.131h-.831q-.075-.573-.17-1.131Zm-12.38-32.8q.863-.534,1.667-1.13H62.329a11.236,11.236,0,0,1-.8,1.13Zm3.074-2.262q.621-.542,1.2-1.131h9.747q-.211.577-.475,1.131Zm2.239-2.263q.47-.548.9-1.131h8.417q-.1.573-.251,1.131Zm1.682-2.261q.354-.551.678-1.13h7.173c-.006.377-.027.755-.063,1.13Zm1.268-2.262q.267-.553.509-1.131H64.1q.084.562.12,1.131Zm.949-2.262q.2-.556.375-1.132h4.573q.185.558.321,1.132ZM59.3,137.2q.142-.555.264-1.131h2.97a11.794,11.794,0,0,1,.581,1.131Zm.478-2.262q.095-.557.17-1.132h.831a10.489,10.489,0,0,1,1,1.132Z" transform="translate(-24.506 -68.529)" fill="#45444f" fill-rule="evenodd"/>
      <path id="Tracé_15035" data-name="Tracé 15035" d="M289.571,159.255q.335.276.646.565h26.538c0-.188.006-.377.006-.565s-.005-.377-.006-.565h-26.54c-.209.193-.423.382-.646.565m19.287,32.235q.294-.562.578-1.131h-2.321a11.378,11.378,0,0,0,.506,1.131Zm1.135-2.262q.27-.562.528-1.13h-4.011a11.278,11.278,0,0,0,.241,1.13Zm1.029-2.262c.163-.375.325-.752.479-1.13h-5.129a11.276,11.276,0,0,0,.013,1.13Zm.939-2.262c.148-.374.289-.752.43-1.131h-5.718c-.087.375-.155.753-.205,1.131Zm.839-2.262c.134-.376.266-.752.391-1.132h-5.756q-.249.56-.441,1.132Zm.758-2.263q.176-.563.343-1.131h-5.171a13.247,13.247,0,0,0-.722,1.131Zm.669-2.262q.158-.564.307-1.131h-3.812q-.412.394-.805.815c-.1.1-.193.21-.289.316Zm.586-2.262c.09-.376.181-.752.264-1.131h-1.617c-.5.361-.994.735-1.473,1.131Zm.51-2.262.026-.119-.193.119Zm1.126-7.558.033-.359h-20.7a6.792,6.792,0,0,0,2.675,1.131h2.8q.281-.044.575-.1l-.112.1H314.8q.806-.408,1.652-.772m.126-1.49q.041-.564.072-1.131H293.345c.353.395.709.775,1.076,1.131Zm.124-2.262c.015-.377.031-.754.041-1.131h-25.4c.348.374.681.755,1.011,1.131Zm.041-4.524c-.01-.378-.026-.755-.041-1.132H292.354c-.329.377-.663.758-1.011,1.132Zm-.094-2.263q-.031-.566-.072-1.131H294.42c-.367.355-.722.737-1.076,1.131Zm-.164-2.262-.033-.361q-.845-.364-1.651-.771H301.71l.112.1q-.292-.061-.572-.1h-2.8a6.789,6.789,0,0,0-2.674,1.131Zm-1.133-7.8-.026-.119h-.166Zm-.272-1.25q-.128-.566-.264-1.13h-2.824q.718.593,1.471,1.13Zm-.542-2.262c-.1-.378-.2-.755-.306-1.131h-4.605q.14.159.286.315c.262.281.532.553.806.816Zm-.632-2.262c-.112-.378-.225-.758-.343-1.131h-5.557a13.152,13.152,0,0,0,.723,1.131Zm-.711-2.262q-.191-.568-.391-1.131h-5.812q.191.571.441,1.131Zm-.8-2.262q-.211-.568-.43-1.132h-5.5q.075.568.205,1.132Zm-.892-2.261c-.158-.378-.316-.755-.479-1.131h-4.641a11.3,11.3,0,0,0-.013,1.131Zm-.981-2.262c-.171-.379-.348-.756-.527-1.13h-3.244a11.15,11.15,0,0,0-.241,1.13Zm-1.083-2.261q-.286-.568-.578-1.131h-1.24a11.437,11.437,0,0,0-.505,1.131Zm-8.786,39.587a11.243,11.243,0,0,0-.8,1.131h11.263q.8-.6,1.666-1.131ZM299.238,170q-.265.551-.475,1.13h9.747q.578-.588,1.2-1.13Zm-.831,2.262q-.149.558-.25,1.13h8.417q.431-.582.9-1.13Zm-.4,2.261c-.036.376-.058.754-.064,1.13h7.172q.325-.58.679-1.13Zm-.036,2.261c.023.379.064.758.12,1.132h5.925c.16-.385.331-.763.51-1.132Zm.336,2.263q.136.574.321,1.131H303.2q.177-.575.376-1.131Zm.763,2.262a11.39,11.39,0,0,0,.58,1.132h2.97c.08-.384.169-.761.264-1.132Zm1.338,2.263a10.563,10.563,0,0,0,1,1.131h.831q.075-.573.17-1.131Zm12.378-32.8q-.863-.534-1.666-1.13h-11.26a11.11,11.11,0,0,0,.8,1.13Zm-3.073-2.262q-.622-.542-1.2-1.131h-9.744q.211.578.475,1.131Zm-2.239-2.262q-.47-.548-.9-1.131h-8.413q.1.572.25,1.131Zm-1.682-2.262q-.354-.55-.679-1.13h-7.169c.006.378.027.755.064,1.13Zm-1.268-2.262q-.267-.553-.509-1.131h-5.922q-.083.561-.12,1.131Zm-.949-2.262q-.2-.557-.376-1.132h-4.57q-.185.558-.321,1.132Zm-.693-2.263q-.142-.555-.264-1.131h-2.969a11.494,11.494,0,0,0-.581,1.131Zm-.478-2.262q-.095-.557-.17-1.132H301.4a10.487,10.487,0,0,0-1,1.132Z" transform="translate(-156.229 -68.53)" fill="#45444f" fill-rule="evenodd"/>
      <path id="Tracé_15036" data-name="Tracé 15036" d="M153.608,308.769a1.7,1.7,0,0,1-.413.624,2.854,2.854,0,0,1-.8.568,3.588,3.588,0,0,1-1.086.325,2.708,2.708,0,0,1-1.233-.119,3.767,3.767,0,0,1-1.792-1.026,2.07,2.07,0,0,1-.494-1.281q-.039-1.39-.048-2.514a13.665,13.665,0,0,0-.142-1.973,3.6,3.6,0,0,0-.481-1.393,1.948,1.948,0,0,0-1.089-.786c-.267-.086-.452-.093-.554-.016l-1.44,4.435q-.4,1.227,1.48,1.835l-.289.888-7.266-2.359.289-.887q1.817.588,2.214-.635l3.175-9.779q.385-1.184-1.58-1.821l.3-.929L145.674,293q.7.227,1.187.373t1.024.3q.534.151,1.225.363t1.746.555a6.037,6.037,0,0,1,1.791.885,3.687,3.687,0,0,1,1.033,1.167,2.927,2.927,0,0,1,.355,1.353,4.508,4.508,0,0,1-.235,1.479,3.025,3.025,0,0,1-1.857,1.98,6.013,6.013,0,0,1-3.345.164,11.538,11.538,0,0,1,1.228.679,3.514,3.514,0,0,1,.8.692,2.575,2.575,0,0,1,.452.8,4.422,4.422,0,0,1,.211.966,9.006,9.006,0,0,1,.03,1.491c-.032.479-.044.915-.036,1.3a3.721,3.721,0,0,0,.123.984.769.769,0,0,0,.538.537q.464.15,1.033-.739Zm-6.878-8.515a6.883,6.883,0,0,0,1.047.258,1.734,1.734,0,0,0,.891-.085,1.779,1.779,0,0,0,.766-.632,4.912,4.912,0,0,0,.647-1.383,3.789,3.789,0,0,0,.22-1.288,2.075,2.075,0,0,0-.235-.932,1.806,1.806,0,0,0-.6-.64,3.543,3.543,0,0,0-.87-.411l-.423-.137q-.633-.207-.97.833l-1.275,3.924c0,.156.086.262.269.321Z" transform="translate(-74.431 -157.5)" fill="#91354f"/>
      <path id="Tracé_15037" data-name="Tracé 15037" d="M198.337,304.233q-.075-1.752-2.294-1.658L196,301.6l5.348-.229.042.975a1.581,1.581,0,0,0-1.744,1.831l.283,6.612a10.419,10.419,0,0,1-.144,2.351,4.058,4.058,0,0,1-.822,1.835,4.268,4.268,0,0,1-1.715,1.228,8.3,8.3,0,0,1-2.822.532,7.592,7.592,0,0,1-2.424-.263,5.9,5.9,0,0,1-1.928-.929,4.606,4.606,0,0,1-1.3-1.489,4.39,4.39,0,0,1-.529-1.945l-.332-7.766q-.06-1.419-2.124-1.331l-.042-.975,7.766-.332.041.975q-2.064.088-2,1.508l.309,7.211a8.957,8.957,0,0,0,.185,1.448,3.955,3.955,0,0,0,.524,1.323,2.836,2.836,0,0,0,1,.946,2.93,2.93,0,0,0,1.608.321,3.347,3.347,0,0,0,2.737-1.184,4.91,4.91,0,0,0,.713-3.141Z" transform="translate(-100.216 -162.596)" fill="#91354f"/>
      <path id="Tracé_15038" data-name="Tracé 15038" d="M237.269,296.375a11.132,11.132,0,0,0-.99-1.358,5.04,5.04,0,0,0-1.061-.952,2.892,2.892,0,0,0-1.122-.454,2.207,2.207,0,0,0-1.151.128,3.318,3.318,0,0,0-1.684,1.2,1.619,1.619,0,0,0-.18,1.531,1.773,1.773,0,0,0,.575.831,2.331,2.331,0,0,0,.9.382,6.063,6.063,0,0,0,1.267.116q.724,0,1.631.012,1.028.016,1.909.086a5.236,5.236,0,0,1,1.6.37,3.655,3.655,0,0,1,1.276.9,5.76,5.76,0,0,1,1.328,3.659,4.132,4.132,0,0,1-.452,1.753,4.615,4.615,0,0,1-1.185,1.448,6.408,6.408,0,0,1-1.827,1.037,6.249,6.249,0,0,1-1.554.373,3.219,3.219,0,0,1-1.508-.188,7.849,7.849,0,0,1-.665.845,6.136,6.136,0,0,1-.783.724,8.442,8.442,0,0,1-.908-1.33,11.562,11.562,0,0,1-.682-1.488q-.205-.539-.371-1.071t-.287-1.1l1.35-.512a6.11,6.11,0,0,0,.7,1.324,4.4,4.4,0,0,0,1.062,1.081,3.339,3.339,0,0,0,1.394.578,3.156,3.156,0,0,0,1.668-.2,4.815,4.815,0,0,0,1.293-.692,2.559,2.559,0,0,0,.708-.827,2,2,0,0,0,.227-.905,2.549,2.549,0,0,0-.171-.92,2.069,2.069,0,0,0-.834-1.073,2.7,2.7,0,0,0-1.52-.315q-1.432.045-2.651.02a8.408,8.408,0,0,1-2.224-.321,4.622,4.622,0,0,1-1.746-.943,4.438,4.438,0,0,1-1.191-1.828,3.875,3.875,0,0,1,.2-3.3,4.278,4.278,0,0,1,1.073-1.273,5.547,5.547,0,0,1,1.553-.886,4.241,4.241,0,0,1,1.581-.278,2.829,2.829,0,0,1,1.542.5,1.968,1.968,0,0,1,.4-.937,3.757,3.757,0,0,1,.722-.726,10.04,10.04,0,0,1,1.239,2.108q.548,1.229.973,2.35Z" transform="translate(-123.625 -157.203)" fill="#91354f"/>
      <path id="Tracé_15039" data-name="Tracé 15039" d="M97.682,110.943l-.7-.622q1.538-1.723.146-2.965l-7.488-6.685q-.5-.442-1.1.236a2.777,2.777,0,0,0-.619,1.042,2.377,2.377,0,0,0-.055,1.112,4.284,4.284,0,0,0,.455,1.241,12.393,12.393,0,0,0,.915,1.426l-1.065.895-3.264-3.747q.45-.371.942-.856t.758-.782l5.843-6.544q.325-.363.765-.924t.758-1.049L97.6,95.958l-.775,1.035a5.026,5.026,0,0,0-2.45-1.192,2.52,2.52,0,0,0-2.1,1.055q-.635.711-.2,1.1l7.489,6.686q1.39,1.242,2.959-.513l.7.621Z" transform="translate(-45.811 -50.024)" fill="#91354f"/>
      <path id="Tracé_15040" data-name="Tracé 15040" d="M136.54,80.58a1.685,1.685,0,0,1,.177.728,2.831,2.831,0,0,1-.129.975,3.607,3.607,0,0,1-.5,1.017,2.714,2.714,0,0,1-.926.823,3.781,3.781,0,0,1-1.97.618,2.074,2.074,0,0,1-1.276-.509q-1.047-.916-1.878-1.674a13.6,13.6,0,0,0-1.544-1.237,3.612,3.612,0,0,0-1.349-.594,1.944,1.944,0,0,0-1.316.264q-.368.206-.389.4l2.275,4.071q.629,1.124,2.354.16l.455.815-6.67,3.725-.455-.814q1.667-.932,1.039-2.056l-5.014-8.979q-.606-1.083-2.41-.078l-.477-.853,3.044-1.7c.427-.239.786-.443,1.08-.616s.6-.355.914-.548.682-.411,1.1-.652.948-.542,1.594-.9a5.982,5.982,0,0,1,1.867-.711,3.672,3.672,0,0,1,1.558.034,2.937,2.937,0,0,1,1.234.66,4.513,4.513,0,0,1,.924,1.177,3.026,3.026,0,0,1,.19,2.709,6.009,6.009,0,0,1-2.154,2.563,11.446,11.446,0,0,1,1.333-.438,3.465,3.465,0,0,1,1.052-.118,2.578,2.578,0,0,1,.893.211,4.48,4.48,0,0,1,.853.5,9.1,9.1,0,0,1,1.113.991q.5.524.932.915a3.8,3.8,0,0,0,.806.578.767.767,0,0,0,.758-.03q.427-.238.161-1.261Zm-10.92-.744a6.728,6.728,0,0,0,.9-.593,1.724,1.724,0,0,0,.542-.713,1.777,1.777,0,0,0,.058-.99,4.877,4.877,0,0,0-.575-1.416,3.812,3.812,0,0,0-.794-1.038,2.084,2.084,0,0,0-.843-.46,1.792,1.792,0,0,0-.875,0,3.55,3.55,0,0,0-.893.358l-.388.217q-.582.325-.048,1.278l2.011,3.6a.323.323,0,0,0,.419.021Z" transform="translate(-62.875 -38.944)" fill="#91354f"/>
      <path id="Tracé_15041" data-name="Tracé 15041" d="M163.023,74.677l-.15-.921q1.971-.323,1.763-1.595l-1.6-9.73q-.27-1.643-2.4-1.295l-.158-.965,12.579-2.063.879,4.266-1.317.329a5.684,5.684,0,0,0-.875-1.759,2.465,2.465,0,0,0-1.053-.794A2.933,2.933,0,0,0,169.435,60q-.688.057-1.521.193a2.477,2.477,0,0,0-1.084.391.66.66,0,0,0-.3.665l.631,3.84a.46.46,0,0,0,.46.459.452.452,0,0,0,.129-.018,6.514,6.514,0,0,0,.953-.224,1.882,1.882,0,0,0,.73-.423,1.708,1.708,0,0,0,.445-.781,3.758,3.758,0,0,0,.08-1.3l1.271-.209.96,5.85-1.271.209a5.47,5.47,0,0,0-.417-1.17,1.6,1.6,0,0,0-.542-.631,1.515,1.515,0,0,0-.745-.216,6.169,6.169,0,0,0-1.026.056q-.734.189-.647.714l.672,4.1q.174,1.053,1.817.781a8.86,8.86,0,0,0,2.1-.558,3.275,3.275,0,0,0,1.2-.851,3.168,3.168,0,0,0,.633-1.217q.2-.708.377-1.682l1.277-.03.13,4.637Z" transform="translate(-86.585 -31.351)" fill="#91354f"/>
      <path id="Tracé_15042" data-name="Tracé 15042" d="M211.083,64.533a11.162,11.162,0,0,0-.21-1.668,5.052,5.052,0,0,0-.469-1.345,2.908,2.908,0,0,0-.763-.939,2.219,2.219,0,0,0-1.069-.444,3.323,3.323,0,0,0-2.052.235,1.621,1.621,0,0,0-.9,1.253,1.775,1.775,0,0,0,.1,1,2.312,2.312,0,0,0,.607.772,6.039,6.039,0,0,0,1.054.712q.633.35,1.422.8.891.509,1.629,1A5.232,5.232,0,0,1,211.66,67a3.657,3.657,0,0,1,.686,1.4,5.773,5.773,0,0,1-.606,3.845,4.132,4.132,0,0,1-1.243,1.317,4.607,4.607,0,0,1-1.737.695,6.37,6.37,0,0,1-2.1.024,6.269,6.269,0,0,1-1.543-.422,3.221,3.221,0,0,1-1.228-.895,7.734,7.734,0,0,1-.991.42,5.989,5.989,0,0,1-1.036.255,8.437,8.437,0,0,1-.152-1.6,11.663,11.663,0,0,1,.122-1.632q.082-.571.193-1.116t.281-1.1l1.429.2a6.142,6.142,0,0,0-.025,1.5,4.418,4.418,0,0,0,.408,1.461,3.322,3.322,0,0,0,.943,1.177,3.15,3.15,0,0,0,1.559.628,4.82,4.82,0,0,0,1.467.019,2.549,2.549,0,0,0,1.019-.381,1.991,1.991,0,0,0,.636-.683,2.541,2.541,0,0,0,.3-.888,2.073,2.073,0,0,0-.211-1.342,2.7,2.7,0,0,0-1.179-1.011q-1.276-.654-2.332-1.264a8.414,8.414,0,0,1-1.791-1.355,4.64,4.64,0,0,1-1.074-1.669,4.448,4.448,0,0,1-.159-2.175,3.884,3.884,0,0,1,1.769-2.8,4.289,4.289,0,0,1,1.555-.6,5.551,5.551,0,0,1,1.787-.025,4.25,4.25,0,0,1,1.516.52,2.832,2.832,0,0,1,1.11,1.179,1.964,1.964,0,0,1,.807-.624,3.68,3.68,0,0,1,.983-.286,10,10,0,0,1,.065,2.444q-.113,1.342-.284,2.528Z" transform="translate(-108.826 -31.794)" fill="#91354f"/>
      <path id="Tracé_15043" data-name="Tracé 15043" d="M249.2,81.623a8.611,8.611,0,0,1-2.042,2.7,6.9,6.9,0,0,1-2.575,1.42,7.062,7.062,0,0,1-2.9.211A9.249,9.249,0,0,1,238.669,85a10.081,10.081,0,0,1-2.477-1.742,6.576,6.576,0,0,1-1.566-2.314,6.336,6.336,0,0,1-.4-2.853,8.947,8.947,0,0,1,1.024-3.341,9.41,9.41,0,0,1,2.087-2.839,6.217,6.217,0,0,1,5.327-1.542,10.131,10.131,0,0,1,2.925.985,9.6,9.6,0,0,1,2.506,1.807,7.117,7.117,0,0,1,1.584,2.4,6.706,6.706,0,0,1,.441,2.863,8.056,8.056,0,0,1-.929,3.2m-9.863,2.465a3.194,3.194,0,0,0,3.634-.265,6.786,6.786,0,0,0,1.469-1.573,18.163,18.163,0,0,0,1.3-2.2,17.977,17.977,0,0,0,.968-2.277,7.037,7.037,0,0,0,.413-2.185,3.821,3.821,0,0,0-.46-1.917,3.727,3.727,0,0,0-1.664-1.48,3.249,3.249,0,0,0-1.986-.408,3.389,3.389,0,0,0-1.649.772,7.1,7.1,0,0,0-1.392,1.614,23.56,23.56,0,0,0-1.222,2.137,18.318,18.318,0,0,0-1.029,2.421,6.88,6.88,0,0,0-.4,2.181,3.319,3.319,0,0,0,2.012,3.178" transform="translate(-126.357 -37.909)" fill="#91354f"/>
      <path id="Tracé_15044" data-name="Tracé 15044" d="M276.41,111.684a1.694,1.694,0,0,1-.668.339,2.834,2.834,0,0,1-.979.1,3.574,3.574,0,0,1-1.1-.255,2.72,2.72,0,0,1-1.011-.715,3.769,3.769,0,0,1-1.05-1.777,2.072,2.072,0,0,1,.205-1.358q.653-1.227,1.2-2.208a13.719,13.719,0,0,0,.852-1.784,3.617,3.617,0,0,0,.271-1.449,1.944,1.944,0,0,0-.556-1.221q-.285-.311-.475-.289l-3.447,3.141q-.952.867.38,2.328l-.689.629-5.146-5.645.688-.628q1.287,1.411,2.239.544l7.6-6.927q.918-.839-.472-2.364l.722-.658,2.347,2.577q.495.542.846.911t.743.765q.39.4.885.922T281.035,98a5.969,5.969,0,0,1,1.119,1.655,3.681,3.681,0,0,1,.322,1.525,2.933,2.933,0,0,1-.361,1.351,4.512,4.512,0,0,1-.936,1.168,3.025,3.025,0,0,1-2.593.8,6.012,6.012,0,0,1-2.989-1.513,11.512,11.512,0,0,1,.73,1.2,3.466,3.466,0,0,1,.355,1,2.612,2.612,0,0,1,0,.919,4.494,4.494,0,0,1-.294.945,9.175,9.175,0,0,1-.711,1.309q-.4.6-.68,1.116a3.756,3.756,0,0,0-.379.917.766.766,0,0,0,.2.732q.329.361,1.264-.13Zm-1.764-10.8a6.836,6.836,0,0,0,.783.744,1.728,1.728,0,0,0,.817.367,1.783,1.783,0,0,0,.977-.17,4.9,4.9,0,0,0,1.248-.881,3.789,3.789,0,0,0,.828-1.011,2.06,2.06,0,0,0,.257-.926,1.807,1.807,0,0,0-.2-.851,3.6,3.6,0,0,0-.553-.788l-.3-.329q-.448-.492-1.257.244l-3.048,2.78a.325.325,0,0,0,.075.414Z" transform="translate(-142.539 -49.356)" fill="#91354f"/>
      <path id="Tracé_15045" data-name="Tracé 15045" d="M104.5,282.332a.752.752,0,0,0,.387-.8l.127-.041a.286.286,0,0,0,.2-.184c.043-.135-.022-.269-.169-.48a2.852,2.852,0,0,0,.983-.784,2.491,2.491,0,0,0,.585-1.109.349.349,0,0,0-.166-.389.258.258,0,0,0-.087-.026.524.524,0,0,0-.031-.446,3.528,3.528,0,0,0,.6-.976c.144-.333.357-.941.181-1.269-.068-.125-.242-.307-.658-.16a3.816,3.816,0,0,0,.272-2.174.451.451,0,0,0-.187-.332.379.379,0,0,0-.136-.053.969.969,0,0,0-.379-.815h0a.969.969,0,0,0-.886-.156.367.367,0,0,0-.087-.118.445.445,0,0,0-.368-.1,3.813,3.813,0,0,0-2.031.823c.035-.44-.186-.561-.324-.595-.362-.087-.895.277-1.18.5a3.536,3.536,0,0,0-.789.829.525.525,0,0,0-.439.085.265.265,0,0,0-.048-.077.349.349,0,0,0-.419-.06,2.492,2.492,0,0,0-.921.851,2.851,2.851,0,0,0-.5,1.152c-.242-.088-.388-.116-.508-.039a.287.287,0,0,0-.126.24c0,.045,0,.088-.006.133a.753.753,0,0,0-.678.582,2.171,2.171,0,0,0-.177,1.337.4.4,0,0,0-.28.067c-.172.12-.233.361-.187.739.013.11.024.216.035.319a2.472,2.472,0,0,0,.477,1.467,2.437,2.437,0,0,0,.312.314,3.244,3.244,0,0,0,1.351,1.87,3.118,3.118,0,0,0,2.123.8,2.4,2.4,0,0,0,.383.22,2.475,2.475,0,0,0,1.54.082c.1-.016.207-.033.317-.048.376-.053.594-.175.665-.372a.4.4,0,0,0-.007-.287,2.167,2.167,0,0,0,1.246-.516m-.2-.284c-.51.356-.97.625-1.431.316-.1-.117-.205-.238-.306-.363a11.251,11.251,0,0,0,1.989-.375c.02.151-.064.29-.252.422m.558-.876a10.906,10.906,0,0,1-2.546.5,14.1,14.1,0,0,1-1.345-2.247,13.836,13.836,0,0,0,2.7-.07,11.541,11.541,0,0,0,.936,1.445,4.114,4.114,0,0,1,.256.369m-5.814.192a7.7,7.7,0,0,1-.716-1.5,9.884,9.884,0,0,1-.343-1.171,14.9,14.9,0,0,0,2.579.7,14.921,14.921,0,0,0,1.337,2.313,9.974,9.974,0,0,1-1.219-.029,7.7,7.7,0,0,1-1.637-.3m1.089-7.536c.042-.037.176-.011.317.018.047.009.1.019.149.028a10.712,10.712,0,0,0,1.652.149,14.063,14.063,0,0,0,.29,2.335,12.211,12.211,0,0,1-2.439-.261c-.023-.184-.041-.36-.055-.528h0c-.025-.434-.093-1.585.085-1.74m4.723-.029a13.129,13.129,0,0,0,.366,2.237,14.061,14.061,0,0,1-2.326.315,14,14,0,0,1-.3-2.329,13.125,13.125,0,0,0,2.256-.223m1.09,4.269c.064.129.124.251.1.3-.1.211-1.234.443-1.66.531h0q-.249.044-.524.083a12.221,12.221,0,0,1-.881-2.289,14.075,14.075,0,0,0,2.33-.322,10.723,10.723,0,0,0,.569,1.558c.023.048.045.094.066.137M102.63,276.7a12.752,12.752,0,0,0,.872,2.326,13.487,13.487,0,0,1-2.688.038,13.522,13.522,0,0,1-.656-2.607,12.785,12.785,0,0,0,2.472.243m3.647,2.153a1.019,1.019,0,0,1-.139.411,2.767,2.767,0,0,1-1.3,1.265,11.069,11.069,0,0,1-.8-1.224c.7-.1,1.266-.238,1.68-.336.223-.053.452-.107.555-.117m.259-2.855c.07-.028.235-.084.273-.015a1.5,1.5,0,0,1-.194.967,3.577,3.577,0,0,1-.44.772,10.382,10.382,0,0,1-.519-1.438,8.282,8.282,0,0,0,.88-.286m-.185-2.554c.008,0,.024.03.033.09a3.214,3.214,0,0,1-.442,2.306c-.124.039-.25.076-.376.109a13.091,13.091,0,0,1-.36-2.213c.121-.036.335-.1.9-.254l.03-.008c.06-.018.184-.053.219-.03m-.539-.886a.624.624,0,0,1,.24.579l-.015,0-.028.008c-.36.1-.632.179-.833.237.005-.209.01-.492.014-.866V272.5c0-.005,0-.011,0-.016a.625.625,0,0,1,.621.083m-1.09-.3c.06-.007.088,0,.1.008.03.028.028.157.027.22v.031c-.006.493-.011.774-.015.932a13.1,13.1,0,0,1-2.23.222c0-.13,0-.261.008-.392a3.213,3.213,0,0,1,2.115-1.021m-3.361.658c.437-.344.759-.466.885-.437.076.018.064.193.056.268a8.157,8.157,0,0,0-.05.925,10.356,10.356,0,0,1-1.524-.131,3.618,3.618,0,0,1,.633-.624m-2.112,1.057a1.006,1.006,0,0,1,.361-.24c.017.1.024.338.03.567.012.425.029,1.008.109,1.709a11.058,11.058,0,0,1-1.388-.456,2.766,2.766,0,0,1,.888-1.58m-1.09,1.873a11.559,11.559,0,0,0,1.637.532,13.869,13.869,0,0,0,.629,2.626,14.11,14.11,0,0,1-2.518-.72,10.936,10.936,0,0,1-.17-2.59,4.067,4.067,0,0,1,.423.152m-1.125.612c.079-.216.192-.333.342-.352a11.3,11.3,0,0,0,.151,2.019q-.22-.1-.43-.2c-.417-.366-.276-.88-.063-1.464m-.59,2.307c-.011-.1-.022-.212-.035-.326-.042-.349.038-.41.041-.413.024-.017.094,0,.141.023l.074.04q.445.239.938.444a10.425,10.425,0,0,0,.409,1.455,8.991,8.991,0,0,0,.507,1.148c-1.922-.867-1.979-1.421-2.075-2.372m.9,2.145a10.062,10.062,0,0,0,1.487.739,9.99,9.99,0,0,0,1.1,1.252,3.588,3.588,0,0,1-1.482-.724,3.775,3.775,0,0,1-1.108-1.266m5.211,2.25c-.113.016-.22.033-.323.05-.944.152-1.494.24-2.827-1.394a9.071,9.071,0,0,0,1.241.193,10.4,10.4,0,0,0,1.512.02q.325.423.671.792l.057.061c.036.039.069.1.058.131,0,0-.039.1-.388.146" transform="translate(-51.821 -146.702)" fill="#45444f"/>
      <path id="Tracé_15046" data-name="Tracé 15046" d="M104.5,282.332a.752.752,0,0,0,.387-.8l.127-.041a.286.286,0,0,0,.2-.184c.043-.135-.022-.269-.169-.48a2.852,2.852,0,0,0,.983-.784,2.491,2.491,0,0,0,.585-1.109.349.349,0,0,0-.166-.389.258.258,0,0,0-.087-.026.524.524,0,0,0-.031-.446,3.528,3.528,0,0,0,.6-.976c.144-.333.357-.941.181-1.269-.068-.125-.242-.307-.658-.16a3.816,3.816,0,0,0,.272-2.174.451.451,0,0,0-.187-.332.379.379,0,0,0-.136-.053.969.969,0,0,0-.379-.815h0a.969.969,0,0,0-.886-.156.367.367,0,0,0-.087-.118.445.445,0,0,0-.368-.1,3.813,3.813,0,0,0-2.031.823c.035-.44-.186-.561-.324-.595-.362-.087-.895.277-1.18.5a3.536,3.536,0,0,0-.789.829.525.525,0,0,0-.439.085.265.265,0,0,0-.048-.077.349.349,0,0,0-.419-.06,2.492,2.492,0,0,0-.921.851,2.851,2.851,0,0,0-.5,1.152c-.242-.088-.388-.116-.508-.039a.287.287,0,0,0-.126.24c0,.045,0,.088-.006.133a.753.753,0,0,0-.678.582,2.171,2.171,0,0,0-.177,1.337.4.4,0,0,0-.28.067c-.172.12-.233.361-.187.739.013.11.024.216.035.319a2.472,2.472,0,0,0,.477,1.467,2.437,2.437,0,0,0,.312.314,3.244,3.244,0,0,0,1.351,1.87,3.118,3.118,0,0,0,2.123.8,2.4,2.4,0,0,0,.383.22,2.475,2.475,0,0,0,1.54.082c.1-.016.207-.033.317-.048.376-.053.594-.175.665-.372a.4.4,0,0,0-.007-.287A2.167,2.167,0,0,0,104.5,282.332Zm-.2-.284c-.51.356-.97.625-1.431.316-.1-.117-.205-.238-.306-.363a11.251,11.251,0,0,0,1.989-.375C104.579,281.777,104.5,281.916,104.306,282.048Zm.558-.876a10.906,10.906,0,0,1-2.546.5,14.1,14.1,0,0,1-1.345-2.247,13.836,13.836,0,0,0,2.7-.07,11.541,11.541,0,0,0,.936,1.445A4.114,4.114,0,0,1,104.864,281.172Zm-5.814.192a7.7,7.7,0,0,1-.716-1.5,9.884,9.884,0,0,1-.343-1.171,14.9,14.9,0,0,0,2.579.7,14.921,14.921,0,0,0,1.337,2.313,9.974,9.974,0,0,1-1.219-.029A7.7,7.7,0,0,1,99.05,281.364Zm1.089-7.536c.042-.037.176-.011.317.018.047.009.1.019.149.028a10.712,10.712,0,0,0,1.652.149,14.063,14.063,0,0,0,.29,2.335,12.211,12.211,0,0,1-2.439-.261c-.023-.184-.041-.36-.055-.528h0C100.028,275.134,99.961,273.983,100.139,273.828Zm4.723-.029a13.129,13.129,0,0,0,.366,2.237,14.061,14.061,0,0,1-2.326.315,14,14,0,0,1-.3-2.329A13.125,13.125,0,0,0,104.861,273.8Zm1.09,4.269c.064.129.124.251.1.3-.1.211-1.234.443-1.66.531h0q-.249.044-.524.083a12.221,12.221,0,0,1-.881-2.289,14.075,14.075,0,0,0,2.33-.322,10.723,10.723,0,0,0,.569,1.558C105.908,277.979,105.93,278.025,105.952,278.068ZM102.63,276.7a12.752,12.752,0,0,0,.872,2.326,13.487,13.487,0,0,1-2.688.038,13.522,13.522,0,0,1-.656-2.607A12.785,12.785,0,0,0,102.63,276.7Zm3.647,2.153a1.019,1.019,0,0,1-.139.411,2.767,2.767,0,0,1-1.3,1.265,11.069,11.069,0,0,1-.8-1.224c.7-.1,1.266-.238,1.68-.336C105.944,278.921,106.173,278.866,106.276,278.857Zm.259-2.855c.07-.028.235-.084.273-.015a1.5,1.5,0,0,1-.194.967,3.577,3.577,0,0,1-.44.772,10.382,10.382,0,0,1-.519-1.438A8.282,8.282,0,0,0,106.535,276Zm-.185-2.554c.008,0,.024.03.033.09a3.214,3.214,0,0,1-.442,2.306c-.124.039-.25.076-.376.109a13.091,13.091,0,0,1-.36-2.213c.121-.036.335-.1.9-.254l.03-.008C106.192,273.461,106.316,273.425,106.35,273.448Zm-.539-.886a.624.624,0,0,1,.24.579l-.015,0-.028.008c-.36.1-.632.179-.833.237.005-.209.01-.492.014-.866V272.5c0-.005,0-.011,0-.016A.625.625,0,0,1,105.812,272.562Zm-1.09-.3c.06-.007.088,0,.1.008.03.028.028.157.027.22v.031c-.006.493-.011.774-.015.932a13.1,13.1,0,0,1-2.23.222c0-.13,0-.261.008-.392A3.213,3.213,0,0,1,104.721,272.261Zm-3.361.658c.437-.344.759-.466.885-.437.076.018.064.193.056.268a8.157,8.157,0,0,0-.05.925,10.356,10.356,0,0,1-1.524-.131A3.618,3.618,0,0,1,101.361,272.919Zm-2.112,1.057a1.006,1.006,0,0,1,.361-.24c.017.1.024.338.03.567.012.425.029,1.008.109,1.709a11.058,11.058,0,0,1-1.388-.456A2.766,2.766,0,0,1,99.249,273.975Zm-1.09,1.873a11.559,11.559,0,0,0,1.637.532,13.869,13.869,0,0,0,.629,2.626,14.11,14.11,0,0,1-2.518-.72,10.936,10.936,0,0,1-.17-2.59A4.067,4.067,0,0,1,98.159,275.849Zm-1.125.612c.079-.216.192-.333.342-.352a11.3,11.3,0,0,0,.151,2.019q-.22-.1-.43-.2C96.68,277.559,96.821,277.046,97.034,276.461Zm-.59,2.307c-.011-.1-.022-.212-.035-.326-.042-.349.038-.41.041-.413.024-.017.094,0,.141.023l.074.04q.445.239.938.444a10.425,10.425,0,0,0,.409,1.455,8.991,8.991,0,0,0,.507,1.148C96.6,280.273,96.54,279.719,96.444,278.769Zm.9,2.145a10.062,10.062,0,0,0,1.487.739,9.99,9.99,0,0,0,1.1,1.252,3.588,3.588,0,0,1-1.482-.724A3.775,3.775,0,0,1,97.342,280.913Zm5.211,2.25c-.113.016-.22.033-.323.05-.944.152-1.494.24-2.827-1.394a9.071,9.071,0,0,0,1.241.193,10.4,10.4,0,0,0,1.512.02q.325.423.671.792l.057.061c.036.039.069.1.058.131C102.939,283.021,102.9,283.114,102.553,283.163Z" transform="translate(-51.821 -146.702)" fill="none" stroke="#45444f" stroke-miterlimit="10" stroke-width="0.392"/>
      <path id="Tracé_15047" data-name="Tracé 15047" d="M277.056,281.795a.4.4,0,0,0-.007.287c.071.2.289.318.665.372.11.015.216.032.317.049a2.474,2.474,0,0,0,1.54-.083,2.4,2.4,0,0,0,.384-.22,3.115,3.115,0,0,0,2.122-.8,3.241,3.241,0,0,0,1.351-1.87,2.4,2.4,0,0,0,.312-.314,2.474,2.474,0,0,0,.477-1.467c.01-.1.021-.209.035-.319.046-.377-.016-.619-.187-.739a.409.409,0,0,0-.28-.067,2.164,2.164,0,0,0-.177-1.337.753.753,0,0,0-.678-.582c0-.044,0-.088-.007-.133a.285.285,0,0,0-.126-.24c-.12-.077-.266-.049-.507.039a2.858,2.858,0,0,0-.5-1.152,2.486,2.486,0,0,0-.921-.851.349.349,0,0,0-.419.059.275.275,0,0,0-.048.077.524.524,0,0,0-.438-.085,3.538,3.538,0,0,0-.79-.829c-.285-.224-.817-.588-1.179-.5-.138.033-.358.155-.324.595a3.817,3.817,0,0,0-2.031-.823.447.447,0,0,0-.368.1.379.379,0,0,0-.087.118.968.968,0,0,0-.885.156h0a.967.967,0,0,0-.379.815.372.372,0,0,0-.136.053.448.448,0,0,0-.187.332,3.816,3.816,0,0,0,.272,2.174c-.416-.147-.59.035-.658.16-.177.327.037.935.18,1.269a3.53,3.53,0,0,0,.6.977.524.524,0,0,0-.031.446.266.266,0,0,0-.087.026.349.349,0,0,0-.165.389,2.49,2.49,0,0,0,.585,1.109,2.851,2.851,0,0,0,.983.784c-.147.211-.212.345-.169.48a.287.287,0,0,0,.2.184l.127.04a.753.753,0,0,0,.388.805,2.169,2.169,0,0,0,1.246.515m-1.3-1.221a11.269,11.269,0,0,0,1.989.375c-.1.125-.2.246-.306.363-.461.309-.921.04-1.431-.316-.189-.132-.272-.271-.252-.422m-.05-.823a11.614,11.614,0,0,0,.936-1.445,13.916,13.916,0,0,0,2.7.07A14.1,14.1,0,0,1,278,280.622a10.911,10.911,0,0,1-2.546-.5,4.109,4.109,0,0,1,.256-.369m3.922.866a10.074,10.074,0,0,1-1.22.029,14.936,14.936,0,0,0,1.337-2.312,14.94,14.94,0,0,0,2.579-.7,10.033,10.033,0,0,1-.343,1.171,7.691,7.691,0,0,1-.717,1.5,7.716,7.716,0,0,1-1.637.3m.634-6.1h0c-.015.168-.033.344-.055.528a12.215,12.215,0,0,1-2.439.261,14.009,14.009,0,0,0,.29-2.335,10.754,10.754,0,0,0,1.652-.148l.15-.029c.141-.028.275-.054.317-.018.177.155.111,1.306.085,1.74m-2.552-1.545a14.058,14.058,0,0,1-.3,2.329,14.1,14.1,0,0,1-2.326-.315,13.116,13.116,0,0,0,.365-2.238,13.181,13.181,0,0,0,2.257.224m-3.281,3.908A10.676,10.676,0,0,0,275,275.32a14.079,14.079,0,0,0,2.331.322,12.24,12.24,0,0,1-.881,2.289c-.183-.025-.358-.053-.524-.082h0c-.426-.087-1.556-.32-1.659-.531-.025-.05.035-.173.1-.3.021-.043.044-.089.066-.137m5.728-1.47a13.487,13.487,0,0,1-.656,2.607,13.487,13.487,0,0,1-2.688-.038,12.738,12.738,0,0,0,.873-2.326,12.74,12.74,0,0,0,2.472-.243m-5.563,2.512c.414.1.982.233,1.68.336a11.141,11.141,0,0,1-.8,1.224,2.771,2.771,0,0,1-1.3-1.266,1.008,1.008,0,0,1-.139-.41c.1.009.332.064.555.116m.066-2.685a10.329,10.329,0,0,1-.519,1.439,3.614,3.614,0,0,1-.44-.773,1.505,1.505,0,0,1-.194-.967c.037-.069.2-.012.273.015a8.236,8.236,0,0,0,.88.286m-.477-2.81.03.009c.561.157.775.217.9.253a13.156,13.156,0,0,1-.361,2.213c-.126-.034-.251-.07-.376-.109a3.214,3.214,0,0,1-.442-2.306c.009-.06.025-.086.033-.09.035-.023.159.013.219.03m.941-1v.045c0,.373.01.657.014.866-.2-.058-.473-.137-.833-.237l-.029-.008-.015,0a.627.627,0,0,1,.862-.661m2.583.8q.009.2.009.392a13.1,13.1,0,0,1-2.231-.222c0-.158-.009-.438-.015-.932v-.031c0-.062,0-.192.027-.22.007-.007.035-.016.1-.008a3.214,3.214,0,0,1,2.114,1.021m1.879.261a10.363,10.363,0,0,1-1.524.131,8.255,8.255,0,0,0-.05-.925c-.009-.074-.02-.249.056-.268.126-.03.448.093.885.437a3.6,3.6,0,0,1,.633.625m2.367,2.012a11.15,11.15,0,0,1-1.389.456c.08-.7.1-1.285.109-1.71.006-.229.013-.465.031-.567a1.014,1.014,0,0,1,.361.24,2.771,2.771,0,0,1,.888,1.58m.624.141a10.908,10.908,0,0,1-.17,2.59,14.118,14.118,0,0,1-2.517.72,13.893,13.893,0,0,0,.629-2.626,11.585,11.585,0,0,0,1.637-.532,4.331,4.331,0,0,1,.422-.152m.639,2.229c-.14.07-.283.137-.43.2a11.256,11.256,0,0,0,.151-2.019c.151.02.264.136.343.353.213.584.354,1.1-.064,1.464m-1.422,3.215a9.028,9.028,0,0,0,.507-1.149,10.478,10.478,0,0,0,.409-1.455q.493-.205.938-.444l.074-.04c.047-.024.117-.04.141-.023,0,0,.084.063.041.413-.014.114-.024.222-.035.326-.1.95-.154,1.5-2.076,2.372m.07,1.038a3.591,3.591,0,0,1-1.482.724,10.036,10.036,0,0,0,1.1-1.252,10.023,10.023,0,0,0,1.487-.739,3.778,3.778,0,0,1-1.107,1.266m-4.492.838c-.01-.028.023-.092.058-.131l.057-.061q.346-.368.671-.792a10.406,10.406,0,0,0,1.511-.02,8.981,8.981,0,0,0,1.241-.193c-1.333,1.634-1.883,1.545-2.827,1.394-.1-.017-.21-.034-.324-.05-.349-.049-.386-.143-.388-.146" transform="translate(-147.362 -146.134)" fill="#45444f"/>
      <path id="Tracé_15048" data-name="Tracé 15048" d="M277.056,281.795a.4.4,0,0,0-.007.287c.071.2.289.318.665.372.11.015.216.032.317.049a2.474,2.474,0,0,0,1.54-.083,2.4,2.4,0,0,0,.384-.22,3.115,3.115,0,0,0,2.122-.8,3.241,3.241,0,0,0,1.351-1.87,2.4,2.4,0,0,0,.312-.314,2.474,2.474,0,0,0,.477-1.467c.01-.1.021-.209.035-.319.046-.377-.016-.619-.187-.739a.409.409,0,0,0-.28-.067,2.164,2.164,0,0,0-.177-1.337.753.753,0,0,0-.678-.582c0-.044,0-.088-.007-.133a.285.285,0,0,0-.126-.24c-.12-.077-.266-.049-.507.039a2.858,2.858,0,0,0-.5-1.152,2.486,2.486,0,0,0-.921-.851.349.349,0,0,0-.419.059.275.275,0,0,0-.048.077.524.524,0,0,0-.438-.085,3.538,3.538,0,0,0-.79-.829c-.285-.224-.817-.588-1.179-.5-.138.033-.358.155-.324.595a3.817,3.817,0,0,0-2.031-.823.447.447,0,0,0-.368.1.379.379,0,0,0-.087.118.968.968,0,0,0-.885.156h0a.967.967,0,0,0-.379.815.372.372,0,0,0-.136.053.448.448,0,0,0-.187.332,3.816,3.816,0,0,0,.272,2.174c-.416-.147-.59.035-.658.16-.177.327.037.935.18,1.269a3.53,3.53,0,0,0,.6.977.524.524,0,0,0-.031.446.266.266,0,0,0-.087.026.349.349,0,0,0-.165.389,2.49,2.49,0,0,0,.585,1.109,2.851,2.851,0,0,0,.983.784c-.147.211-.212.345-.169.48a.287.287,0,0,0,.2.184l.127.04a.753.753,0,0,0,.388.805A2.169,2.169,0,0,0,277.056,281.795Zm-1.3-1.221a11.269,11.269,0,0,0,1.989.375c-.1.125-.2.246-.306.363-.461.309-.921.04-1.431-.316C275.819,280.864,275.736,280.725,275.756,280.574Zm-.05-.823a11.614,11.614,0,0,0,.936-1.445,13.916,13.916,0,0,0,2.7.07A14.1,14.1,0,0,1,278,280.622a10.911,10.911,0,0,1-2.546-.5A4.109,4.109,0,0,1,275.706,279.751Zm3.922.866a10.074,10.074,0,0,1-1.22.029,14.936,14.936,0,0,0,1.337-2.312,14.94,14.94,0,0,0,2.579-.7,10.033,10.033,0,0,1-.343,1.171,7.691,7.691,0,0,1-.717,1.5A7.716,7.716,0,0,1,279.628,280.616Zm.634-6.1h0c-.015.168-.033.344-.055.528a12.215,12.215,0,0,1-2.439.261,14.009,14.009,0,0,0,.29-2.335,10.754,10.754,0,0,0,1.652-.148l.15-.029c.141-.028.275-.054.317-.018C280.354,272.93,280.287,274.082,280.262,274.515Zm-2.552-1.545a14.058,14.058,0,0,1-.3,2.329,14.1,14.1,0,0,1-2.326-.315,13.116,13.116,0,0,0,.365-2.238A13.181,13.181,0,0,0,277.71,272.97Zm-3.281,3.908A10.676,10.676,0,0,0,275,275.32a14.079,14.079,0,0,0,2.331.322,12.24,12.24,0,0,1-.881,2.289c-.183-.025-.358-.053-.524-.082h0c-.426-.087-1.556-.32-1.659-.531-.025-.05.035-.173.1-.3C274.384,276.972,274.407,276.926,274.429,276.878Zm5.728-1.47a13.487,13.487,0,0,1-.656,2.607,13.487,13.487,0,0,1-2.688-.038,12.738,12.738,0,0,0,.873-2.326A12.74,12.74,0,0,0,280.157,275.408Zm-5.563,2.512c.414.1.982.233,1.68.336a11.141,11.141,0,0,1-.8,1.224,2.771,2.771,0,0,1-1.3-1.266,1.008,1.008,0,0,1-.139-.41C274.142,277.813,274.371,277.868,274.594,277.92Zm.066-2.685a10.329,10.329,0,0,1-.519,1.439,3.614,3.614,0,0,1-.44-.773,1.505,1.505,0,0,1-.194-.967c.037-.069.2-.012.273.015A8.236,8.236,0,0,0,274.66,275.236Zm-.477-2.81.03.009c.561.157.775.217.9.253a13.156,13.156,0,0,1-.361,2.213c-.126-.034-.251-.07-.376-.109a3.214,3.214,0,0,1-.442-2.306c.009-.06.025-.086.033-.09C274,272.372,274.123,272.408,274.183,272.425Zm.941-1v.045c0,.373.01.657.014.866-.2-.058-.473-.137-.833-.237l-.029-.008-.015,0a.627.627,0,0,1,.862-.661Zm2.583.8q.009.2.009.392a13.1,13.1,0,0,1-2.231-.222c0-.158-.009-.438-.015-.932v-.031c0-.062,0-.192.027-.22.007-.007.035-.016.1-.008A3.214,3.214,0,0,1,277.708,272.23Zm1.879.261a10.363,10.363,0,0,1-1.524.131,8.255,8.255,0,0,0-.05-.925c-.009-.074-.02-.249.056-.268.126-.03.448.093.885.437A3.6,3.6,0,0,1,279.587,272.491Zm2.367,2.012a11.15,11.15,0,0,1-1.389.456c.08-.7.1-1.285.109-1.71.006-.229.013-.465.031-.567a1.014,1.014,0,0,1,.361.24A2.771,2.771,0,0,1,281.954,274.5Zm.624.141a10.908,10.908,0,0,1-.17,2.59,14.118,14.118,0,0,1-2.517.72,13.893,13.893,0,0,0,.629-2.626,11.585,11.585,0,0,0,1.637-.532A4.331,4.331,0,0,1,282.578,274.644Zm.639,2.229c-.14.07-.283.137-.43.2a11.256,11.256,0,0,0,.151-2.019c.151.02.264.136.343.353C283.494,275.993,283.635,276.507,283.217,276.873Zm-1.422,3.215a9.028,9.028,0,0,0,.507-1.149,10.478,10.478,0,0,0,.409-1.455q.493-.205.938-.444l.074-.04c.047-.024.117-.04.141-.023,0,0,.084.063.041.413-.014.114-.024.222-.035.326C283.774,278.666,283.717,279.221,281.8,280.088Zm.07,1.038a3.591,3.591,0,0,1-1.482.724,10.036,10.036,0,0,0,1.1-1.252,10.023,10.023,0,0,0,1.487-.739A3.778,3.778,0,0,1,281.865,281.127Zm-4.492.838c-.01-.028.023-.092.058-.131l.057-.061q.346-.368.671-.792a10.406,10.406,0,0,0,1.511-.02,8.981,8.981,0,0,0,1.241-.193c-1.333,1.634-1.883,1.545-2.827,1.394-.1-.017-.21-.034-.324-.05C277.413,282.061,277.375,281.968,277.374,281.964Z" transform="translate(-147.362 -146.134)" fill="none" stroke="#45444f" stroke-miterlimit="10" stroke-width="0.392"/>
      <path id="Tracé_15049" data-name="Tracé 15049" d="M113.669,42.526A71.143,71.143,0,1,1,63.363,63.364a71.143,71.143,0,0,1,50.306-20.838m49.362,21.781a69.809,69.809,0,1,0,20.446,49.361,69.809,69.809,0,0,0-20.446-49.361" transform="translate(-22.944 -22.943)" fill="#45444f" fill-rule="evenodd"/>
      <path id="Tracé_15050" data-name="Tracé 15050" d="M148.561,107.2a41.362,41.362,0,1,1-29.248,12.115A41.363,41.363,0,0,1,148.561,107.2" transform="translate(-57.836 -57.835)" fill="none" stroke="#91354f" stroke-miterlimit="10" stroke-width="2.352"/>
      <path id="Tracé_15051" data-name="Tracé 15051" d="M231.351,154.657c-.3.435-.6.93-.866,1.376-1.065,1.743-2.27,3.718-4.122,4.415a3.751,3.751,0,0,1-1.291.245,2.684,2.684,0,0,1-1.447-.4,2.865,2.865,0,0,1-1.242-2.5,3.444,3.444,0,0,1,.464-1.79.313.313,0,0,0,.042-.241.3.3,0,0,0-.161-.2.365.365,0,0,0-.471.109,4.072,4.072,0,0,0-.559,2.12v.036a3.433,3.433,0,0,0,1.541,2.99,3.34,3.34,0,0,0,1.832.521,4.449,4.449,0,0,0,1.55-.295c2.077-.778,3.344-2.86,4.469-4.706l.027-.039c.268-.438.544-.891.82-1.3,1.079-1.592,2.406-3.066,4.794-3.066h.166a4.131,4.131,0,0,1,3.637,2.02,3.915,3.915,0,0,1,.2,3.379,3.647,3.647,0,0,1-2.2,2.053,3.125,3.125,0,0,1-1.034.175,2.955,2.955,0,0,1-2.755-1.775,1.841,1.841,0,0,1,.162-1.592,2.327,2.327,0,0,1,1.2-1.063,2.069,2.069,0,0,1,1.4.083,1.506,1.506,0,0,1,.846.8,1.362,1.362,0,0,1-.25,1.33.613.613,0,0,0-.148-.132.652.652,0,0,0-.841.147.526.526,0,0,0-.092.417.558.558,0,0,0,.252.363.866.866,0,0,0,.529.1,1.616,1.616,0,0,0,1.178-1.063,1.923,1.923,0,0,0,.015-1.39,2.158,2.158,0,0,0-1.206-1.157,2.892,2.892,0,0,0-1.125-.226,2.461,2.461,0,0,0-.8.126A2.828,2.828,0,0,0,234.1,158a3.657,3.657,0,0,0,3.409,2.19,3.842,3.842,0,0,0,1.265-.214,4.3,4.3,0,0,0,2.608-2.422,4.565,4.565,0,0,0-.232-3.909,4.823,4.823,0,0,0-4.23-2.363h-.2c-2.71,0-4.18,1.619-5.364,3.369" transform="translate(-119.608 -81.621)" fill="#91354f" fill-rule="evenodd"/>
      <path id="Tracé_15052" data-name="Tracé 15052" d="M220.986,181.325a4.011,4.011,0,0,0,1.43.259,3.784,3.784,0,0,0,3.5-2.175,2.664,2.664,0,0,0-.006-2.2,2.969,2.969,0,0,0-1.676-1.55,3.075,3.075,0,0,0-1.885-.036,1.994,1.994,0,0,0-1.472,1.313.775.775,0,0,0,.083.535.588.588,0,0,0,.378.25.635.635,0,0,0,.454-.071.553.553,0,0,0,.269-.346.533.533,0,0,0-.076-.43.652.652,0,0,0-.221-.191,1.975,1.975,0,0,1,.8-.454,2.242,2.242,0,0,1,2.708,1.226,2.085,2.085,0,0,1,.006,1.715,3.1,3.1,0,0,1-2.867,1.775,3.256,3.256,0,0,1-1.168-.214,3.8,3.8,0,0,1-2.142-1.985,3.384,3.384,0,0,1-.009-2.8,5.206,5.206,0,0,1,4.849-2.939,6.345,6.345,0,0,1,6.3,6.631.334.334,0,0,0,.28.315.356.356,0,0,0,.383-.2c1.666-3.672.867-6.888-2.516-10.119a.335.335,0,0,0-.234-.1.353.353,0,0,0-.255.091.3.3,0,0,0-.026.427l.022.022c2.728,2.615,3.656,5.157,2.9,7.978a6.7,6.7,0,0,0-5-5.433,6.876,6.876,0,0,0-1.854-.257,5.9,5.9,0,0,0-5.485,3.337,4.022,4.022,0,0,0-.347,1.631,4.313,4.313,0,0,0,2.874,3.993" transform="translate(-117.676 -91.47)" fill="#91354f" fill-rule="evenodd"/>
      <path id="Tracé_15053" data-name="Tracé 15053" d="M236.02,195.182a1.791,1.791,0,1,0,1.919-1.654c-.044,0-.088-.005-.133-.005a1.729,1.729,0,0,0-1.786,1.659m2.884,0a1.1,1.1,0,1,1-1.178-1.018l.08,0a1.062,1.062,0,0,1,1.1,1.02" transform="translate(-127.335 -104.409)" fill="#91354f" fill-rule="evenodd"/>
      <path id="Tracé_15054" data-name="Tracé 15054" d="M219.961,137.576a24.281,24.281,0,0,0,5.231,5.375l.25.214a.353.353,0,0,0,.231.081.371.371,0,0,0,.258-.1.315.315,0,0,0-.015-.445l-.012-.011-1.024-.856a4.075,4.075,0,0,1-.7-.7c-1.055-1.436-.8-3.794,0-5.383a.415.415,0,0,0,0-.375.435.435,0,0,0-.385-.267h-.076c-1.4,0-3.841-.343-4.53-2.636a3.766,3.766,0,0,1-.045-2.139,7.035,7.035,0,0,1,1.979-3.55,8.437,8.437,0,0,1,5.72-2.336,6.851,6.851,0,0,1,2.071.31,5.842,5.842,0,0,1,3.49,2.863,4.064,4.064,0,0,1,.2,3.348,4.5,4.5,0,0,1-2.407,2.505,3.919,3.919,0,0,1-1.6.338,3.762,3.762,0,0,1-3.348-1.952,2.5,2.5,0,0,1-.124-2.054,2.756,2.756,0,0,1,1.486-1.538,2.468,2.468,0,0,1,1-.194,2.9,2.9,0,0,1,.684.08,2.282,2.282,0,0,1,1.118.613.575.575,0,0,0-.282.267.551.551,0,0,0,.27.731l.025.011a.623.623,0,0,0,.459.017.576.576,0,0,0,.344-.29.943.943,0,0,0,.02-.6,2.359,2.359,0,0,0-1.775-1.37,3.528,3.528,0,0,0-2.167.16,3.4,3.4,0,0,0-1.832,1.9,3.1,3.1,0,0,0,.151,2.548,4.469,4.469,0,0,0,3.97,2.313,4.625,4.625,0,0,0,1.893-.4,4.879,4.879,0,0,0,2.534-6.7,6.494,6.494,0,0,0-3.888-3.195,7.558,7.558,0,0,0-2.292-.346,9.152,9.152,0,0,0-6.217,2.532,7.714,7.714,0,0,0-2.185,3.979,7.949,7.949,0,0,0-.178,1.731c0,.157,0,.313.012.463a10.615,10.615,0,0,0,1.678,5.065m3.463-1.821a6.88,6.88,0,0,0-.456,4.366,15.183,15.183,0,0,1-2.412-2.87,10.512,10.512,0,0,1-1.393-3.36,5.2,5.2,0,0,0,4.261,1.864" transform="translate(-117.76 -66.795)" fill="#91354f" fill-rule="evenodd"/>
      <path id="Tracé_15055" data-name="Tracé 15055" d="M253.508,179a8.022,8.022,0,0,0-5.8,5.455.426.426,0,0,0-.018.1.322.322,0,0,0,.247.307.364.364,0,0,0,.1.016.47.47,0,0,0,.166-.038.321.321,0,0,0,.164-.195,8.159,8.159,0,0,1,2.663-3.819,1.069,1.069,0,0,0,.367.606,1.28,1.28,0,0,0,1.5.039,2.1,2.1,0,0,0,.514-.49,4.076,4.076,0,0,0,.317-.522l.027-.052a1.4,1.4,0,0,1,.7-.767,1.29,1.29,0,0,1,.51-.1,2.726,2.726,0,0,1,.729.121,1.757,1.757,0,0,1,.727.379.967.967,0,0,1,.3.79.682.682,0,0,1-.252.5.786.786,0,0,1-.423.19.528.528,0,0,0,.012-.071.514.514,0,0,0-.141-.4.625.625,0,0,0-.852-.066.546.546,0,0,0-.211.38c-.033.383.318.634.66.741a1.32,1.32,0,0,0,.356.06.263.263,0,0,0,.065.007,1.426,1.426,0,0,0,1.474-1.325,1.55,1.55,0,0,0-.5-1.258,2.8,2.8,0,0,0-1.533-.649,5.974,5.974,0,0,0-1.871.057m-.337,1.058-.01,0a.068.068,0,0,0-.035.059v.025l0,.008a3.251,3.251,0,0,1-.281.459,1.243,1.243,0,0,1-.341.328.537.537,0,0,1-.645.012.5.5,0,0,1-.089-.629,5.87,5.87,0,0,1,1.635-.647,3.907,3.907,0,0,0-.231.38" transform="translate(-133.635 -96.519)" fill="#91354f" fill-rule="evenodd"/>
      <path id="Tracé_15056" data-name="Tracé 15056" d="M223.947,207.777a6.874,6.874,0,0,0,1.854-.257,6.708,6.708,0,0,0,5-5.433c.755,2.819-.173,5.362-2.9,7.977a.3.3,0,0,0-.018.428.259.259,0,0,0,.023.022.058.058,0,0,0,.016.012.336.336,0,0,0,.226.079.344.344,0,0,0,.246-.1c3.383-3.231,4.183-6.449,2.517-10.128a.357.357,0,0,0-.321-.193.458.458,0,0,0-.066.006.341.341,0,0,0-.274.321,6.342,6.342,0,0,1-6.3,6.624A5.2,5.2,0,0,1,219.1,204.2a3.4,3.4,0,0,1,.009-2.811,3.814,3.814,0,0,1,2.142-1.977,3.272,3.272,0,0,1,1.173-.214,3.09,3.09,0,0,1,2.861,1.776,2.1,2.1,0,0,1,0,1.714,2.329,2.329,0,0,1-1.306,1.2,2.269,2.269,0,0,1-1.4.019,1.837,1.837,0,0,1-.8-.452.621.621,0,0,0,.223-.19.525.525,0,0,0,.074-.425.533.533,0,0,0-.267-.347.643.643,0,0,0-.457-.071.587.587,0,0,0-.375.25.75.75,0,0,0-.086.535,1.994,1.994,0,0,0,1.472,1.312,3.059,3.059,0,0,0,1.881-.035,2.967,2.967,0,0,0,1.678-1.55,2.669,2.669,0,0,0,.006-2.2,3.787,3.787,0,0,0-3.5-2.175,4.022,4.022,0,0,0-1.431.263,4.31,4.31,0,0,0-2.873,3.988,4.039,4.039,0,0,0,.347,1.638,5.9,5.9,0,0,0,5.486,3.336" transform="translate(-117.678 -107.124)" fill="#91354f" fill-rule="evenodd"/>
      <path id="Tracé_15057" data-name="Tracé 15057" d="M260.846,193.491a17.736,17.736,0,0,1-6.339-2.472.364.364,0,0,0-.426.045,11.7,11.7,0,0,1-4.354,2.436.32.32,0,0,0-.227.3.314.314,0,0,0,.226.3,11.815,11.815,0,0,1,4.354,2.443.355.355,0,0,0,.245.1.344.344,0,0,0,.184-.053,17.836,17.836,0,0,1,6.334-2.478.309.309,0,0,0,.257-.308.324.324,0,0,0-.254-.315m-6.476,2.428a11.914,11.914,0,0,0-3.579-2.113,11.962,11.962,0,0,0,3.579-2.112,17.657,17.657,0,0,0,4.987,2.112,17.5,17.5,0,0,0-4.987,2.113" transform="translate(-134.61 -103.032)" fill="#91354f" fill-rule="evenodd"/>
      <path id="Tracé_15058" data-name="Tracé 15058" d="M255.938,205.069h-.056a1.709,1.709,0,0,0-.37.068c-.338.107-.688.36-.655.741a.541.541,0,0,0,.21.379.643.643,0,0,0,.4.138h.039a.641.641,0,0,0,.409-.2.513.513,0,0,0,.143-.4.591.591,0,0,0-.012-.076.83.83,0,0,1,.424.187.713.713,0,0,1,.251.511.981.981,0,0,1-.3.791,1.745,1.745,0,0,1-.725.378,2.746,2.746,0,0,1-.733.121,1.3,1.3,0,0,1-.508-.1,1.432,1.432,0,0,1-.705-.781l-.021-.035a4.575,4.575,0,0,0-.32-.524,2.131,2.131,0,0,0-.515-.491,1.272,1.272,0,0,0-1.5.041,1.047,1.047,0,0,0-.367.606,8.163,8.163,0,0,1-2.664-3.817.322.322,0,0,0-.169-.2.388.388,0,0,0-.261-.026.336.336,0,0,0-.244.306.471.471,0,0,0,.013.1,8.032,8.032,0,0,0,5.8,5.463,6.212,6.212,0,0,0,1.131.107,6.134,6.134,0,0,0,.741-.05,2.811,2.811,0,0,0,1.533-.649,1.584,1.584,0,0,0,.5-1.267,1.426,1.426,0,0,0-1.476-1.319m-4.171,1.846a.5.5,0,0,1,.09-.623.541.541,0,0,1,.65.014,1.291,1.291,0,0,1,.338.327,3.53,3.53,0,0,1,.293.487l.019.035a4,4,0,0,0,.248.414,5.952,5.952,0,0,1-1.637-.653" transform="translate(-133.635 -109.182)" fill="#91354f" fill-rule="evenodd"/>
      <path id="Tracé_15059" data-name="Tracé 15059" d="M238.767,222.5a3.846,3.846,0,0,0-2.776.093,3.436,3.436,0,0,0-1.9,1.884,2.425,2.425,0,0,0,.188,2.1,3,3,0,0,0,1.576,1.371,2.444,2.444,0,0,0,.807.132,2.852,2.852,0,0,0,1.116-.226,2.164,2.164,0,0,0,1.205-1.154,1.926,1.926,0,0,0-.014-1.39,1.6,1.6,0,0,0-1.177-1.063,1.167,1.167,0,0,0-.133-.009.724.724,0,0,0-.4.1.543.543,0,0,0-.254.356.536.536,0,0,0,.1.428.657.657,0,0,0,.838.143.577.577,0,0,0,.147-.131,1.348,1.348,0,0,1,.233.388,1.322,1.322,0,0,1,.016.944,1.492,1.492,0,0,1-.844.8,2.058,2.058,0,0,1-1.4.082,2.324,2.324,0,0,1-1.2-1.063,1.842,1.842,0,0,1-.161-1.592,2.956,2.956,0,0,1,2.756-1.775,3.126,3.126,0,0,1,1.034.176,3.617,3.617,0,0,1,2.2,2.052,3.91,3.91,0,0,1-.2,3.379,4.132,4.132,0,0,1-3.633,2.021h-.173c-2.382,0-3.708-1.476-4.788-3.072-.283-.414-.572-.889-.843-1.341l-.009-.016c-1.119-1.832-2.387-3.909-4.463-4.686a4.4,4.4,0,0,0-1.549-.3,3.381,3.381,0,0,0-1.832.515,3.443,3.443,0,0,0-1.541,3v.035a4.07,4.07,0,0,0,.56,2.121.332.332,0,0,0,.214.145.364.364,0,0,0,.257-.036.311.311,0,0,0,.16-.2.306.306,0,0,0-.04-.242,3.447,3.447,0,0,1-.464-1.789,2.865,2.865,0,0,1,1.243-2.5,3.074,3.074,0,0,1,2.737-.156c1.854.7,3.063,2.68,4.131,4.431.292.479.577.944.858,1.36,1.184,1.749,2.653,3.369,5.363,3.369h.2a4.813,4.813,0,0,0,4.226-2.369,4.537,4.537,0,0,0,.232-3.9,4.3,4.3,0,0,0-2.606-2.422" transform="translate(-119.609 -119.312)" fill="#91354f" fill-rule="evenodd"/>
      <path id="Tracé_15060" data-name="Tracé 15060" d="M279.062,194.414a1.248,1.248,0,1,0,1.341,1.248,1.3,1.3,0,0,0-1.341-1.248m0,1.854a.606.606,0,1,1,.652-.6.629.629,0,0,1-.652.6" transform="translate(-149.936 -104.89)" fill="#91354f" fill-rule="evenodd"/>
      <path id="Tracé_15061" data-name="Tracé 15061" d="M230.507,237.435a4.638,4.638,0,0,0-1.894-.4,4.467,4.467,0,0,0-3.97,2.313,3.08,3.08,0,0,0-.152,2.548,3.43,3.43,0,0,0,1.829,1.9,3.5,3.5,0,0,0,2.17.153,2.324,2.324,0,0,0,1.776-1.37.928.928,0,0,0-.022-.6.577.577,0,0,0-.336-.282.617.617,0,0,0-.464.015.547.547,0,0,0-.308.71c0,.011.009.021.014.032a.579.579,0,0,0,.28.267,2.277,2.277,0,0,1-1.117.613,2.917,2.917,0,0,1-.683.08,2.478,2.478,0,0,1-1.009-.2,2.749,2.749,0,0,1-1.48-1.536,2.508,2.508,0,0,1,.123-2.056,3.766,3.766,0,0,1,3.351-1.952,3.912,3.912,0,0,1,1.6.337,4.506,4.506,0,0,1,2.407,2.505,4.089,4.089,0,0,1-.2,3.349,5.84,5.84,0,0,1-3.491,2.862,6.825,6.825,0,0,1-2.071.311,8.439,8.439,0,0,1-5.72-2.336,7.063,7.063,0,0,1-1.979-3.551,3.789,3.789,0,0,1,.046-2.144c.689-2.287,3.107-2.628,4.488-2.628l.035,0,.031,0h.036a.445.445,0,0,0,.4-.26.415.415,0,0,0,0-.382c-.8-1.589-1.058-3.948,0-5.383a3.987,3.987,0,0,1,.713-.711l1.016-.854a.307.307,0,0,0,.038-.433l-.016-.018a.381.381,0,0,0-.487-.018l-.289.245a23.935,23.935,0,0,0-5.192,5.342,10.607,10.607,0,0,0-1.678,5.065c-.007.149-.012.306-.012.464a7.956,7.956,0,0,0,.178,1.731,7.718,7.718,0,0,0,2.185,3.979,9.151,9.151,0,0,0,6.222,2.531,7.572,7.572,0,0,0,2.288-.343,6.5,6.5,0,0,0,3.888-3.2,4.879,4.879,0,0,0-2.534-6.7m-9.949-3.2a15.231,15.231,0,0,1,2.412-2.87,6.907,6.907,0,0,0,.457,4.367,5.2,5.2,0,0,0-4.262,1.864,10.529,10.529,0,0,1,1.392-3.36" transform="translate(-117.77 -123.14)" fill="#91354f" fill-rule="evenodd"/>
      <path id="Tracé_15062" data-name="Tracé 15062" d="M145.423,134.054l.011,0a4.633,4.633,0,0,0,1.884.4,4.474,4.474,0,0,0,3.973-2.313,3.1,3.1,0,0,0,.148-2.548,3.421,3.421,0,0,0-1.828-1.9,3.533,3.533,0,0,0-2.171-.16,2.358,2.358,0,0,0-1.774,1.372.969.969,0,0,0,.02.6.572.572,0,0,0,.337.29.617.617,0,0,0,.464-.016.573.573,0,0,0,.312-.317.516.516,0,0,0-.019-.424.569.569,0,0,0-.279-.268,2.283,2.283,0,0,1,1.116-.613,2.966,2.966,0,0,1,.686-.08,2.464,2.464,0,0,1,1.006.2,2.735,2.735,0,0,1,1.48,1.538,2.494,2.494,0,0,1-.121,2.053,3.612,3.612,0,0,1-2.113,1.754,3.97,3.97,0,0,1-2.833-.138,4.5,4.5,0,0,1-2.41-2.507,4.066,4.066,0,0,1,.2-3.347A5.847,5.847,0,0,1,147,124.76a6.82,6.82,0,0,1,2.075-.314,8.429,8.429,0,0,1,5.715,2.34,7.057,7.057,0,0,1,1.98,3.551,3.75,3.75,0,0,1-.046,2.139c-.69,2.294-3.11,2.636-4.49,2.636h-.1a.448.448,0,0,0-.4.26.417.417,0,0,0,0,.375c.8,1.593,1.057,3.957,0,5.389a4.2,4.2,0,0,1-.755.745l-.974.814a.312.312,0,0,0-.037.441l.014.016a.347.347,0,0,0,.244.1h.014a.357.357,0,0,0,.23-.082l.25-.211a24.159,24.159,0,0,0,5.231-5.374,10.566,10.566,0,0,0,1.676-5.063c.009-.153.014-.309.014-.464a7.951,7.951,0,0,0-.178-1.731,7.705,7.705,0,0,0-2.183-3.978,9.024,9.024,0,0,0-6.216-2.534,7.577,7.577,0,0,0-2.293.345,6.5,6.5,0,0,0-3.89,3.195,4.881,4.881,0,0,0,2.531,6.7m9.943,3.2a15.292,15.292,0,0,1-2.412,2.868,6.875,6.875,0,0,0-.456-4.365,5.2,5.2,0,0,0,4.262-1.864,10.55,10.55,0,0,1-1.394,3.36" transform="translate(-76.805 -66.801)" fill="#91354f" fill-rule="evenodd"/>
      <path id="Tracé_15063" data-name="Tracé 15063" d="M131.628,159.98a3.849,3.849,0,0,0,2.776-.093A3.471,3.471,0,0,0,136.3,158a2.83,2.83,0,0,0-1.765-3.482,2.484,2.484,0,0,0-.8-.126,2.886,2.886,0,0,0-1.125.227,2.159,2.159,0,0,0-1.206,1.155,1.934,1.934,0,0,0,.015,1.391,1.617,1.617,0,0,0,1.177,1.062,1.091,1.091,0,0,0,.134.008.731.731,0,0,0,.4-.107.545.545,0,0,0,.25-.355.535.535,0,0,0-.095-.428.655.655,0,0,0-.841-.145.608.608,0,0,0-.143.132,1.4,1.4,0,0,1-.233-.389,1.315,1.315,0,0,1-.016-.943,1.488,1.488,0,0,1,.845-.8,2.113,2.113,0,0,1,.833-.173,1.7,1.7,0,0,1,.562.09,2.317,2.317,0,0,1,1.2,1.058,1.84,1.84,0,0,1,.159,1.6,2.955,2.955,0,0,1-2.755,1.775,3.1,3.1,0,0,1-1.034-.175,3.646,3.646,0,0,1-2.2-2.052,3.914,3.914,0,0,1,.2-3.379,4.134,4.134,0,0,1,3.635-2.02h.172c2.383,0,3.71,1.473,4.789,3.064.244.364.5.776.739,1.173l.1.167c1.121,1.842,2.391,3.931,4.473,4.71a4.446,4.446,0,0,0,1.549.295,3.322,3.322,0,0,0,1.831-.521,3.434,3.434,0,0,0,1.542-2.99v-.036a4.072,4.072,0,0,0-.56-2.12.341.341,0,0,0-.292-.155.361.361,0,0,0-.173.043.31.31,0,0,0-.166.194.285.285,0,0,0,.039.242,3.5,3.5,0,0,1,.466,1.795,2.872,2.872,0,0,1-1.243,2.5,3.074,3.074,0,0,1-2.737.156c-1.864-.7-3.074-2.693-4.142-4.452l-.153-.25c-.227-.368-.46-.749-.695-1.09-1.182-1.75-2.652-3.368-5.372-3.368h-.192a4.82,4.82,0,0,0-4.226,2.363,4.55,4.55,0,0,0-.231,3.909,4.3,4.3,0,0,0,2.606,2.422" transform="translate(-69.429 -81.619)" fill="#91354f" fill-rule="evenodd"/>
      <path id="Tracé_15064" data-name="Tracé 15064" d="M139.044,227.823c.279-.41.555-.862.846-1.339l.017-.029c1.061-1.747,2.265-3.723,4.126-4.423a3.074,3.074,0,0,1,2.737.156,2.861,2.861,0,0,1,1.243,2.5,3.472,3.472,0,0,1-.466,1.8.292.292,0,0,0-.039.24.312.312,0,0,0,.159.2.365.365,0,0,0,.473-.107,4.089,4.089,0,0,0,.56-2.121v-.035a3.44,3.44,0,0,0-1.543-3,3.378,3.378,0,0,0-1.831-.515,4.41,4.41,0,0,0-1.549.3c-2.074.776-3.343,2.852-4.461,4.683l-.1.167c-.261.423-.508.823-.757,1.194-1.079,1.6-2.406,3.072-4.787,3.072H133.5a4.135,4.135,0,0,1-3.636-2.02,3.914,3.914,0,0,1-.2-3.38,3.614,3.614,0,0,1,2.2-2.052,3.113,3.113,0,0,1,1.034-.175,2.956,2.956,0,0,1,2.755,1.775,1.807,1.807,0,0,1-.1,1.485,2.351,2.351,0,0,1-1.261,1.17,2.066,2.066,0,0,1-1.4-.083,1.5,1.5,0,0,1-.847-.8,1.331,1.331,0,0,1,.018-.941,1.411,1.411,0,0,1,.234-.389.626.626,0,0,0,.984-.016.526.526,0,0,0,.1-.417.533.533,0,0,0-.252-.362.716.716,0,0,0-.4-.107.843.843,0,0,0-.132.009,1.59,1.59,0,0,0-1.178,1.062,1.913,1.913,0,0,0-.016,1.384,2.169,2.169,0,0,0,1.207,1.163,2.814,2.814,0,0,0,1.922.093,2.981,2.981,0,0,0,1.576-1.371,2.424,2.424,0,0,0,.189-2.1,3.658,3.658,0,0,0-3.409-2.19,3.854,3.854,0,0,0-1.265.214,4.3,4.3,0,0,0-2.606,2.422,4.524,4.524,0,0,0,.229,3.9,4.813,4.813,0,0,0,4.229,2.37h.2c2.709,0,4.179-1.62,5.363-3.369" transform="translate(-69.431 -119.312)" fill="#91354f" fill-rule="evenodd"/>
      <path id="Tracé_15065" data-name="Tracé 15065" d="M112.073,194.414a1.248,1.248,0,1,0,1.34,1.248,1.3,1.3,0,0,0-1.34-1.248m0,1.854a.606.606,0,1,1,.653-.6.63.63,0,0,1-.653.6" transform="translate(-59.842 -104.89)" fill="#91354f" fill-rule="evenodd"/>
      <path id="Tracé_15066" data-name="Tracé 15066" d="M126.507,182.176a.214.214,0,0,0,.066-.007,1.38,1.38,0,0,0,.36-.059c.339-.107.689-.359.657-.742a.539.539,0,0,0-.209-.378.625.625,0,0,0-.442-.138.617.617,0,0,0-.412.2.523.523,0,0,0-.143.4.639.639,0,0,0,.012.071.775.775,0,0,1-.677-.7.972.972,0,0,1,.307-.79,1.745,1.745,0,0,1,.726-.378,2.72,2.72,0,0,1,.729-.121,1.306,1.306,0,0,1,.51.1,1.427,1.427,0,0,1,.7.775,4.385,4.385,0,0,0,.344.567,2.143,2.143,0,0,0,.513.491,1.284,1.284,0,0,0,1.5-.041,1.07,1.07,0,0,0,.367-.606,8.16,8.16,0,0,1,2.663,3.826.349.349,0,0,0,.175.193.456.456,0,0,0,.154.033.358.358,0,0,0,.1-.016.321.321,0,0,0,.25-.307.431.431,0,0,0-.014-.091,8.029,8.029,0,0,0-5.8-5.463,5.961,5.961,0,0,0-1.869-.058,2.8,2.8,0,0,0-1.533.649,1.56,1.56,0,0,0-.5,1.266,1.424,1.424,0,0,0,1.474,1.319m4.171-1.854a.5.5,0,0,1-.089.63.541.541,0,0,1-.648-.014,1.228,1.228,0,0,1-.337-.33,2.947,2.947,0,0,1-.295-.485,4.154,4.154,0,0,0-.266-.447,5.883,5.883,0,0,1,1.635.646" transform="translate(-67.456 -96.516)" fill="#91354f" fill-rule="evenodd"/>
      <path id="Tracé_15067" data-name="Tracé 15067" d="M125.925,196.647a.354.354,0,0,0,.243-.1,11.8,11.8,0,0,1,4.354-2.444.309.309,0,0,0,0-.6,11.8,11.8,0,0,1-4.354-2.444.365.365,0,0,0-.424-.045,17.766,17.766,0,0,1-6.343,2.473.321.321,0,0,0-.253.314.308.308,0,0,0,.254.308,17.9,17.9,0,0,1,6.336,2.477.338.338,0,0,0,.186.055m-.045-4.952a11.923,11.923,0,0,0,3.577,2.112,11.929,11.929,0,0,0-3.577,2.113,17.547,17.547,0,0,0-4.987-2.113,17.706,17.706,0,0,0,4.987-2.112" transform="translate(-64.283 -103.033)" fill="#91354f" fill-rule="evenodd"/>
      <path id="Tracé_15068" data-name="Tracé 15068" d="M127.809,208.353a6.171,6.171,0,0,0,1.127-.107,8.02,8.02,0,0,0,5.8-5.458.334.334,0,0,0,.019-.1.321.321,0,0,0-.242-.3.376.376,0,0,0-.268.021.337.337,0,0,0-.164.187,8.155,8.155,0,0,1-2.663,3.827,1.076,1.076,0,0,0-.367-.606,1.272,1.272,0,0,0-1.5-.041,1.978,1.978,0,0,0-.515.492,4.365,4.365,0,0,0-.321.524l-.025.046a1.426,1.426,0,0,1-.7.771,1.3,1.3,0,0,1-.508.1,2.676,2.676,0,0,1-.73-.121,1.719,1.719,0,0,1-.727-.379.983.983,0,0,1-.307-.789.752.752,0,0,1,.677-.7.581.581,0,0,0-.012.074.522.522,0,0,0,.143.4.646.646,0,0,0,.414.2.672.672,0,0,0,.438-.136.538.538,0,0,0,.21-.379c.033-.383-.318-.635-.657-.742a1.729,1.729,0,0,0-.372-.067h-.053a1.424,1.424,0,0,0-1.474,1.319,1.583,1.583,0,0,0,.5,1.266,2.814,2.814,0,0,0,1.536.649,6.031,6.031,0,0,0,.74.05m1.5-1.235.012-.026a4.138,4.138,0,0,1,.278-.463,1.33,1.33,0,0,1,.345-.325.637.637,0,0,1,.351-.115.445.445,0,0,1,.294.107.49.49,0,0,1,.089.621,5.932,5.932,0,0,1-1.635.653,3.989,3.989,0,0,0,.267-.45" transform="translate(-67.455 -109.183)" fill="#91354f" fill-rule="evenodd"/>
      <path id="Tracé_15069" data-name="Tracé 15069" d="M153.918,172.359a6.838,6.838,0,0,0-1.854.257,6.7,6.7,0,0,0-5.005,5.432c-.755-2.82.174-5.364,2.9-7.977a.3.3,0,0,0,.018-.428l-.023-.022-.014-.01a.37.37,0,0,0-.475.017c-3.382,3.233-4.182,6.451-2.516,10.129a.345.345,0,0,0,.309.188.312.312,0,0,0,.071-.008.324.324,0,0,0,.279-.315,6.34,6.34,0,0,1,6.3-6.623,5.209,5.209,0,0,1,4.851,2.938,3.391,3.391,0,0,1-.009,2.8,3.8,3.8,0,0,1-2.142,1.985,3.253,3.253,0,0,1-1.168.214,3.1,3.1,0,0,1-2.867-1.774,2.078,2.078,0,0,1,0-1.715,2.24,2.24,0,0,1,2.707-1.226,1.941,1.941,0,0,1,.8.452.646.646,0,0,0-.222.2.519.519,0,0,0-.074.425.555.555,0,0,0,.266.347.647.647,0,0,0,.456.071.584.584,0,0,0,.378-.25.755.755,0,0,0,.084-.535,1.994,1.994,0,0,0-1.472-1.312,3.065,3.065,0,0,0-1.881.035,2.967,2.967,0,0,0-1.678,1.549,2.672,2.672,0,0,0-.006,2.2,3.785,3.785,0,0,0,3.5,2.177,4.012,4.012,0,0,0,1.43-.26,4.314,4.314,0,0,0,2.875-3.993,4.009,4.009,0,0,0-.349-1.631,5.9,5.9,0,0,0-5.484-3.336" transform="translate(-78.83 -91.467)" fill="#91354f" fill-rule="evenodd"/>
      <path id="Tracé_15070" data-name="Tracé 15070" d="M156.876,198.813a4.023,4.023,0,0,0-1.432-.263,3.786,3.786,0,0,0-3.5,2.175,2.679,2.679,0,0,0,.006,2.2,2.974,2.974,0,0,0,1.676,1.55,3.071,3.071,0,0,0,1.882.035,2,2,0,0,0,1.472-1.312.765.765,0,0,0-.083-.535.587.587,0,0,0-.378-.25.632.632,0,0,0-.451.071.535.535,0,0,0-.272.348.52.52,0,0,0,.075.428.6.6,0,0,0,.222.188,1.848,1.848,0,0,1-.8.451,2.276,2.276,0,0,1-1.4-.019,2.316,2.316,0,0,1-1.305-1.2,2.09,2.09,0,0,1,0-1.714,3.094,3.094,0,0,1,2.861-1.776,3.283,3.283,0,0,1,1.173.214,3.819,3.819,0,0,1,2.141,1.977,3.411,3.411,0,0,1,.01,2.811,5.211,5.211,0,0,1-4.851,2.939,6.343,6.343,0,0,1-6.3-6.631.333.333,0,0,0-.28-.315.353.353,0,0,0-.383.19c-1.665,3.676-.866,6.894,2.516,10.125a.342.342,0,0,0,.25.1.387.387,0,0,0,.242-.09.3.3,0,0,0,.028-.426.277.277,0,0,0-.023-.023c-2.73-2.616-3.659-5.159-2.9-7.978a6.706,6.706,0,0,0,5.006,5.433,6.821,6.821,0,0,0,1.854.256,5.9,5.9,0,0,0,5.484-3.336,4.022,4.022,0,0,0,.349-1.638,4.31,4.31,0,0,0-2.874-3.988" transform="translate(-78.83 -107.121)" fill="#91354f" fill-rule="evenodd"/>
      <path id="Tracé_15071" data-name="Tracé 15071" d="M153.625,194.873a1.792,1.792,0,1,0-1.919,1.655c.044,0,.089,0,.133,0a1.728,1.728,0,0,0,1.786-1.66m-2.885,0a1.1,1.1,0,1,1,1.18,1.018l-.081,0a1.064,1.064,0,0,1-1.1-1.02" transform="translate(-80.953 -104.1)" fill="#91354f" fill-rule="evenodd"/>
      <path id="Tracé_15072" data-name="Tracé 15072" d="M155.959,233.907a23.928,23.928,0,0,0-5.205-5.351l-.276-.235a.383.383,0,0,0-.49.019.307.307,0,0,0,.008.434l.018.016.974.82a4.077,4.077,0,0,1,.752.743c1.055,1.435.8,3.794,0,5.383a.414.414,0,0,0,0,.375.453.453,0,0,0,.406.268h.06c1.393,0,3.835.342,4.524,2.629a3.793,3.793,0,0,1,.047,2.144,7.066,7.066,0,0,1-1.98,3.551,8.437,8.437,0,0,1-5.72,2.336,6.852,6.852,0,0,1-2.071-.311,5.84,5.84,0,0,1-3.49-2.863,4.071,4.071,0,0,1-.2-3.348,4.5,4.5,0,0,1,2.41-2.506,3.9,3.9,0,0,1,1.6-.337,3.766,3.766,0,0,1,3.349,1.952,2.5,2.5,0,0,1,.121,2.055,2.737,2.737,0,0,1-1.483,1.537,2.454,2.454,0,0,1-1,.2,2.971,2.971,0,0,1-.684-.08,2.292,2.292,0,0,1-1.117-.613.586.586,0,0,0,.281-.268.549.549,0,0,0-.267-.728l-.029-.012a.62.62,0,0,0-.461-.016.576.576,0,0,0-.341.29.95.95,0,0,0-.02.6,2.332,2.332,0,0,0,1.773,1.364,3.5,3.5,0,0,0,2.168-.153,3.422,3.422,0,0,0,1.83-1.9,3.086,3.086,0,0,0-.148-2.548,4.472,4.472,0,0,0-3.973-2.313,4.632,4.632,0,0,0-1.895.4,4.879,4.879,0,0,0-2.532,6.7,6.5,6.5,0,0,0,3.89,3.2,7.567,7.567,0,0,0,2.287.343,9.157,9.157,0,0,0,6.222-2.531,7.714,7.714,0,0,0,2.183-3.979,7.893,7.893,0,0,0,.178-1.731c0-.155-.006-.311-.014-.463a10.57,10.57,0,0,0-1.675-5.065m-3.466,1.823a6.9,6.9,0,0,0,.458-4.367,15.06,15.06,0,0,1,2.413,2.871,10.535,10.535,0,0,1,1.393,3.361,5.2,5.2,0,0,0-4.264-1.864" transform="translate(-76.804 -123.141)" fill="#91354f" fill-rule="evenodd"/>
      <path id="Tracé_15073" data-name="Tracé 15073" d="M156.716,189.6a2.147,2.147,0,0,1-2.144-2.144v-.455a6.654,6.654,0,0,0-1.958-4.618,23.362,23.362,0,0,1-4.543-25.8l.693-1.439c.162-.307.319-.589.486-.867a37.634,37.634,0,0,0,5.316-18.943v-.5a14.963,14.963,0,0,1,14.945-14.948c.332,0,.668.011,1,.033a15.24,15.24,0,0,1,13.945,15.4,38.251,38.251,0,0,0,5.423,19.14c.123.213.246.433.365.655l.717,1.443a23.432,23.432,0,0,1-4.6,25.885,6.391,6.391,0,0,0-1.9,4.462v.554a2.147,2.147,0,0,1-2.144,2.144Z" transform="translate(-78.791 -64.683)" fill="#e8d7b7"/>
      <path id="Tracé_15074" data-name="Tracé 15074" d="M168.664,119.766c.315,0,.634.01.953.031,7.552.5,13.27,7.112,13.27,14.678a39.269,39.269,0,0,0,5.518,19.5c.122.21.24.423.355.638l.707,1.422A22.712,22.712,0,0,1,185,181.1a7.109,7.109,0,0,0-2.105,4.964v.555a1.426,1.426,0,0,1-1.422,1.422h-25.6a1.426,1.426,0,0,1-1.422-1.422v-.455a7.384,7.384,0,0,0-2.162-5.12,22.64,22.64,0,0,1-4.4-25l.685-1.422c.144-.272.295-.542.455-.809a38.266,38.266,0,0,0,5.419-19.314v-.5a14.225,14.225,0,0,1,14.223-14.226m0-1.445A15.687,15.687,0,0,0,153,133.991v.5a36.917,36.917,0,0,1-5.22,18.585c-.16.267-.326.562-.486.865l-.012.023-.012.023-.685,1.422-.008.018-.008.018a24.083,24.083,0,0,0,4.68,26.6A5.943,5.943,0,0,1,153,186.158v.455a2.87,2.87,0,0,0,2.866,2.866h25.6a2.87,2.87,0,0,0,2.866-2.866v-.555a5.67,5.67,0,0,1,1.693-3.953,24.158,24.158,0,0,0,4.757-26.659l-.012-.028-.013-.027-.707-1.422-.01-.02-.011-.02c-.123-.229-.249-.456-.379-.679a37.535,37.535,0,0,1-5.323-18.774,15.964,15.964,0,0,0-14.619-16.12c-.349-.023-.7-.034-1.048-.034" transform="translate(-77.945 -63.836)" fill="#e8d7b7"/>
      <path id="Tracé_15075" data-name="Tracé 15075" d="M193.206,155.666a39.269,39.269,0,0,1-5.518-19.5c0-7.567-5.718-14.181-13.27-14.678a14.227,14.227,0,0,0-15.176,14.195v.5a38.27,38.27,0,0,1-5.419,19.314c-.16.266-.311.536-.454.809h7.3a12.107,12.107,0,0,0,12.01-10.7,9.956,9.956,0,1,1,1.582,0,12.107,12.107,0,0,0,12.01,10.7h7.29c-.115-.215-.233-.428-.355-.638" transform="translate(-82.745 -65.529)" fill="#91354f"/>
      <path id="Tracé_15076" data-name="Tracé 15076" d="M187.513,150.679a1.422,1.422,0,1,1-1.422-1.422,1.422,1.422,0,0,1,1.422,1.422" transform="translate(-99.633 -80.527)" fill="#45444f"/>
      <path id="Tracé_15077" data-name="Tracé 15077" d="M206.045,150.679a1.422,1.422,0,1,1-1.422-1.422,1.422,1.422,0,0,1,1.422,1.422" transform="translate(-109.631 -80.527)" fill="#45444f"/>
      <path id="Tracé_15078" data-name="Tracé 15078" d="M197.023,130.725a7.112,7.112,0,0,0,7.111,7.112h2.427a9.957,9.957,0,0,0-9.538-7.112" transform="translate(-106.298 -70.529)" fill="#45444f"/>
      <path id="Tracé_15079" data-name="Tracé 15079" d="M176.31,137.836h2.427a7.112,7.112,0,0,0,7.112-7.112,9.957,9.957,0,0,0-9.538,7.112" transform="translate(-95.123 -70.528)" fill="#45444f"/>
      <path id="Tracé_15080" data-name="Tracé 15080" d="M195.947,162.323h-.192a1.42,1.42,0,0,0-2.461,0H193.1a.711.711,0,0,0,0,1.422h.192a1.42,1.42,0,0,0,2.461,0h.192a.711.711,0,0,0,0-1.422" transform="translate(-103.799 -87.193)" fill="#91354f"/>
      <path id="Tracé_15081" data-name="Tracé 15081" d="M191.158,189.461h-8a13.535,13.535,0,0,1-12.8-9.182,13.536,13.536,0,0,1-12.8,9.182h-7.987a22.64,22.64,0,0,0,4.4,25,7.384,7.384,0,0,1,2.162,5.12v.455a1.427,1.427,0,0,0,1.422,1.422h25.6a1.426,1.426,0,0,0,1.422-1.422v-.554a7.111,7.111,0,0,1,2.105-4.964,22.712,22.712,0,0,0,4.47-25.061M166.8,190.884a7.776,7.776,0,0,1-3.555,2.133,8.548,8.548,0,0,1,5.689-5.689,7.78,7.78,0,0,1-2.134,3.556m3.556-2.133a1.422,1.422,0,1,1,1.422-1.422,1.422,1.422,0,0,1-1.422,1.422m3.556,2.133a7.779,7.779,0,0,1-2.133-3.556,8.548,8.548,0,0,1,5.689,5.689,7.779,7.779,0,0,1-3.556-2.133" transform="translate(-79.635 -97.264)" fill="#45444f"/>
      <path id="Tracé_15082" data-name="Tracé 15082" d="M179.977,212.986a1.265,1.265,0,0,1-.432-1.055.872.872,0,0,1,1.691.09c.025.229.059.888-.239,1.007s-.705.284-1.02-.042m-2.752,6.548c.44-.11.5-.544.546-.862s-.541-.619-.752-.711a.872.872,0,0,0-.924,1.42,1.265,1.265,0,0,0,1.13.153m3.822,4.753c-.252-.2-.807.16-.992.3a.872.872,0,0,0,.768,1.51c.373-.1.6-.563.7-.9.125-.436-.221-.7-.473-.9m6.5-.029c-.3.119-.265.778-.239,1.007a.872.872,0,0,0,1.691.09,1.263,1.263,0,0,0-.432-1.055c-.314-.326-.721-.161-1.02-.042m3.772-6.506c-.44.109-.5.543-.546.862s.541.618.752.711a.872.872,0,0,0,.924-1.42,1.261,1.261,0,0,0-1.13-.153M187.5,213c.252.2.807-.16.992-.3a.872.872,0,0,0-.768-1.51c-.373.1-.6.563-.7.9-.125.436.221.7.473.9m7.64,9.733c-.294.573-1.122.2-1.587.183-.383-.014-1.38.145-1.322.693.028.263.3.514.381.782a2.532,2.532,0,0,0,.368.793c.178.261.328.489.141.757-.155.221-.518.472-.806.365-.5-.187-.419-1.12-.615-1.533-.258-.544-.5-1.087-.754-1.627-.124-.267-.816-.858-1.143-.817a2.737,2.737,0,0,0,.134.558,6.9,6.9,0,0,0,.36.9c.124.244.353.43.443.669.233.622-.623.781-.944.346-.285-.386-.256-.984-.423-1.435-.15-.4-.206-1.068-.52-1.386a.832.832,0,0,0-.074-.065,1.3,1.3,0,0,0-1.015-.23c-.274.058-.569.04-.846.111l-.113.029a1.307,1.307,0,0,1,.151.148,2.584,2.584,0,0,1,.677.9.7.7,0,0,1-.726.831c-.527-.036-.724-.553-.773-.987-.02-.173-.056-.343-.092-.512-.169.263-.322.537-.5.8-.233.356-.722.638-.733,1.059-.022.8.765,1.076,1.274,1.541.3.275.832.64.792,1.085a.52.52,0,0,1-.642.513c-.4-.136-.475-.656-.742-.93-.148-.152-.628-.879-.827-.858a1.663,1.663,0,0,0,.025.369c.029.581-.123,1.083.337,1.512a10.067,10.067,0,0,1,.793.89,4.444,4.444,0,0,0,.693.59.655.655,0,0,1,.273.805c-.076.167-.326.488-.523.5-.643.032-.734-.872-.952-1.283-.18-.338-.816-1.122-1.261-.8-.215.156-.295.518-.487.721a2.544,2.544,0,0,0-.5.716c-.137.285-.26.53-.585.5-.268-.024-.668-.213-.718-.515-.088-.526.761-.923,1.02-1.3.342-.495.69-.978,1.032-1.466a1.857,1.857,0,0,0,.136-1.4,2.7,2.7,0,0,0-.416.395,6.836,6.836,0,0,0-.6.764,8.018,8.018,0,0,1-.358.718c-.422.513-.987-.149-.771-.645.192-.44.724-.713,1.031-1.084.275-.332.822-.712.939-1.143a.775.775,0,0,0,.02-.1,1.3,1.3,0,0,0-.308-.994c-.186-.208-.319-.473-.519-.677-.061-.062-.116-.118-.166-.176a1.406,1.406,0,0,1-.067.309,2.581,2.581,0,0,1-.442,1.037.7.7,0,0,1-1.082-.213c-.232-.474.117-.9.468-1.163.146-.108.28-.23.414-.351-.285-.01-.572-.008-.86-.024-.425-.024-.913-.306-1.284-.105-.7.379-.549,1.2-.7,1.875-.087.4-.139,1.04-.544,1.228a.52.52,0,0,1-.765-.3c-.081-.414.33-.74.434-1.108.058-.2.447-.984.33-1.146a1.663,1.663,0,0,0-.307.207c-.489.315-1,.435-1.141,1.048a10.034,10.034,0,0,1-.375,1.131,4.491,4.491,0,0,0-.165.895c-.051.323-.208.6-.561.639-.183.018-.586-.039-.693-.2-.35-.541.388-1.071.635-1.465.2-.325.564-1.268.061-1.492-.242-.108-.6,0-.868-.061a2.536,2.536,0,0,0-.871-.078c-.315.023-.588.04-.726-.256a.8.8,0,0,1,.087-.88c.412-.339,1.18.2,1.636.234.6.049,1.192.109,1.786.161.293.026,1.151-.278,1.279-.581a2.69,2.69,0,0,0-.55-.163,6.89,6.89,0,0,0-.963-.141c-.273-.014-.549.091-.8.049-.655-.109-.365-.93.173-.991.477-.054.98.271,1.455.351a3.987,3.987,0,0,0,1.46.242.933.933,0,0,0,.094-.031,1.3,1.3,0,0,0,.707-.764c.087-.266.25-.513.326-.788.028-.1.054-.189.084-.274a1.531,1.531,0,0,1-.414.151,2.582,2.582,0,0,1-1.119.136.7.7,0,0,1-.357-1.043.96.96,0,0,1,1.241-.176c.208.091.425.154.639.226-.141-.271-.3-.535-.437-.811-.192-.38-.191-.944-.55-1.165-.679-.417-1.315.125-1.972.333-.389.124-.97.4-1.336.143a.52.52,0,0,1-.123-.812c.318-.277.805-.084,1.177-.177.206-.052,1.075-.1,1.157-.288a1.666,1.666,0,0,0-.332-.162c-.518-.265-.877-.648-1.478-.464a10.141,10.141,0,0,1-1.167.241,4.418,4.418,0,0,0-.858.3.655.655,0,0,1-.833-.167c-.107-.149-.259-.527-.169-.7.294-.573,1.122-.2,1.587-.183.383.014,1.38-.145,1.322-.693-.028-.263-.3-.514-.38-.782a2.527,2.527,0,0,0-.368-.793c-.178-.261-.329-.489-.141-.757.155-.221.518-.472.806-.365.5.187.419,1.12.615,1.533.258.544.5,1.087.754,1.627.124.267.816.858,1.142.817a2.687,2.687,0,0,0-.134-.558,6.835,6.835,0,0,0-.36-.9c-.124-.244-.353-.43-.443-.669-.233-.622.623-.781.944-.346.285.386.255.984.423,1.435.15.4.206,1.068.52,1.386a.716.716,0,0,0,.074.065,1.3,1.3,0,0,0,1.015.23c.274-.058.569-.04.845-.111.067-.018.129-.033.19-.046a1.581,1.581,0,0,1-.347-.29,2.586,2.586,0,0,1-.677-.9.7.7,0,0,1,.726-.831c.527.036.724.553.773.987.03.262.1.516.145.774.2-.293.366-.606.562-.9.233-.356.722-.637.733-1.059.022-.8-.765-1.076-1.275-1.541-.3-.275-.831-.64-.792-1.085a.52.52,0,0,1,.642-.512c.4.136.476.656.742.93.148.152.628.878.827.858a1.635,1.635,0,0,0-.026-.369c-.029-.581.123-1.084-.337-1.512a10.056,10.056,0,0,1-.792-.89,4.466,4.466,0,0,0-.693-.59.655.655,0,0,1-.273-.805c.076-.167.326-.488.523-.5.643-.032.734.872.952,1.283.179.338.816,1.122,1.261.8.215-.156.294-.518.487-.721a2.543,2.543,0,0,0,.5-.716c.137-.285.26-.53.585-.5.269.024.668.212.719.515.088.526-.761.923-1.02,1.3-.342.5-.69.978-1.032,1.466a1.855,1.855,0,0,0-.136,1.4,2.7,2.7,0,0,0,.416-.395,6.883,6.883,0,0,0,.6-.764c.149-.229.2-.521.358-.718.422-.513.988.149.772.645-.192.44-.724.713-1.031,1.084-.275.332-.822.712-.939,1.143a.859.859,0,0,0-.02.1,1.3,1.3,0,0,0,.309.995c.186.208.319.473.519.676l.043.044a1.44,1.44,0,0,1,.07-.336,2.58,2.58,0,0,1,.442-1.037.7.7,0,0,1,1.082.213c.232.474-.117.9-.468,1.163-.2.151-.385.329-.576.495.377.03.758.019,1.141.041.425.024.913.306,1.284.105.7-.379.549-1.2.7-1.875.087-.4.139-1.04.544-1.228a.52.52,0,0,1,.765.3c.081.414-.33.74-.435,1.108-.058.2-.447.983-.329,1.145a1.655,1.655,0,0,0,.307-.207c.488-.315,1-.435,1.141-1.048a10.125,10.125,0,0,1,.374-1.131,4.458,4.458,0,0,0,.165-.9c.051-.323.207-.6.561-.639.182-.018.586.039.693.2.349.542-.388,1.072-.635,1.466-.2.325-.564,1.268-.061,1.492.242.108.6,0,.868.061a2.522,2.522,0,0,0,.871.077c.315-.023.588-.04.726.257a.8.8,0,0,1-.087.88c-.411.339-1.179-.2-1.635-.234-.6-.049-1.192-.11-1.786-.161-.293-.026-1.151.278-1.279.581a2.688,2.688,0,0,0,.55.163,6.893,6.893,0,0,0,.963.141c.273.014.549-.091.8-.049.655.109.365.93-.173.991-.477.054-.98-.271-1.455-.351a3.987,3.987,0,0,0-1.46-.242.933.933,0,0,0-.093.031,1.3,1.3,0,0,0-.707.764c-.087.266-.25.512-.326.788l-.008.027a1.369,1.369,0,0,1,.218-.063,2.582,2.582,0,0,1,1.119-.136.7.7,0,0,1,.357,1.043.959.959,0,0,1-1.241.176c-.193-.084-.393-.144-.592-.21.157.322.346.63.51.955.192.38.191.944.55,1.165.679.417,1.315-.125,1.972-.333.39-.124.97-.4,1.336-.143a.521.521,0,0,1,.123.813c-.318.277-.806.084-1.177.177-.206.052-1.075.1-1.156.287a1.633,1.633,0,0,0,.332.163c.518.265.877.648,1.478.464a10.124,10.124,0,0,1,1.167-.241,4.444,4.444,0,0,0,.857-.3.656.656,0,0,1,.834.167c.107.149.259.527.169.7m-8.448-6.165c-.524.012-.813.478-1.062.89a3.693,3.693,0,0,0-.253.6l.014,0a1.486,1.486,0,0,0,.482.042l.116-.024c.054-.009.169-.017.306-.026.065-.01.132-.019.2-.028a1.5,1.5,0,0,0,.53-.129c.239-.121.272-.242.372-.475a3.2,3.2,0,0,0,.322-.792,6.423,6.423,0,0,0-1.026-.062m-2.807.4a3.735,3.735,0,0,0,.393.519l.011-.011a1.5,1.5,0,0,0,.277-.4c.017-.055.029-.094.037-.113.02-.051.07-.155.131-.278.024-.062.049-.124.076-.186a1.506,1.506,0,0,0,.153-.524.715.715,0,0,0-.225-.559,3.219,3.219,0,0,0-.525-.676,6.385,6.385,0,0,0-.567.858,1.412,1.412,0,0,0,.239,1.364m-3.057-.128a6.353,6.353,0,0,0,.46.92c.272.448.82.465,1.3.475a3.69,3.69,0,0,0,.647-.081s0-.009,0-.014a1.508,1.508,0,0,0-.2-.438c-.039-.042-.067-.073-.079-.088-.035-.043-.1-.138-.175-.252-.041-.052-.083-.105-.123-.159a1.5,1.5,0,0,0-.377-.394.715.715,0,0,0-.6-.085,3.215,3.215,0,0,0-.847.117m1.148,4.04c.524-.011.813-.478,1.062-.89a3.644,3.644,0,0,0,.253-.6l-.014,0a1.5,1.5,0,0,0-.482-.042l-.116.024c-.054.008-.169.017-.306.026-.066.01-.132.019-.2.027a1.506,1.506,0,0,0-.53.13c-.239.121-.272.242-.372.474a3.223,3.223,0,0,0-.323.792,6.378,6.378,0,0,0,1.027.063m2.806-.4a3.639,3.639,0,0,0-.393-.519l-.01.011a1.491,1.491,0,0,0-.277.4c-.017.055-.03.094-.037.113-.02.051-.07.155-.131.278-.024.062-.049.124-.076.186a1.521,1.521,0,0,0-.153.524.716.716,0,0,0,.225.56,3.219,3.219,0,0,0,.525.676,6.421,6.421,0,0,0,.567-.858,1.411,1.411,0,0,0-.24-1.364m3.057.128a6.4,6.4,0,0,0-.46-.92c-.272-.449-.82-.465-1.3-.474a3.643,3.643,0,0,0-.647.081l0,.014a1.5,1.5,0,0,0,.2.438c.039.042.067.073.079.088.035.043.1.138.175.252.041.053.082.1.123.159a1.506,1.506,0,0,0,.377.394.717.717,0,0,0,.6.085,3.229,3.229,0,0,0,.847-.117" transform="translate(-93.607 -111.875)" fill="#e8d7b7"/>
      <path id="Tracé_15083" data-name="Tracé 15083" d="M168.606,118.213a15.736,15.736,0,0,0-15.717,15.72v.5a36.863,36.863,0,0,1-5.214,18.559c-.16.268-.327.564-.487.867l-.012.024-.012.024-.685,1.422-.008.018-.008.018a24.133,24.133,0,0,0,4.69,26.653,5.891,5.891,0,0,1,1.743,4.083v.455a2.92,2.92,0,0,0,2.917,2.917h25.6a2.92,2.92,0,0,0,2.916-2.917V186a5.619,5.619,0,0,1,1.679-3.918,24.209,24.209,0,0,0,4.767-26.714l-.013-.029-.014-.028-.707-1.422-.011-.021-.011-.021c-.131-.243-.255-.466-.38-.681a37.487,37.487,0,0,1-5.316-18.749,16.013,16.013,0,0,0-14.666-16.169C169.307,118.225,168.953,118.213,168.606,118.213Z" transform="translate(-77.886 -63.778)" fill="none" stroke="#91354f" stroke-miterlimit="10" stroke-width="1.333"/>
    </g>
  </g>
</svg>
