<svg xmlns="http://www.w3.org/2000/svg" width="41.129" height="48.478" viewBox="0 0 41.129 48.478">
  <g id="Groupe_4131" data-name="Groupe 4131" transform="translate(0.5 0.5)">
    <g id="Groupe_4132" data-name="Groupe 4132">
      <g id="Groupe_4135" data-name="Groupe 4135" transform="translate(1.054 1.409)">
        <path id="Tracé_15957" data-name="Tracé 15957" d="M4.143.241,12.674,0V45.062H0L0,16.2Z" transform="translate(0 0)" fill="#fff"/>
        <rect id="Rectangle_1688" data-name="Rectangle 1688" width="13" height="45" transform="translate(12.51 0.473)" fill="#7c243e"/>
        <path id="Tracé_15958" data-name="Tracé 15958" d="M0,0,8.112.024,12.985,16.2l-.311,28.858H0Z" transform="translate(25.347 0)" fill="#e6cea8"/>
        <path id="Tracé_15959" data-name="Tracé 15959" d="M11.612.88C18.223.88,21.978,5,21.978,11.61S18.223,21.933,11.612,21.933.875,18.221.875,11.61,5,.88,11.612.88Z" transform="translate(7.398 15.849)" fill="#f0ede9"/>
      </g>
      <path id="Tracé_15943" data-name="Tracé 15943" d="M39.425,47.478H.7a.7.7,0,0,1-.7-.7V28.152a.7.7,0,1,1,1.408,0V46.07H38.721V19.437L34.444,8.307a.7.7,0,0,1-.046-.252V1.408H5.731V8.055a.7.7,0,0,1-.046.252L1.408,19.437V38.791a.7.7,0,0,1-1.408,0V19.308a.7.7,0,0,1,.048-.252L4.323,7.924V.7a.7.7,0,0,1,.7-.7H35.1a.7.7,0,0,1,.7.7v7.22l4.277,11.132a.7.7,0,0,1,.046.252V46.774a.7.7,0,0,1-.7.7" fill="#34353d" stroke="#34353d" stroke-width="1"/>
      <path id="Tracé_15944" data-name="Tracé 15944" d="M33.847,6.554H3.774a.7.7,0,1,1,0-1.408H33.847a.7.7,0,1,1,0,1.408" transform="translate(1.253 2.101)" fill="#34353d" stroke="#34353d" stroke-width="1"/>
      <path id="Tracé_15945" data-name="Tracé 15945" d="M20.611,12.084h-9.55a.7.7,0,0,1-.7-.7V.7a.7.7,0,0,1,.7-.7h9.55a.7.7,0,0,1,.7.7V11.38a.7.7,0,0,1-.7.7m-8.846-1.408h8.142V1.408H11.765Z" transform="translate(4.228)" fill="#34353d" stroke="#34353d" stroke-width="1"/>
    </g>
    <g id="Groupe_4133" data-name="Groupe 4133" transform="translate(8.205 16.899)">
      <path id="Tracé_15946" data-name="Tracé 15946" d="M15.6,24.119a7.528,7.528,0,0,1-2.128-.416,6.461,6.461,0,0,0-1.56-.347,7.078,7.078,0,0,0-1.5.243,5.006,5.006,0,0,1-3.293.042,4.921,4.921,0,0,1-2.142-2.489,6.19,6.19,0,0,0-.811-1.289A6.239,6.239,0,0,0,2.9,18.92,4.966,4.966,0,0,1,.6,16.674a4.83,4.83,0,0,1,.215-3.2A6.509,6.509,0,0,0,1.143,11.9a6.239,6.239,0,0,0-.243-1.5A5.006,5.006,0,0,1,.859,7.1,5,5,0,0,1,3.348,4.966a6.19,6.19,0,0,0,1.289-.818A6.461,6.461,0,0,0,5.58,2.886,4.867,4.867,0,0,1,7.833.557a4.835,4.835,0,0,1,3.2.25,6.392,6.392,0,0,0,1.56.347A6.648,6.648,0,0,0,14.1.9,5.051,5.051,0,0,1,17.393.869a5,5,0,0,1,2.142,2.468,6.19,6.19,0,0,0,.811,1.289,6.239,6.239,0,0,0,1.3.943,4.966,4.966,0,0,1,2.295,2.246,4.989,4.989,0,0,1-.229,3.21,6.461,6.461,0,0,0-.347,1.56,6.239,6.239,0,0,0,.243,1.5,5.006,5.006,0,0,1,.042,3.293h0a4.967,4.967,0,0,1-2.489,2.149,6.447,6.447,0,0,0-1.3.811,6.523,6.523,0,0,0-.936,1.3,4.966,4.966,0,0,1-2.246,2.295A2.967,2.967,0,0,1,15.6,24.119ZM11.854,21.6h.111a7.861,7.861,0,0,1,2.01.416,3.7,3.7,0,0,0,2.094.277c.527-.194.943-.873,1.386-1.587a8.118,8.118,0,0,1,1.227-1.643,7.841,7.841,0,0,1,1.671-1.081,3.66,3.66,0,0,0,1.719-1.331h0a3.646,3.646,0,0,0-.146-2.17,7.626,7.626,0,0,1-.312-1.948,7.861,7.861,0,0,1,.416-2.01,3.7,3.7,0,0,0,.277-2.094c-.2-.527-.873-.943-1.587-1.386a8.118,8.118,0,0,1-1.643-1.227,7.84,7.84,0,0,1-1.068-1.671,3.7,3.7,0,0,0-1.331-1.719,3.688,3.688,0,0,0-2.17.139,6.974,6.974,0,0,1-1.962.319,7.972,7.972,0,0,1-2.024-.437,3.667,3.667,0,0,0-2.08-.256c-.527.2-.943.873-1.386,1.587A8.118,8.118,0,0,1,5.83,5.409,7.84,7.84,0,0,1,4.159,6.491,3.7,3.7,0,0,0,2.44,7.822a3.688,3.688,0,0,0,.139,2.17A7.272,7.272,0,0,1,2.9,11.953a7.972,7.972,0,0,1-.437,2.024,3.667,3.667,0,0,0-.256,2.08c.2.527.873.943,1.587,1.386a8.118,8.118,0,0,1,1.643,1.227A7.84,7.84,0,0,1,6.5,20.341,3.7,3.7,0,0,0,7.833,22.06,3.7,3.7,0,0,0,10,21.915a7.986,7.986,0,0,1,1.851-.312Z" transform="translate(-0.406 -0.369)" fill="#34353d" stroke="#34353d" stroke-width="0.8"/>
      <path id="Tracé_15947" data-name="Tracé 15947" d="M14.114,19.329a.846.846,0,0,1-.6-.243l-2.5-2.447A.863.863,0,0,1,12.221,15.4l1.9,1.858,4.527-4.312a.867.867,0,1,1,1.192,1.255l-5.13,4.853A.853.853,0,0,1,14.114,19.329Z" transform="translate(-3.581 -4.146)" fill="#34353d" stroke="#34353d" stroke-width="0.8"/>
    </g>
  </g>
</svg>
