<svg id="Groupe_4125" data-name="Groupe 4125" xmlns="http://www.w3.org/2000/svg" width="111.01" height="111.01" viewBox="0 0 111.01 111.01">
  <path id="Tracé_15789" data-name="Tracé 15789" d="M55.5,0A55.5,55.5,0,1,1,16.257,16.257,55.5,55.5,0,0,1,55.5,0m38.03,17.473A53.783,53.783,0,1,0,109.287,55.5a53.783,53.783,0,0,0-15.753-38.03" transform="translate(0 0)" fill="#fff" fill-rule="evenodd"/>
  <path id="Tracé_15790" data-name="Tracé 15790" d="M179.652,8.893c.4.512,1.011.7.85,1.529a1.465,1.465,0,0,1,2.069-.109,1.437,1.437,0,0,1,.144.15,2.914,2.914,0,0,0-2.55,2.682c-.169.015-.34.023-.512.023s-.345-.008-.512-.023a2.915,2.915,0,0,0-2.55-2.682,1.465,1.465,0,0,1,2.064-.186,1.431,1.431,0,0,1,.15.144c-.16-.826.453-1.016.851-1.529" transform="translate(-124.149 -6.252)" fill="#fff" fill-rule="evenodd"/>
  <path id="Tracé_15791" data-name="Tracé 15791" d="M155.463,10.625c.466.453,1.1.556,1.055,1.4a1.465,1.465,0,0,1,2.034-.4,1.429,1.429,0,0,1,.164.129,2.913,2.913,0,0,0-2.152,3.011q-.249.057-.505.093t-.513.049a2.913,2.913,0,0,0-2.9-2.3,1.465,1.465,0,0,1,2.017-.472,1.42,1.42,0,0,1,.169.122c-.274-.8.307-1.069.629-1.632" transform="translate(-107.316 -7.469)" fill="#fff" fill-rule="evenodd"/>
  <path id="Tracé_15792" data-name="Tracé 15792" d="M131.887,15.788c.523.384,1.164.4,1.239,1.235a1.465,1.465,0,0,1,2.139-.57,2.915,2.915,0,0,0-1.712,3.282c-.159.06-.322.115-.489.163s-.333.088-.5.121a2.914,2.914,0,0,0-3.191-1.875,1.464,1.464,0,0,1,2.117-.65c-.382-.75.155-1.1.4-1.7" transform="translate(-90.953 -11.099)" fill="#fff" fill-rule="evenodd"/>
  <path id="Tracé_15793" data-name="Tracé 15793" d="M109.384,24.283c.571.307,1.209.231,1.4,1.051a1.465,1.465,0,0,1,1.846-.94,1.505,1.505,0,0,1,.193.078,2.914,2.914,0,0,0-1.239,3.487q-.223.123-.46.23c-.158.07-.318.133-.478.189a2.916,2.916,0,0,0-3.421-1.413,1.465,1.465,0,0,1,2.005-.938c-.483-.689,0-1.112.155-1.742" transform="translate(-75.382 -17.072)" fill="#fff" fill-rule="evenodd"/>
  <path id="Tracé_15794" data-name="Tracé 15794" d="M88.392,35.077c.609.225,1.229.061,1.531.846a1.465,1.465,0,0,1,1.9-1.138,2.913,2.913,0,0,0-.741,3.626c-.136.1-.277.2-.424.291s-.3.176-.448.253a2.913,2.913,0,0,0-3.584-.923,1.465,1.465,0,0,1,1.651-1.251,1.417,1.417,0,0,1,.2.043c-.573-.616-.154-1.1-.089-1.747" transform="translate(-60.901 -24.404)" fill="#fff" fill-rule="evenodd"/>
  <path id="Tracé_15795" data-name="Tracé 15795" d="M69.315,48.67c.634.138,1.226-.11,1.634.625A1.467,1.467,0,0,1,72.672,47.9a2.915,2.915,0,0,0-.229,3.694q-.181.18-.379.347c-.133.111-.268.215-.408.313a2.914,2.914,0,0,0-3.678-.416,1.465,1.465,0,0,1,1.462-1.469,1.42,1.42,0,0,1,.207.014c-.654-.529-.306-1.07-.331-1.719" transform="translate(-47.791 -33.662)" fill="#fff" fill-rule="evenodd"/>
  <path id="Tracé_15796" data-name="Tracé 15796" d="M52.493,64.886c.647.048,1.2-.279,1.705.391a1.465,1.465,0,0,1,1.3-1.61,1.514,1.514,0,0,1,.208-.007A2.913,2.913,0,0,0,56,67.35c-.1.135-.211.268-.326.4s-.236.251-.36.367a2.914,2.914,0,0,0-3.7.1,1.465,1.465,0,0,1,1.45-1.673c-.722-.433-.452-1.016-.568-1.655" transform="translate(-36.273 -44.754)" fill="#fff" fill-rule="evenodd"/>
  <path id="Tracé_15797" data-name="Tracé 15797" d="M38.217,83.427c.648-.042,1.148-.445,1.743.15A1.465,1.465,0,0,1,41.028,81.8a1.51,1.51,0,0,1,.206-.036,2.914,2.914,0,0,0,.8,3.614c-.083.148-.172.295-.269.438s-.2.281-.305.413a2.915,2.915,0,0,0-3.649.615,1.466,1.466,0,0,1,1.2-1.859c-.774-.329-.589-.944-.792-1.56" transform="translate(-26.539 -57.483)" fill="#fff" fill-rule="evenodd"/>
  <path id="Tracé_15798" data-name="Tracé 15798" d="M26.763,103.981c.636-.132,1.075-.6,1.746-.093a1.466,1.466,0,0,1,1.007-1.971,2.914,2.914,0,0,0,1.292,3.468c-.061.159-.129.316-.205.471s-.157.306-.245.452a2.915,2.915,0,0,0-3.529,1.116,1.465,1.465,0,0,1,.737-1.936,1.437,1.437,0,0,1,.2-.072c-.813-.218-.715-.853-1-1.435" transform="translate(-18.772 -71.651)" fill="#fff" fill-rule="evenodd"/>
  <path id="Tracé_15799" data-name="Tracé 15799" d="M17.6,126.146c.611-.219.981-.745,1.717-.336a1.465,1.465,0,0,1,.536-2,1.449,1.449,0,0,1,.187-.091,2.915,2.915,0,0,0,1.763,3.254c-.038.165-.083.331-.137.495s-.113.326-.18.482a2.915,2.915,0,0,0-3.339,1.6,1.465,1.465,0,0,1,.461-2.02,1.487,1.487,0,0,1,.184-.1c-.835-.1-.826-.745-1.191-1.281" transform="translate(-12.377 -86.977)" fill="#fff" fill-rule="evenodd"/>
  <path id="Tracé_15800" data-name="Tracé 15800" d="M11.6,149.493c.574-.3.867-.873,1.654-.571a1.467,1.467,0,0,1,.255-2.059,1.5,1.5,0,0,1,.17-.114,2.914,2.914,0,0,0,2.2,2.977q-.023.253-.067.51a5.12,5.12,0,0,1-.111.5,2.914,2.914,0,0,0-3.084,2.046,1.465,1.465,0,0,1,.175-2.065,1.449,1.449,0,0,1,.168-.123c-.841.014-.922-.623-1.358-1.1" transform="translate(-8.153 -103.168)" fill="#fff" fill-rule="evenodd"/>
  <path id="Tracé_15801" data-name="Tracé 15801" d="M9,173.569c.527-.379.738-.986,1.557-.8a1.466,1.466,0,0,1-.037-2.072,1.492,1.492,0,0,1,.157-.14A2.914,2.914,0,0,0,13.27,173.2c.009.17.01.342,0,.514s-.02.344-.04.512a2.915,2.915,0,0,0-2.77,2.455,1.464,1.464,0,0,1-.114-2.067,1.443,1.443,0,0,1,.15-.145c-.831.131-1-.489-1.5-.9" transform="translate(-6.329 -119.909)" fill="#fff" fill-rule="evenodd"/>
  <path id="Tracé_15802" data-name="Tracé 15802" d="M9.868,197.907c.469-.449.594-1.078,1.432-1.005a1.466,1.466,0,0,1-.19-2.206,2.915,2.915,0,0,0,2.934,2.256c.032.167.058.336.076.509s.028.343.032.512a2.914,2.914,0,0,0-2.4,2.817,1.465,1.465,0,0,1-.272-2.2c-.805.245-1.058-.345-1.61-.686" transform="translate(-6.938 -136.877)" fill="#fff" fill-rule="evenodd"/>
  <path id="Tracé_15803" data-name="Tracé 15803" d="M14.181,222.03c.4-.51.438-1.151,1.278-1.2a1.465,1.465,0,0,1-.606-1.982,1.442,1.442,0,0,1,.11-.176,2.914,2.914,0,0,0,3.219,1.825c.055.161.1.326.146.493s.076.336.1.5a2.914,2.914,0,0,0-1.986,3.124,1.465,1.465,0,0,1-.576-2.138c-.763.356-1.1-.194-1.689-.455" transform="translate(-9.97 -153.737)" fill="#fff" fill-rule="evenodd"/>
  <path id="Tracé_15804" data-name="Tracé 15804" d="M21.853,245.468c.326-.56.273-1.2,1.1-1.361a1.464,1.464,0,0,1-.877-1.876,1.433,1.433,0,0,1,.085-.191A2.914,2.914,0,0,0,25.6,243.4c.077.151.148.308.212.467s.122.323.172.485a2.912,2.912,0,0,0-1.531,3.368,1.464,1.464,0,0,1-.946-1.842,1.442,1.442,0,0,1,.078-.194c-.706.458-1.112-.04-1.736-.216" transform="translate(-15.363 -170.162)" fill="#fff" fill-rule="evenodd"/>
  <path id="Tracé_15805" data-name="Tracé 15805" d="M32.121,267.767c.246-.6.1-1.226.9-1.5a1.465,1.465,0,0,1-1.129-1.737,1.4,1.4,0,0,1,.058-.2,2.914,2.914,0,0,0,3.6.867c.1.14.189.284.276.434s.166.3.238.456a2.915,2.915,0,0,0-1.048,3.549,1.465,1.465,0,0,1-1.193-1.693,1.531,1.531,0,0,1,.05-.2c-.635.551-1.107.116-1.749.028" transform="translate(-22.398 -185.831)" fill="#fff" fill-rule="evenodd"/>
  <path id="Tracé_15806" data-name="Tracé 15806" d="M45.016,288.492c.159-.629-.068-1.229.681-1.611a1.466,1.466,0,0,1-1.33-1.77,2.915,2.915,0,0,0,3.683.358q.174.187.334.391t.3.419a2.915,2.915,0,0,0-.543,3.661,1.466,1.466,0,0,1-1.4-1.719c-.552.635-1.079.268-1.728.271" transform="translate(-31.169 -200.442)" fill="#fff" fill-rule="evenodd"/>
  <path id="Tracé_15807" data-name="Tracé 15807" d="M60.6,306.866c.07-.645-.238-1.208.451-1.69a1.465,1.465,0,0,1-1.564-1.359,1.44,1.44,0,0,1,0-.209,2.914,2.914,0,0,0,3.7-.157c.132.107.26.22.385.341s.242.244.354.373a2.913,2.913,0,0,0-.029,3.7,1.464,1.464,0,0,1-1.613-1.3,1.5,1.5,0,0,1-.008-.209c-.458.705-1.032.416-1.674.509" transform="translate(-41.82 -213.335)" fill="#fff" fill-rule="evenodd"/>
  <path id="Tracé_15808" data-name="Tracé 15808" d="M78.588,322.054c-.02-.649-.4-1.163.211-1.737a1.464,1.464,0,0,1-1.766-1.335,2.914,2.914,0,0,0,3.639-.671q.218.131.429.284c.14.1.274.209.4.32a2.913,2.913,0,0,0,.486,3.669,1.467,1.467,0,0,1-1.817-1.268c-.355.762-.963.556-1.586.737" transform="translate(-54.156 -223.783)" fill="#fff" fill-rule="evenodd"/>
  <path id="Tracé_15809" data-name="Tracé 15809" d="M98.673,334.616c-.11-.639-.562-1.095-.033-1.749a1.467,1.467,0,0,1-1.879-.88,1.5,1.5,0,0,1-.056-.2,2.914,2.914,0,0,0,3.511-1.17c.157.067.311.14.464.221s.3.169.442.261a2.915,2.915,0,0,0,.993,3.565,1.465,1.465,0,0,1-1.91-.806,1.484,1.484,0,0,1-.064-.2c-.246.8-.877.685-1.469.951" transform="translate(-67.987 -232.437)" fill="#fff" fill-rule="evenodd"/>
  <path id="Tracé_15810" data-name="Tracé 15810" d="M120.475,344.3c-.2-.618-.709-1.006-.277-1.728a1.465,1.465,0,0,1-1.982-.605,1.429,1.429,0,0,1-.084-.19,2.915,2.915,0,0,0,3.314-1.648q.246.066.49.155c.163.059.321.126.475.2a2.914,2.914,0,0,0,1.479,3.392,1.464,1.464,0,0,1-2.095-.718c-.132.831-.773.8-1.321,1.146" transform="translate(-83.051 -239.122)" fill="#fff" fill-rule="evenodd"/>
  <path id="Tracé_15811" data-name="Tracé 15811" d="M143.571,350.922c-.282-.584-.842-.9-.514-1.673a1.466,1.466,0,0,1-2.157-.5,2.913,2.913,0,0,0,3.052-2.093c.169.021.338.049.507.085s.335.079.5.129a2.914,2.914,0,0,0,1.937,3.153,1.466,1.466,0,0,1-2.174-.419c-.015.842-.654.9-1.15,1.319" transform="translate(-99.057 -243.709)" fill="#fff" fill-rule="evenodd"/>
  <path id="Tracé_15812" data-name="Tracé 15812" d="M167.51,354.352c-.361-.54-.959-.772-.742-1.583a1.466,1.466,0,0,1-2.072-.037,1.442,1.442,0,0,1-.133-.159,2.914,2.914,0,0,0,2.73-2.5q.256,0,.515.013t.51.058A2.914,2.914,0,0,0,170.676,353a1.467,1.467,0,0,1-2.074.039,1.427,1.427,0,0,1-.138-.153c.1.835-.522.982-.955,1.467" transform="translate(-115.693 -246.114)" fill="#fff" fill-rule="evenodd"/>
  <path id="Tracé_15813" data-name="Tracé 15813" d="M191.821,354.347c-.432-.484-1.057-.631-.955-1.467a1.465,1.465,0,0,1-2.057.254,1.484,1.484,0,0,1-.156-.14,2.916,2.916,0,0,0,2.357-2.854q.252-.04.51-.058t.514-.013a2.914,2.914,0,0,0,2.731,2.5,1.466,1.466,0,0,1-2.046.329,1.451,1.451,0,0,1-.159-.133c.217.813-.381,1.045-.742,1.583" transform="translate(-132.63 -246.108)" fill="#fff" fill-rule="evenodd"/>
  <path id="Tracé_15814" data-name="Tracé 15814" d="M216.044,350.92c-.5-.419-1.134-.478-1.15-1.319a1.465,1.465,0,0,1-2,.536,1.444,1.444,0,0,1-.173-.117,2.915,2.915,0,0,0,1.937-3.154q.244-.074.5-.129c.17-.036.339-.064.507-.085a2.914,2.914,0,0,0,3.053,2.093,1.465,1.465,0,0,1-1.98.611,1.408,1.408,0,0,1-.177-.11c.328.775-.233,1.088-.514,1.673" transform="translate(-149.549 -243.708)" fill="#fff" fill-rule="evenodd"/>
  <path id="Tracé_15815" data-name="Tracé 15815" d="M239.7,344.3c-.549-.346-1.19-.315-1.322-1.146a1.465,1.465,0,0,1-2.094.718,2.914,2.914,0,0,0,1.479-3.393c.154-.071.312-.138.475-.2s.326-.11.489-.155a2.914,2.914,0,0,0,3.314,1.648,1.465,1.465,0,0,1-2.065.8c.433.722-.078,1.11-.276,1.727" transform="translate(-166.112 -239.121)" fill="#fff" fill-rule="evenodd"/>
  <path id="Tracé_15816" data-name="Tracé 15816" d="M262.322,334.617c-.592-.266-1.223-.146-1.469-.951a1.466,1.466,0,0,1-1.777,1.067,1.482,1.482,0,0,1-.2-.064,2.915,2.915,0,0,0,.993-3.566c.143-.092.29-.179.443-.26s.307-.155.464-.221a2.914,2.914,0,0,0,3.511,1.17,1.467,1.467,0,0,1-1.738,1.132,1.5,1.5,0,0,1-.2-.056c.529.654.077,1.109-.033,1.749" transform="translate(-182.001 -232.438)" fill="#fff" fill-rule="evenodd"/>
  <path id="Tracé_15817" data-name="Tracé 15817" d="M283.48,322.054c-.624-.181-1.232.025-1.587-.737a1.466,1.466,0,0,1-1.611,1.3,1.5,1.5,0,0,1-.2-.036,2.912,2.912,0,0,0,.486-3.669c.129-.111.263-.219.4-.32s.283-.2.429-.284a2.914,2.914,0,0,0,3.639.671,1.466,1.466,0,0,1-1.766,1.335c.615.573.231,1.088.211,1.736" transform="translate(-196.904 -223.783)" fill="#fff" fill-rule="evenodd"/>
  <path id="Tracé_15818" data-name="Tracé 15818" d="M302.69,306.866c-.642-.093-1.215.2-1.674-.509a1.466,1.466,0,0,1-1.621,1.507,2.913,2.913,0,0,0-.029-3.7q.168-.192.354-.372c.124-.121.254-.233.385-.341a2.914,2.914,0,0,0,3.7.157,1.465,1.465,0,0,1-1.355,1.567,1.431,1.431,0,0,1-.209,0c.689.482.38,1.045.451,1.69" transform="translate(-210.464 -213.336)" fill="#fff" fill-rule="evenodd"/>
  <path id="Tracé_15819" data-name="Tracé 15819" d="M318.493,288.49c-.649,0-1.176.363-1.728-.271a1.466,1.466,0,0,1-1.4,1.719,2.914,2.914,0,0,0-.544-3.661c.093-.142.192-.282.3-.419s.218-.266.333-.391a2.916,2.916,0,0,0,3.684-.358,1.465,1.465,0,0,1-1.124,1.741,1.45,1.45,0,0,1-.206.029c.749.382.522.982.681,1.611" transform="translate(-221.332 -200.44)" fill="#fff" fill-rule="evenodd"/>
  <path id="Tracé_15820" data-name="Tracé 15820" d="M331.737,267.767c-.643.088-1.114.523-1.749-.028a1.465,1.465,0,0,1-1.142,1.9,2.914,2.914,0,0,0-1.048-3.549q.107-.231.237-.456c.087-.149.179-.294.276-.434a2.914,2.914,0,0,0,3.6-.867,1.464,1.464,0,0,1-.87,1.88,1.481,1.481,0,0,1-.2.058c.8.274.654.9.9,1.5" transform="translate(-230.452 -185.831)" fill="#fff" fill-rule="evenodd"/>
  <path id="Tracé_15821" data-name="Tracé 15821" d="M342.162,245.468c-.625.176-1.03.674-1.736.216a1.465,1.465,0,0,1-.675,1.959,1.544,1.544,0,0,1-.193.077,2.913,2.913,0,0,0-1.531-3.368c.05-.163.107-.324.172-.485s.136-.316.212-.467a2.915,2.915,0,0,0,3.442-1.36,1.465,1.465,0,0,1-.6,1.982,1.447,1.447,0,0,1-.191.085c.826.161.772.8,1.1,1.362" transform="translate(-237.644 -170.162)" fill="#fff" fill-rule="evenodd"/>
  <path id="Tracé_15822" data-name="Tracé 15822" d="M349.562,222.03c-.594.261-.927.811-1.689.455a1.465,1.465,0,0,1-.575,2.138,2.915,2.915,0,0,0-1.986-3.124q.04-.252.1-.5t.146-.493a2.914,2.914,0,0,0,3.22-1.825,1.465,1.465,0,0,1-.5,2.158c.84.044.876.685,1.278,1.2" transform="translate(-242.765 -153.737)" fill="#fff" fill-rule="evenodd"/>
  <path id="Tracé_15823" data-name="Tracé 15823" d="M353.8,197.909c-.552.342-.8.932-1.61.686a1.465,1.465,0,0,1-.108,2.069,1.493,1.493,0,0,1-.165.128,2.914,2.914,0,0,0-2.4-2.817c0-.17.014-.341.032-.512s.044-.342.076-.508a2.915,2.915,0,0,0,2.934-2.256,1.465,1.465,0,0,1-.19,2.206c.838-.073.963.556,1.432,1.005" transform="translate(-245.72 -136.879)" fill="#fff" fill-rule="evenodd"/>
  <path id="Tracé_15824" data-name="Tracé 15824" d="M354.682,173.57c-.5.415-.667,1.035-1.5.9a1.465,1.465,0,0,1,.036,2.212,2.914,2.914,0,0,0-2.77-2.455c-.02-.168-.034-.339-.04-.513s0-.344,0-.514a2.914,2.914,0,0,0,2.591-2.642,1.466,1.466,0,0,1,.259,2.057,1.417,1.417,0,0,1-.14.156c.819-.189,1.031.417,1.558.8" transform="translate(-246.347 -119.91)" fill="#fff" fill-rule="evenodd"/>
  <path id="Tracé_15825" data-name="Tracé 15825" d="M352.08,149.494c-.436.48-.517,1.118-1.358,1.1a1.463,1.463,0,0,1,.344,2.187,2.914,2.914,0,0,0-3.084-2.046q-.065-.246-.111-.5t-.067-.51a2.913,2.913,0,0,0,2.2-2.977,1.465,1.465,0,0,1,.541,2,1.43,1.43,0,0,1-.116.173c.785-.3,1.079.27,1.654.572" transform="translate(-244.517 -103.169)" fill="#fff" fill-rule="evenodd"/>
  <path id="Tracé_15826" data-name="Tracé 15826" d="M346.25,126.145c-.365.536-.357,1.178-1.191,1.281a1.465,1.465,0,0,1,.743,1.934,1.44,1.44,0,0,1-.1.184,2.915,2.915,0,0,0-3.339-1.6c-.066-.157-.126-.317-.18-.482s-.1-.329-.137-.495a2.914,2.914,0,0,0,1.762-3.254,1.465,1.465,0,0,1,.814,1.905,1.444,1.444,0,0,1-.091.187c.736-.408,1.106.116,1.717.336" transform="translate(-240.47 -86.976)" fill="#fff" fill-rule="evenodd"/>
  <path id="Tracé_15827" data-name="Tracé 15827" d="M337.314,103.98c-.287.582-.189,1.217-1,1.435a1.465,1.465,0,0,1,1,1.812,1.514,1.514,0,0,1-.072.2,2.915,2.915,0,0,0-3.529-1.117c-.087-.146-.169-.3-.245-.452s-.144-.312-.205-.471a2.914,2.914,0,0,0,1.292-3.468,1.465,1.465,0,0,1,1.007,1.971c.672-.506,1.112-.038,1.746.093" transform="translate(-234.297 -71.649)" fill="#fff" fill-rule="evenodd"/>
  <path id="Tracé_15828" data-name="Tracé 15828" d="M325.453,83.428c-.2.616-.018,1.231-.792,1.56a1.465,1.465,0,0,1,1.247,1.654,1.49,1.49,0,0,1-.044.2,2.913,2.913,0,0,0-3.649-.615q-.16-.2-.306-.414c-.1-.143-.187-.29-.268-.438a2.916,2.916,0,0,0,.8-3.614,1.465,1.465,0,0,1,1.272,1.812c.6-.595,1.095-.192,1.743-.15" transform="translate(-226.124 -57.484)" fill="#fff" fill-rule="evenodd"/>
  <path id="Tracé_15829" data-name="Tracé 15829" d="M310.894,64.887c-.115.638.154,1.222-.568,1.655a1.464,1.464,0,0,1,1.45,1.673,2.913,2.913,0,0,0-3.7-.1c-.124-.116-.245-.238-.36-.367s-.225-.261-.327-.4a2.914,2.914,0,0,0,.287-3.69,1.466,1.466,0,0,1,1.519,1.41,1.421,1.421,0,0,1-.007.208c.506-.672,1.058-.343,1.705-.391" transform="translate(-216.105 -44.755)" fill="#fff" fill-rule="evenodd"/>
  <path id="Tracé_15830" data-name="Tracé 15830" d="M293.379,48.67c-.025.649.322,1.188-.331,1.718a1.466,1.466,0,0,1,1.655,1.248,1.51,1.51,0,0,1,.014.207,2.915,2.915,0,0,0-3.678.416c-.14-.1-.275-.2-.408-.313s-.259-.227-.379-.347a2.914,2.914,0,0,0-.229-3.694,1.464,1.464,0,0,1,1.723,1.391c.408-.735,1-.487,1.634-.625" transform="translate(-203.895 -33.662)" fill="#fff" fill-rule="evenodd"/>
  <path id="Tracé_15831" data-name="Tracé 15831" d="M273.112,35.076c.065.646.484,1.132-.089,1.747a1.465,1.465,0,0,1,1.812,1,1.445,1.445,0,0,1,.043.2,2.915,2.915,0,0,0-3.584.923q-.226-.116-.447-.253t-.424-.291a2.913,2.913,0,0,0-.741-3.626,1.465,1.465,0,0,1,1.848.935,1.5,1.5,0,0,1,.051.2c.3-.785.922-.622,1.531-.846" transform="translate(-189.595 -24.402)" fill="#fff" fill-rule="evenodd"/>
  <path id="Tracé_15832" data-name="Tracé 15832" d="M251.166,24.28c.154.63.637,1.054.154,1.742a1.465,1.465,0,0,1,2.005.938,2.914,2.914,0,0,0-3.421,1.413c-.16-.056-.32-.118-.478-.189s-.312-.148-.461-.23a2.914,2.914,0,0,0-1.239-3.487,1.464,1.464,0,0,1,2.039.862c.19-.82.827-.745,1.4-1.051" transform="translate(-174.161 -17.069)" fill="#fff" fill-rule="evenodd"/>
  <path id="Tracé_15833" data-name="Tracé 15833" d="M227.971,15.788c.241.6.777.955.4,1.7a1.465,1.465,0,0,1,2.019.467,1.487,1.487,0,0,1,.1.184,2.914,2.914,0,0,0-3.19,1.875c-.167-.033-.334-.073-.5-.121s-.329-.1-.487-.163a2.914,2.914,0,0,0-1.713-3.282,1.466,1.466,0,0,1,2.036.391,1.515,1.515,0,0,1,.1.179c.073-.838.716-.851,1.239-1.235" transform="translate(-157.895 -11.099)" fill="#fff" fill-rule="evenodd"/>
  <path id="Tracé_15834" data-name="Tracé 15834" d="M203.974,10.626c.322.563.9.837.629,1.632a1.467,1.467,0,0,1,2.187.349,2.914,2.914,0,0,0-2.9,2.3q-.255-.013-.513-.049t-.505-.093a2.914,2.914,0,0,0-2.152-3.011,1.465,1.465,0,0,1,2.2.267c-.043-.84.59-.943,1.055-1.4" transform="translate(-141.113 -7.47)" fill="#fff" fill-rule="evenodd"/>
  <path id="Tracé_15835" data-name="Tracé 15835" d="M70.248,20.971A49.276,49.276,0,1,1,35.4,35.4,49.275,49.275,0,0,1,70.248,20.971m33.871,15.406a47.9,47.9,0,1,0,14.03,33.871,47.9,47.9,0,0,0-14.03-33.871" transform="translate(-14.744 -14.743)" fill="#fff" fill-rule="evenodd"/>
  <path id="Tracé_15836" data-name="Tracé 15836" d="M52.838,137.688q-.216.178-.417.365H35.306c0-.121,0-.243,0-.365s0-.243,0-.364H52.422c.135.124.273.246.417.364M40.4,158.477q-.19-.362-.373-.729h1.5a7.417,7.417,0,0,1-.326.729Zm-.732-1.459q-.174-.362-.34-.729h2.588a7.324,7.324,0,0,1-.155.729ZM39,155.559c-.1-.242-.21-.485-.309-.729H42c.009.243.006.487-.008.729ZM38.4,154.1c-.1-.242-.186-.486-.277-.73h3.688c.056.242.1.486.133.73Zm-.541-1.459c-.086-.242-.171-.485-.252-.73h3.713c.107.241.2.484.284.73Zm-.489-1.459q-.114-.363-.222-.729h3.336a8.354,8.354,0,0,1,.466.729Zm-.431-1.459q-.1-.364-.2-.73H39.2q.265.255.519.526c.064.067.124.136.186.2Zm-.378-1.459c-.058-.242-.116-.485-.17-.729h1.043c.324.233.641.474.949.729Zm-.329-1.459-.016-.077.124.077Zm-.727-4.874-.022-.232H48.836a4.379,4.379,0,0,1-1.725.729h-1.8q-.181-.028-.371-.067l.072.067h-8.44q-.52-.263-1.065-.5m-.081-.961q-.027-.364-.047-.73H50.4c-.228.255-.456.5-.693.73Zm-.08-1.459c-.01-.243-.021-.486-.026-.729H51.695c-.224.241-.44.487-.652.729Zm-.026-2.917c.006-.244.017-.486.026-.73h15.7c.211.243.427.489.652.73Zm.06-1.459q.02-.365.047-.729H49.711c.237.229.466.475.694.729Zm.106-1.459.021-.233q.545-.234,1.065-.5h8.441l-.072.067q.188-.039.369-.067h1.807a4.38,4.38,0,0,1,1.723.729Zm.731-5.03.016-.077h.108Zm.176-.806q.082-.365.17-.729h1.821q-.462.383-.949.729Zm.349-1.459c.063-.244.131-.487.2-.729H39.9q-.091.1-.185.2c-.169.181-.343.357-.52.527Zm.408-1.459c.072-.244.145-.489.221-.73h3.583a8.436,8.436,0,0,1-.466.73Zm.458-1.459q.123-.366.252-.729H41.6q-.123.368-.284.729ZM38.119,122q.136-.367.277-.73h3.545q-.048.367-.133.73Zm.575-1.459c.1-.244.2-.487.309-.729H42c.014.242.017.486.008.729Zm.633-1.459c.11-.245.225-.488.34-.729h2.092a7.185,7.185,0,0,1,.155.729Zm.7-1.459q.184-.367.373-.729h.8a7.347,7.347,0,0,1,.326.729Zm5.665,25.53a7.334,7.334,0,0,1,.515.729H38.942q-.519-.384-1.075-.729Zm.913,1.459q.171.355.306.729H40.624q-.373-.379-.775-.729Zm.536,1.459q.1.36.162.729H41.872q-.278-.376-.579-.729Zm.26,1.458c.023.242.037.486.041.729H42.815q-.209-.374-.437-.729Zm.023,1.459c-.015.244-.041.489-.077.73H43.523c-.1-.248-.214-.492-.329-.73Zm-.216,1.459q-.088.37-.207.729h-2.95q-.113-.371-.242-.729Zm-.492,1.459a7.411,7.411,0,0,1-.374.73H44.424c-.052-.247-.109-.491-.17-.73Zm-.863,1.459a6.785,6.785,0,0,1-.643.729h-.536q-.049-.37-.11-.729Zm-7.984-21.154q.557-.344,1.075-.729h7.264a7.248,7.248,0,0,1-.515.729Zm1.982-1.459q.4-.349.775-.729H46.91q-.136.372-.306.729Zm1.444-1.459q.3-.353.58-.729H47.3q-.066.369-.162.729Zm1.085-1.458q.228-.355.437-.729H47.44c0,.243-.017.487-.041.729Zm.818-1.459q.172-.356.328-.73h3.821q.054.362.077.73Zm.612-1.459q.128-.359.242-.73H47q.119.36.207.73Zm.447-1.459q.092-.358.17-.729H46.34a7.6,7.6,0,0,1,.374.729Zm.308-1.459q.061-.359.11-.73h.536a6.764,6.764,0,0,1,.643.73Z" transform="translate(-24.818 -82.184)" fill="#fff" fill-rule="evenodd"/>
  <path id="Tracé_15837" data-name="Tracé 15837" d="M279.451,137.689q.216.177.417.365h17.115c0-.121,0-.243,0-.365s0-.243,0-.365H279.867c-.135.124-.273.246-.417.365m12.439,20.789q.189-.362.373-.729h-1.5a7.341,7.341,0,0,0,.326.729Zm.732-1.459q.174-.362.34-.729h-2.587a7.269,7.269,0,0,0,.155.729Zm.663-1.459c.1-.242.21-.485.309-.729h-3.308a7.276,7.276,0,0,0,.008.729Zm.605-1.459c.1-.241.186-.485.277-.729h-3.688c-.056.242-.1.486-.132.729Zm.541-1.459c.086-.243.171-.485.252-.73H290.97q-.161.361-.284.73Zm.489-1.459q.114-.363.221-.729h-3.335a8.528,8.528,0,0,0-.466.729Zm.431-1.459q.1-.363.2-.73h-2.459q-.265.254-.519.526c-.064.067-.125.136-.186.2Zm.378-1.459c.058-.243.116-.486.17-.729h-1.042c-.324.233-.641.474-.95.729Zm.329-1.459.017-.077-.124.077Zm.726-4.874.021-.232H283.452a4.38,4.38,0,0,0,1.725.729h1.8q.181-.028.371-.067l-.072.067h8.441q.52-.263,1.066-.5m.081-.961q.027-.363.047-.73h-15.03c.228.254.457.5.694.73Zm.08-1.459c.01-.243.02-.486.026-.729h-16.38c.224.241.439.487.652.729Zm.026-2.917c-.006-.244-.017-.487-.026-.73h-15.7c-.212.243-.427.489-.652.73Zm-.061-1.459q-.02-.365-.047-.729h-14.29c-.237.229-.466.475-.694.729Zm-.106-1.459-.021-.233q-.545-.235-1.065-.5h-8.443l.072.067q-.188-.039-.369-.067h-1.807a4.378,4.378,0,0,0-1.725.729Zm-.731-5.03-.017-.077h-.107Zm-.176-.806q-.083-.365-.17-.729H293.91q.463.383.949.729Zm-.35-1.459c-.063-.244-.131-.487-.2-.729h-2.97q.09.1.185.2c.169.181.343.357.52.526Zm-.408-1.459c-.072-.244-.145-.489-.221-.73h-3.584a8.552,8.552,0,0,0,.466.73Zm-.458-1.459q-.123-.366-.252-.729h-3.748q.123.368.284.729Zm-.516-1.459q-.136-.367-.277-.73h-3.546c.032.244.077.487.132.73Zm-.575-1.458c-.1-.244-.2-.487-.309-.73h-2.993a7.292,7.292,0,0,0-.008.73Zm-.633-1.459c-.11-.244-.225-.487-.34-.729H290.53a7.2,7.2,0,0,0-.155.729Zm-.7-1.459q-.184-.366-.373-.729h-.8a7.371,7.371,0,0,0-.326.729ZM286.6,143.16a7.251,7.251,0,0,0-.515.729h7.264q.519-.384,1.075-.729Zm-.913,1.459q-.171.355-.306.729h6.286q.372-.379.775-.729Zm-.536,1.459q-.1.36-.161.729h5.428q.278-.376.579-.729Zm-.26,1.458c-.023.243-.038.487-.041.729h4.625q.209-.374.438-.729ZM284.866,149c.015.245.041.489.077.73h3.821q.155-.373.329-.73Zm.216,1.459q.088.37.207.729h2.95q.114-.371.243-.729Zm.492,1.459a7.342,7.342,0,0,0,.374.73h1.915c.052-.247.109-.491.17-.73Zm.863,1.459a6.785,6.785,0,0,0,.643.729h.536q.049-.37.11-.729Zm7.983-21.154q-.556-.344-1.075-.729h-7.262a7.159,7.159,0,0,0,.515.729Zm-1.982-1.459q-.4-.349-.775-.729h-6.284q.136.373.306.729Zm-1.444-1.459q-.3-.354-.58-.729h-5.426q.065.369.161.729Zm-1.085-1.459q-.228-.355-.438-.729h-4.624c0,.244.017.487.041.729Zm-.818-1.459q-.172-.356-.328-.729h-3.819q-.053.362-.077.729Zm-.612-1.459q-.128-.359-.242-.73H285.29q-.119.36-.207.73Zm-.447-1.459q-.092-.358-.17-.729h-1.915a7.469,7.469,0,0,0-.374.729Zm-.308-1.459q-.061-.359-.11-.73h-.536a6.764,6.764,0,0,0-.643.73Z" transform="translate(-196.462 -82.185)" fill="#fff" fill-rule="evenodd"/>
  <path id="Tracé_15838" data-name="Tracé 15838" d="M137.931,292.669a1.1,1.1,0,0,1-.266.4,1.84,1.84,0,0,1-.518.366,2.314,2.314,0,0,1-.7.209,1.746,1.746,0,0,1-.8-.077,2.43,2.43,0,0,1-1.156-.662,1.335,1.335,0,0,1-.319-.826q-.025-.9-.031-1.621a8.817,8.817,0,0,0-.091-1.273,2.325,2.325,0,0,0-.31-.9,1.256,1.256,0,0,0-.7-.507c-.172-.056-.291-.06-.357-.01l-.929,2.86q-.256.792.955,1.183l-.186.573-4.686-1.522.187-.572q1.172.38,1.428-.41l2.048-6.306q.248-.763-1.019-1.174l.195-.6,2.138.694q.45.146.765.241t.66.192q.344.1.79.234t1.126.358a3.894,3.894,0,0,1,1.155.57,2.378,2.378,0,0,1,.666.753,1.891,1.891,0,0,1,.229.872,2.907,2.907,0,0,1-.151.954,1.951,1.951,0,0,1-1.2,1.277,3.878,3.878,0,0,1-2.157.106,7.438,7.438,0,0,1,.792.438,2.267,2.267,0,0,1,.518.446,1.667,1.667,0,0,1,.291.516,2.852,2.852,0,0,1,.136.623,5.776,5.776,0,0,1,.019.962c-.02.309-.028.59-.023.841a2.387,2.387,0,0,0,.08.635.5.5,0,0,0,.347.346q.3.1.666-.477Zm-4.436-5.491a4.428,4.428,0,0,0,.675.167,1.119,1.119,0,0,0,.575-.055,1.145,1.145,0,0,0,.494-.407,3.152,3.152,0,0,0,.418-.892,2.444,2.444,0,0,0,.142-.831,1.338,1.338,0,0,0-.151-.6,1.165,1.165,0,0,0-.385-.413,2.287,2.287,0,0,0-.561-.265l-.273-.088q-.408-.133-.626.537l-.822,2.53c0,.1.055.169.174.207Z" transform="translate(-89.874 -198.118)" fill="#fff"/>
  <path id="Tracé_15839" data-name="Tracé 15839" d="M183.748,293.1q-.048-1.13-1.48-1.069l-.027-.629,3.449-.148.027.629a1.02,1.02,0,0,0-1.125,1.181l.183,4.264a6.719,6.719,0,0,1-.093,1.516,2.617,2.617,0,0,1-.53,1.184,2.752,2.752,0,0,1-1.106.792,5.354,5.354,0,0,1-1.82.343,4.9,4.9,0,0,1-1.563-.17,3.8,3.8,0,0,1-1.244-.6,2.971,2.971,0,0,1-.837-.96,2.831,2.831,0,0,1-.341-1.254l-.214-5.009q-.039-.915-1.37-.859l-.027-.629,5.009-.214.026.629q-1.331.057-1.292.972l.2,4.651a5.777,5.777,0,0,0,.119.934,2.551,2.551,0,0,0,.338.853,1.829,1.829,0,0,0,.645.61,1.89,1.89,0,0,0,1.037.207,2.158,2.158,0,0,0,1.765-.763,3.167,3.167,0,0,0,.46-2.026Z" transform="translate(-123.474 -204.759)" fill="#fff"/>
  <path id="Tracé_15840" data-name="Tracé 15840" d="M224.262,284.48a7.182,7.182,0,0,0-.638-.876,3.25,3.25,0,0,0-.684-.614,1.865,1.865,0,0,0-.724-.293,1.423,1.423,0,0,0-.742.082,2.14,2.14,0,0,0-1.086.772,1.044,1.044,0,0,0-.116.987,1.143,1.143,0,0,0,.371.536,1.5,1.5,0,0,0,.582.246,3.935,3.935,0,0,0,.817.075q.467,0,1.052.008.663.01,1.231.055a3.375,3.375,0,0,1,1.032.238,2.352,2.352,0,0,1,.823.577,3.715,3.715,0,0,1,.856,2.36,2.664,2.664,0,0,1-.292,1.131,2.973,2.973,0,0,1-.764.934,4.132,4.132,0,0,1-1.178.669,4.031,4.031,0,0,1-1,.241,2.076,2.076,0,0,1-.973-.121,5.068,5.068,0,0,1-.429.545,3.933,3.933,0,0,1-.5.467,5.444,5.444,0,0,1-.586-.858,7.457,7.457,0,0,1-.439-.96q-.132-.347-.239-.69t-.185-.711l.871-.33a3.941,3.941,0,0,0,.454.854,2.837,2.837,0,0,0,.685.7,2.154,2.154,0,0,0,.9.373,2.036,2.036,0,0,0,1.076-.132,3.1,3.1,0,0,0,.834-.446,1.648,1.648,0,0,0,.457-.533,1.29,1.29,0,0,0,.146-.584,1.644,1.644,0,0,0-.11-.594,1.334,1.334,0,0,0-.538-.692,1.743,1.743,0,0,0-.981-.2q-.924.029-1.71.013a5.422,5.422,0,0,1-1.434-.207,2.981,2.981,0,0,1-1.126-.608,2.866,2.866,0,0,1-.769-1.179,2.5,2.5,0,0,1,.127-2.131,2.76,2.76,0,0,1,.692-.821,3.579,3.579,0,0,1,1-.571,2.737,2.737,0,0,1,1.02-.179,1.823,1.823,0,0,1,.994.32,1.269,1.269,0,0,1,.261-.6,2.423,2.423,0,0,1,.466-.468,6.481,6.481,0,0,1,.8,1.359q.353.793.627,1.516Z" transform="translate(-153.978 -197.732)" fill="#fff"/>
  <path id="Tracé_15841" data-name="Tracé 15841" d="M83.027,94.352l-.448-.4q.992-1.111.094-1.912l-4.829-4.311q-.322-.285-.711.152a1.794,1.794,0,0,0-.4.672,1.533,1.533,0,0,0-.035.717,2.754,2.754,0,0,0,.294.8,7.992,7.992,0,0,0,.59.919l-.687.577-2.1-2.417q.29-.239.607-.552t.489-.5l3.768-4.22q.209-.234.493-.6t.489-.677l2.339,2.089-.5.668a3.241,3.241,0,0,0-1.58-.769,1.625,1.625,0,0,0-1.357.681q-.409.459-.132.708l4.829,4.312q.9.8,1.908-.331l.449.4Z" transform="translate(-52.58 -58.07)" fill="#fff"/>
  <path id="Tracé_15842" data-name="Tracé 15842" d="M119.318,67.478a1.091,1.091,0,0,1,.114.469,1.826,1.826,0,0,1-.083.629,2.327,2.327,0,0,1-.323.656,1.75,1.75,0,0,1-.6.531,2.439,2.439,0,0,1-1.271.4,1.338,1.338,0,0,1-.823-.328q-.675-.591-1.211-1.08a8.8,8.8,0,0,0-1-.8,2.329,2.329,0,0,0-.87-.383,1.254,1.254,0,0,0-.848.17q-.237.133-.251.256l1.467,2.625q.406.725,1.518.1l.294.525-4.3,2.4-.294-.525q1.075-.6.67-1.326l-3.233-5.791q-.391-.7-1.554-.05l-.307-.55,1.963-1.1c.276-.154.507-.286.7-.4s.386-.229.589-.353.44-.265.709-.421.611-.35,1.028-.582a3.858,3.858,0,0,1,1.2-.458,2.368,2.368,0,0,1,1,.022,1.894,1.894,0,0,1,.8.426,2.911,2.911,0,0,1,.6.759,1.951,1.951,0,0,1,.123,1.746,3.874,3.874,0,0,1-1.389,1.654,7.383,7.383,0,0,1,.859-.283,2.235,2.235,0,0,1,.679-.076,1.663,1.663,0,0,1,.576.136,2.9,2.9,0,0,1,.55.324,5.84,5.84,0,0,1,.717.639q.32.338.6.59a2.448,2.448,0,0,0,.52.373.5.5,0,0,0,.489-.02q.275-.154.1-.813ZM112.275,67a4.368,4.368,0,0,0,.582-.382,1.111,1.111,0,0,0,.35-.46,1.145,1.145,0,0,0,.037-.638,3.146,3.146,0,0,0-.371-.913,2.459,2.459,0,0,0-.512-.669,1.343,1.343,0,0,0-.544-.3,1.158,1.158,0,0,0-.564,0,2.308,2.308,0,0,0-.576.231l-.25.14q-.375.209-.031.824l1.3,2.323a.208.208,0,0,0,.27.014Z" transform="translate(-74.816 -43.632)" fill="#fff"/>
  <path id="Tracé_15843" data-name="Tracé 15843" d="M152,58.674l-.1-.594q1.271-.208,1.137-1.028l-1.03-6.275q-.174-1.06-1.545-.835l-.1-.622,8.112-1.331.567,2.751-.85.212a3.665,3.665,0,0,0-.564-1.134,1.59,1.59,0,0,0-.679-.512,1.892,1.892,0,0,0-.815-.1q-.444.037-.981.124a1.6,1.6,0,0,0-.7.252.425.425,0,0,0-.191.429l.407,2.477a.3.3,0,0,0,.3.3.292.292,0,0,0,.083-.012,4.2,4.2,0,0,0,.615-.145,1.214,1.214,0,0,0,.471-.273,1.1,1.1,0,0,0,.287-.5,2.424,2.424,0,0,0,.052-.836l.82-.135.619,3.773-.82.135a3.526,3.526,0,0,0-.269-.755,1.033,1.033,0,0,0-.349-.407.977.977,0,0,0-.48-.14,3.978,3.978,0,0,0-.662.036q-.473.122-.418.461l.433,2.643q.112.679,1.172.5a5.728,5.728,0,0,0,1.356-.36,2.112,2.112,0,0,0,.774-.549,2.043,2.043,0,0,0,.408-.785q.128-.457.243-1.085l.824-.019.084,2.991Z" transform="translate(-105.713 -33.738)" fill="#fff"/>
  <path id="Tracé_15844" data-name="Tracé 15844" d="M197.634,52.423a7.2,7.2,0,0,0-.135-1.076,3.258,3.258,0,0,0-.3-.867,1.875,1.875,0,0,0-.492-.606,1.428,1.428,0,0,0-.69-.287,2.145,2.145,0,0,0-1.324.151,1.046,1.046,0,0,0-.579.809,1.145,1.145,0,0,0,.067.647,1.491,1.491,0,0,0,.391.5,3.9,3.9,0,0,0,.679.459q.408.226.917.516.575.328,1.051.643a3.379,3.379,0,0,1,.788.707,2.359,2.359,0,0,1,.442.9,3.723,3.723,0,0,1-.391,2.479,2.665,2.665,0,0,1-.8.849,2.971,2.971,0,0,1-1.12.448,4.108,4.108,0,0,1-1.355.016,4.043,4.043,0,0,1-1-.272,2.077,2.077,0,0,1-.792-.577,4.988,4.988,0,0,1-.639.271,3.89,3.89,0,0,1-.668.165,5.439,5.439,0,0,1-.1-1.034,7.52,7.52,0,0,1,.078-1.052q.053-.368.125-.72t.181-.712l.922.132a3.961,3.961,0,0,0-.016.967,2.849,2.849,0,0,0,.263.942,2.142,2.142,0,0,0,.608.759,2.031,2.031,0,0,0,1.005.4A3.108,3.108,0,0,0,195.7,58a1.644,1.644,0,0,0,.657-.246,1.281,1.281,0,0,0,.41-.44,1.639,1.639,0,0,0,.19-.573,1.337,1.337,0,0,0-.136-.866,1.742,1.742,0,0,0-.76-.652q-.823-.422-1.5-.815a5.426,5.426,0,0,1-1.155-.874,2.993,2.993,0,0,1-.693-1.076,2.869,2.869,0,0,1-.1-1.4,2.5,2.5,0,0,1,1.141-1.8,2.766,2.766,0,0,1,1-.385,3.589,3.589,0,0,1,1.152-.016,2.747,2.747,0,0,1,.978.336,1.827,1.827,0,0,1,.716.76,1.272,1.272,0,0,1,.52-.4,2.384,2.384,0,0,1,.634-.184,6.45,6.45,0,0,1,.042,1.576q-.073.866-.183,1.63Z" transform="translate(-134.694 -34.315)" fill="#fff"/>
  <path id="Tracé_15845" data-name="Tracé 15845" d="M233.752,67.47a5.554,5.554,0,0,1-1.317,1.741,4.452,4.452,0,0,1-1.661.916,4.554,4.554,0,0,1-1.867.136,5.971,5.971,0,0,1-1.944-.617,6.516,6.516,0,0,1-1.6-1.124,4.241,4.241,0,0,1-1.01-1.492,4.09,4.09,0,0,1-.256-1.84,5.77,5.77,0,0,1,.66-2.155,6.069,6.069,0,0,1,1.346-1.831,4.009,4.009,0,0,1,3.435-.994,6.543,6.543,0,0,1,1.886.636,6.19,6.19,0,0,1,1.616,1.166,4.59,4.59,0,0,1,1.022,1.546,4.324,4.324,0,0,1,.284,1.847,5.2,5.2,0,0,1-.6,2.066m-6.361,1.59a2.06,2.06,0,0,0,2.343-.171,4.384,4.384,0,0,0,.948-1.014,11.786,11.786,0,0,0,.838-1.417,11.593,11.593,0,0,0,.625-1.469,4.538,4.538,0,0,0,.266-1.409,2.465,2.465,0,0,0-.3-1.236,2.4,2.4,0,0,0-1.073-.955,2.1,2.1,0,0,0-1.281-.263,2.185,2.185,0,0,0-1.063.5,4.575,4.575,0,0,0-.9,1.041,15.194,15.194,0,0,0-.788,1.378,11.815,11.815,0,0,0-.663,1.561,4.437,4.437,0,0,0-.256,1.406,2.14,2.14,0,0,0,1.3,2.049" transform="translate(-157.537 -42.283)" fill="#fff"/>
  <path id="Tracé_15846" data-name="Tracé 15846" d="M261.953,94.39a1.091,1.091,0,0,1-.431.219,1.828,1.828,0,0,1-.632.062,2.308,2.308,0,0,1-.712-.165,1.755,1.755,0,0,1-.652-.461,2.433,2.433,0,0,1-.677-1.146,1.336,1.336,0,0,1,.132-.876q.421-.792.776-1.424a8.876,8.876,0,0,0,.55-1.151,2.333,2.333,0,0,0,.175-.935,1.254,1.254,0,0,0-.358-.787q-.184-.2-.306-.186l-2.223,2.026q-.614.559.245,1.5l-.444.405-3.319-3.641.444-.405q.83.91,1.444.351l4.9-4.467q.592-.541-.3-1.525l.466-.425,1.514,1.662q.319.349.546.588t.479.493q.252.256.571.595t.8.869a3.843,3.843,0,0,1,.722,1.067,2.373,2.373,0,0,1,.208.984,1.894,1.894,0,0,1-.233.872,2.9,2.9,0,0,1-.6.753,1.951,1.951,0,0,1-1.672.517,3.877,3.877,0,0,1-1.928-.976,7.387,7.387,0,0,1,.471.772,2.24,2.24,0,0,1,.229.644,1.685,1.685,0,0,1,0,.593,2.9,2.9,0,0,1-.19.609,5.92,5.92,0,0,1-.459.844q-.256.388-.438.72a2.42,2.42,0,0,0-.244.591.494.494,0,0,0,.13.472q.212.233.815-.084Zm-1.138-6.966a4.41,4.41,0,0,0,.505.48,1.115,1.115,0,0,0,.527.236,1.149,1.149,0,0,0,.63-.11,3.158,3.158,0,0,0,.805-.568,2.444,2.444,0,0,0,.534-.652,1.329,1.329,0,0,0,.166-.6,1.166,1.166,0,0,0-.131-.549,2.321,2.321,0,0,0-.357-.508l-.193-.212q-.289-.317-.81.157l-1.966,1.793a.21.21,0,0,0,.048.267Z" transform="translate(-178.623 -57.199)" fill="#fff"/>
  <path id="Tracé_15847" data-name="Tracé 15847" d="M91.383,268.512a.484.484,0,0,0,.25-.519l.082-.026a.184.184,0,0,0,.129-.119c.028-.087-.014-.174-.109-.31a1.835,1.835,0,0,0,.634-.505,1.607,1.607,0,0,0,.377-.715.225.225,0,0,0-.107-.251.172.172,0,0,0-.056-.017.337.337,0,0,0-.02-.287,2.277,2.277,0,0,0,.385-.63c.093-.215.23-.607.116-.818-.044-.081-.156-.2-.424-.1a2.462,2.462,0,0,0,.175-1.4.291.291,0,0,0-.121-.214.244.244,0,0,0-.088-.034.625.625,0,0,0-.244-.526h0a.625.625,0,0,0-.571-.1.236.236,0,0,0-.056-.076.288.288,0,0,0-.238-.062,2.462,2.462,0,0,0-1.31.531c.022-.284-.12-.362-.209-.383-.234-.056-.577.178-.761.323a2.28,2.28,0,0,0-.509.535.339.339,0,0,0-.283.055.172.172,0,0,0-.031-.05.225.225,0,0,0-.27-.038,1.6,1.6,0,0,0-.594.549,1.839,1.839,0,0,0-.325.743c-.156-.057-.25-.075-.328-.025a.185.185,0,0,0-.081.155c0,.029,0,.057,0,.086a.486.486,0,0,0-.437.375,1.4,1.4,0,0,0-.114.862.262.262,0,0,0-.18.043c-.111.077-.151.233-.121.476.009.071.015.139.022.206a1.6,1.6,0,0,0,.307.946,1.552,1.552,0,0,0,.2.2,2.094,2.094,0,0,0,.871,1.206,2.008,2.008,0,0,0,1.369.515,1.524,1.524,0,0,0,.247.142,1.6,1.6,0,0,0,.993.053l.2-.031c.243-.034.383-.113.429-.24a.259.259,0,0,0,0-.185,1.4,1.4,0,0,0,.8-.333m-.128-.183c-.329.23-.625.4-.923.2-.067-.076-.132-.154-.2-.235a7.283,7.283,0,0,0,1.283-.241c.013.1-.041.186-.163.272m.36-.565a7.033,7.033,0,0,1-1.642.324,9.078,9.078,0,0,1-.867-1.449,8.978,8.978,0,0,0,1.741-.044,7.474,7.474,0,0,0,.6.931,2.694,2.694,0,0,1,.165.238m-3.75.124a4.968,4.968,0,0,1-.462-.97,6.355,6.355,0,0,1-.221-.755,9.639,9.639,0,0,0,1.663.449,9.636,9.636,0,0,0,.862,1.491,6.426,6.426,0,0,1-.786-.019,4.967,4.967,0,0,1-1.056-.2m.7-4.86c.027-.024.113-.007.2.011l.1.018a6.9,6.9,0,0,0,1.066.1,9.063,9.063,0,0,0,.187,1.506,7.871,7.871,0,0,1-1.573-.168c-.015-.118-.026-.232-.036-.34h0c-.016-.28-.06-1.022.055-1.122m3.046-.019a8.463,8.463,0,0,0,.236,1.443,9.072,9.072,0,0,1-1.5.2,9.032,9.032,0,0,1-.191-1.5,8.488,8.488,0,0,0,1.455-.144m.7,2.753c.041.083.08.162.064.195-.067.136-.8.286-1.07.342h0q-.161.029-.338.053a7.873,7.873,0,0,1-.568-1.476,9.042,9.042,0,0,0,1.5-.208,6.917,6.917,0,0,0,.367,1l.042.089m-2.142-.88a8.215,8.215,0,0,0,.562,1.5,8.7,8.7,0,0,1-1.734.025,8.721,8.721,0,0,1-.423-1.681,8.219,8.219,0,0,0,1.594.157m2.352,1.389a.658.658,0,0,1-.09.265,1.787,1.787,0,0,1-.837.816,7.179,7.179,0,0,1-.515-.79c.45-.066.817-.153,1.084-.216.144-.034.292-.069.358-.075m.167-1.841c.045-.018.152-.054.176-.01a.967.967,0,0,1-.125.624,2.3,2.3,0,0,1-.284.5,6.678,6.678,0,0,1-.335-.927,5.336,5.336,0,0,0,.568-.185m-.119-1.647c.005,0,.016.019.021.058a2.073,2.073,0,0,1-.285,1.487c-.08.025-.161.049-.243.07a8.435,8.435,0,0,1-.232-1.427c.078-.023.216-.062.578-.164l.02-.005c.039-.011.119-.034.141-.02m-.347-.571a.4.4,0,0,1,.155.373l-.01,0-.018.005c-.232.065-.408.115-.537.153,0-.135.007-.317.009-.558v-.019s0-.007,0-.01a.4.4,0,0,1,.4.053m-.7-.194c.039,0,.057,0,.062.005s.018.1.017.142v.02c0,.318-.007.5-.01.6a8.448,8.448,0,0,1-1.438.143c0-.084,0-.168.005-.253a2.072,2.072,0,0,1,1.364-.659m-2.167.424c.282-.222.489-.3.57-.282.049.012.042.125.036.173a5.259,5.259,0,0,0-.032.6,6.684,6.684,0,0,1-.983-.084,2.324,2.324,0,0,1,.408-.4m-1.362.681a.649.649,0,0,1,.233-.155c.011.066.015.218.02.366.008.274.019.651.07,1.1a7.07,7.07,0,0,1-.9-.294,1.784,1.784,0,0,1,.573-1.019m-.7,1.208a7.419,7.419,0,0,0,1.056.343,8.944,8.944,0,0,0,.405,1.694,9.077,9.077,0,0,1-1.624-.464,7.052,7.052,0,0,1-.11-1.67,2.7,2.7,0,0,1,.273.1m-.725.4c.051-.14.124-.215.221-.228a7.286,7.286,0,0,0,.1,1.3q-.142-.063-.277-.13c-.269-.236-.178-.567-.041-.944m-.381,1.487c-.007-.067-.014-.137-.023-.21-.027-.225.025-.264.027-.266s.061,0,.091.015l.048.026q.287.154.6.286A6.728,6.728,0,0,0,87.2,267a5.834,5.834,0,0,0,.327.741c-1.24-.559-1.276-.917-1.338-1.53m.579,1.383a6.487,6.487,0,0,0,.959.476,6.444,6.444,0,0,0,.711.807,2.316,2.316,0,0,1-.956-.467,2.44,2.44,0,0,1-.715-.817m3.361,1.451-.208.032c-.608.1-.963.155-1.823-.9a5.889,5.889,0,0,0,.8.125,6.76,6.76,0,0,0,.975.013q.21.273.433.511l.037.039c.023.025.044.066.037.085,0,0-.025.062-.25.094" transform="translate(-60.411 -184.048)" fill="#fff"/>
  <path id="Tracé_15848" data-name="Tracé 15848" d="M91.383,268.512a.484.484,0,0,0,.25-.519l.082-.026a.184.184,0,0,0,.129-.119c.028-.087-.014-.174-.109-.31a1.835,1.835,0,0,0,.634-.505,1.607,1.607,0,0,0,.377-.715.225.225,0,0,0-.107-.251.172.172,0,0,0-.056-.017.337.337,0,0,0-.02-.287,2.277,2.277,0,0,0,.385-.63c.093-.215.23-.607.116-.818-.044-.081-.156-.2-.424-.1a2.462,2.462,0,0,0,.175-1.4.291.291,0,0,0-.121-.214.244.244,0,0,0-.088-.034.625.625,0,0,0-.244-.526h0a.625.625,0,0,0-.571-.1.236.236,0,0,0-.056-.076.288.288,0,0,0-.238-.062,2.462,2.462,0,0,0-1.31.531c.022-.284-.12-.362-.209-.383-.234-.056-.577.178-.761.323a2.28,2.28,0,0,0-.509.535.339.339,0,0,0-.283.055.172.172,0,0,0-.031-.05.225.225,0,0,0-.27-.038,1.6,1.6,0,0,0-.594.549,1.839,1.839,0,0,0-.325.743c-.156-.057-.25-.075-.328-.025a.185.185,0,0,0-.081.155c0,.029,0,.057,0,.086a.486.486,0,0,0-.437.375,1.4,1.4,0,0,0-.114.862.262.262,0,0,0-.18.043c-.111.077-.151.233-.121.476.009.071.015.139.022.206a1.6,1.6,0,0,0,.307.946,1.552,1.552,0,0,0,.2.2,2.094,2.094,0,0,0,.871,1.206,2.008,2.008,0,0,0,1.369.515,1.524,1.524,0,0,0,.247.142,1.6,1.6,0,0,0,.993.053l.2-.031c.243-.034.383-.113.429-.24a.259.259,0,0,0,0-.185A1.4,1.4,0,0,0,91.383,268.512Zm-.128-.183c-.329.23-.625.4-.923.2-.067-.076-.132-.154-.2-.235a7.283,7.283,0,0,0,1.283-.241C91.43,268.155,91.376,268.244,91.255,268.329Zm.36-.565a7.033,7.033,0,0,1-1.642.324,9.078,9.078,0,0,1-.867-1.449,8.978,8.978,0,0,0,1.741-.044,7.474,7.474,0,0,0,.6.931A2.694,2.694,0,0,1,91.614,267.764Zm-3.75.124a4.968,4.968,0,0,1-.462-.97,6.355,6.355,0,0,1-.221-.755,9.639,9.639,0,0,0,1.663.449,9.636,9.636,0,0,0,.862,1.491,6.426,6.426,0,0,1-.786-.019A4.967,4.967,0,0,1,87.864,267.888Zm.7-4.86c.027-.024.113-.007.2.011l.1.018a6.9,6.9,0,0,0,1.066.1,9.063,9.063,0,0,0,.187,1.506,7.871,7.871,0,0,1-1.573-.168c-.015-.118-.026-.232-.036-.34h0C88.5,263.871,88.452,263.128,88.567,263.028Zm3.046-.019a8.463,8.463,0,0,0,.236,1.443,9.072,9.072,0,0,1-1.5.2,9.032,9.032,0,0,1-.191-1.5A8.488,8.488,0,0,0,91.612,263.009Zm.7,2.753c.041.083.08.162.064.195-.067.136-.8.286-1.07.342h0q-.161.029-.338.053a7.873,7.873,0,0,1-.568-1.476,9.042,9.042,0,0,0,1.5-.208,6.917,6.917,0,0,0,.367,1Zm-2.142-.88a8.215,8.215,0,0,0,.562,1.5,8.7,8.7,0,0,1-1.734.025,8.721,8.721,0,0,1-.423-1.681A8.219,8.219,0,0,0,90.173,264.883Zm2.352,1.389a.658.658,0,0,1-.09.265,1.787,1.787,0,0,1-.837.816,7.179,7.179,0,0,1-.515-.79c.45-.066.817-.153,1.084-.216C92.311,266.312,92.458,266.277,92.525,266.271Zm.167-1.841c.045-.018.152-.054.176-.01a.967.967,0,0,1-.125.624,2.3,2.3,0,0,1-.284.5,6.678,6.678,0,0,1-.335-.927A5.336,5.336,0,0,0,92.692,264.43Zm-.119-1.647c.005,0,.016.019.021.058a2.073,2.073,0,0,1-.285,1.487c-.08.025-.161.049-.243.07a8.435,8.435,0,0,1-.232-1.427c.078-.023.216-.062.578-.164l.02-.005C92.47,262.791,92.551,262.768,92.573,262.783Zm-.347-.571a.4.4,0,0,1,.155.373l-.01,0-.018.005c-.232.065-.408.115-.537.153,0-.135.007-.317.009-.558v-.019s0-.007,0-.01A.4.4,0,0,1,92.225,262.211Zm-.7-.194c.039,0,.057,0,.062.005s.018.1.017.142v.02c0,.318-.007.5-.01.6a8.448,8.448,0,0,1-1.438.143c0-.084,0-.168.005-.253A2.072,2.072,0,0,1,91.522,262.017Zm-2.167.424c.282-.222.489-.3.57-.282.049.012.042.125.036.173a5.259,5.259,0,0,0-.032.6,6.684,6.684,0,0,1-.983-.084A2.324,2.324,0,0,1,89.355,262.442Zm-1.362.681a.649.649,0,0,1,.233-.155c.011.066.015.218.02.366.008.274.019.651.07,1.1a7.07,7.07,0,0,1-.9-.294A1.784,1.784,0,0,1,87.993,263.123Zm-.7,1.208a7.419,7.419,0,0,0,1.056.343,8.944,8.944,0,0,0,.405,1.694,9.077,9.077,0,0,1-1.624-.464,7.052,7.052,0,0,1-.11-1.67A2.7,2.7,0,0,1,87.29,264.331Zm-.725.4c.051-.14.124-.215.221-.228a7.286,7.286,0,0,0,.1,1.3q-.142-.063-.277-.13C86.336,265.434,86.427,265.1,86.565,264.727Zm-.381,1.487c-.007-.067-.014-.137-.023-.21-.027-.225.025-.264.027-.266s.061,0,.091.015l.048.026q.287.154.6.286A6.728,6.728,0,0,0,87.2,267a5.834,5.834,0,0,0,.327.741C86.283,267.185,86.246,266.827,86.184,266.214Zm.579,1.383a6.487,6.487,0,0,0,.959.476,6.444,6.444,0,0,0,.711.807,2.316,2.316,0,0,1-.956-.467A2.44,2.44,0,0,1,86.763,267.6Zm3.361,1.451-.208.032c-.608.1-.963.155-1.823-.9a5.889,5.889,0,0,0,.8.125,6.76,6.76,0,0,0,.975.013q.21.273.433.511l.037.039c.023.025.044.066.037.085C90.373,268.957,90.349,269.017,90.124,269.048Z" transform="translate(-60.411 -184.048)" fill="none" stroke="#fff" stroke-miterlimit="10" stroke-width="0.392"/>
  <path id="Tracé_15849" data-name="Tracé 15849" d="M265.544,267.792a.261.261,0,0,0,0,.185c.046.127.186.205.429.24.071.01.139.021.2.031a1.6,1.6,0,0,0,.993-.053,1.551,1.551,0,0,0,.247-.142,2.009,2.009,0,0,0,1.369-.515,2.091,2.091,0,0,0,.871-1.206,1.554,1.554,0,0,0,.2-.2,1.6,1.6,0,0,0,.308-.946c.007-.066.014-.135.022-.206.029-.243-.01-.4-.121-.476a.262.262,0,0,0-.181-.043,1.4,1.4,0,0,0-.114-.862.486.486,0,0,0-.437-.375c0-.028,0-.057,0-.086a.184.184,0,0,0-.081-.155c-.077-.05-.172-.031-.327.025a1.843,1.843,0,0,0-.325-.743,1.6,1.6,0,0,0-.594-.549.225.225,0,0,0-.27.038.177.177,0,0,0-.031.05.338.338,0,0,0-.283-.055,2.282,2.282,0,0,0-.509-.535c-.184-.145-.527-.379-.76-.323-.089.021-.231.1-.209.383a2.461,2.461,0,0,0-1.31-.531.288.288,0,0,0-.238.062.24.24,0,0,0-.056.076.624.624,0,0,0-.571.1h0a.623.623,0,0,0-.244.526.24.24,0,0,0-.088.034.29.29,0,0,0-.121.214,2.461,2.461,0,0,0,.176,1.4c-.268-.095-.381.023-.424.1-.114.211.024.6.116.818a2.277,2.277,0,0,0,.385.63.338.338,0,0,0-.02.287.173.173,0,0,0-.056.017.225.225,0,0,0-.107.251,1.6,1.6,0,0,0,.377.715,1.839,1.839,0,0,0,.634.505c-.1.136-.137.222-.109.31a.185.185,0,0,0,.129.119l.082.026a.485.485,0,0,0,.25.519,1.4,1.4,0,0,0,.8.333m-.838-.788a7.26,7.26,0,0,0,1.283.242c-.065.081-.13.159-.2.234-.3.2-.594.026-.923-.2-.122-.085-.175-.175-.163-.272m-.032-.531a7.474,7.474,0,0,0,.6-.932,8.926,8.926,0,0,0,1.741.045,9.08,9.08,0,0,1-.867,1.449,7.036,7.036,0,0,1-1.642-.324,2.661,2.661,0,0,1,.165-.238m2.529.558a6.5,6.5,0,0,1-.787.019,9.632,9.632,0,0,0,.862-1.491,9.634,9.634,0,0,0,1.663-.449,6.491,6.491,0,0,1-.221.755,4.962,4.962,0,0,1-.462.97,4.977,4.977,0,0,1-1.056.2m.409-3.935h0c-.01.108-.021.222-.036.34a7.881,7.881,0,0,1-1.573.168,9.036,9.036,0,0,0,.187-1.506,6.942,6.942,0,0,0,1.065-.1l.1-.018c.091-.018.177-.035.2-.011.114.1.071.842.055,1.122m-1.646-1a9.065,9.065,0,0,1-.191,1.5,9.1,9.1,0,0,1-1.5-.2,8.465,8.465,0,0,0,.235-1.443,8.5,8.5,0,0,0,1.455.144m-2.116,2.52a6.913,6.913,0,0,0,.367-1,9.076,9.076,0,0,0,1.5.208,7.892,7.892,0,0,1-.568,1.476c-.118-.016-.231-.034-.338-.053h0c-.274-.056-1-.206-1.07-.342-.016-.032.023-.111.064-.195.014-.028.028-.057.042-.089m3.694-.948a8.7,8.7,0,0,1-.423,1.681,8.7,8.7,0,0,1-1.734-.025,8.214,8.214,0,0,0,.563-1.5,8.216,8.216,0,0,0,1.594-.157m-3.588,1.62c.267.063.633.15,1.083.216a7.179,7.179,0,0,1-.515.79,1.787,1.787,0,0,1-.837-.816.651.651,0,0,1-.089-.265c.067.006.214.041.358.075m.042-1.731a6.662,6.662,0,0,1-.335.928,2.329,2.329,0,0,1-.284-.5.969.969,0,0,1-.125-.624c.024-.044.131-.008.176.01a5.322,5.322,0,0,0,.568.185m-.307-1.812.02.005c.362.1.5.14.578.164a8.486,8.486,0,0,1-.233,1.427c-.081-.022-.162-.045-.242-.07a2.073,2.073,0,0,1-.285-1.487c.006-.039.016-.055.021-.058.022-.015.1.009.141.02m.607-.644v.029c0,.241.006.423.009.558-.129-.038-.3-.088-.537-.153l-.018-.005-.01,0a.4.4,0,0,1,.556-.426m1.666.518q.006.127.006.253a8.452,8.452,0,0,1-1.439-.143c0-.1-.006-.283-.009-.6v-.02c0-.04,0-.124.018-.142s.023-.01.062-.005a2.072,2.072,0,0,1,1.363.659m1.212.168a6.683,6.683,0,0,1-.983.084,5.336,5.336,0,0,0-.032-.6c-.006-.048-.013-.161.036-.173.081-.019.289.06.57.282a2.325,2.325,0,0,1,.408.4m1.527,1.3a7.2,7.2,0,0,1-.9.294c.052-.452.062-.829.07-1.1,0-.148.009-.3.02-.366a.653.653,0,0,1,.233.155,1.787,1.787,0,0,1,.573,1.019m.4.091a7.038,7.038,0,0,1-.11,1.67,9.106,9.106,0,0,1-1.624.464,8.971,8.971,0,0,0,.405-1.694,7.473,7.473,0,0,0,1.056-.343,2.709,2.709,0,0,1,.272-.1m.412,1.437c-.09.045-.182.089-.277.13a7.259,7.259,0,0,0,.1-1.3c.1.013.17.088.221.228.137.377.228.708-.041.944m-.917,2.074a5.784,5.784,0,0,0,.327-.741,6.728,6.728,0,0,0,.264-.938q.318-.132.6-.287l.048-.026c.031-.016.075-.026.091-.015s.054.041.027.266c-.009.073-.016.143-.023.21-.063.613-.1.97-1.339,1.53m.045.67a2.316,2.316,0,0,1-.956.467,6.471,6.471,0,0,0,.711-.807,6.469,6.469,0,0,0,.959-.476,2.436,2.436,0,0,1-.714.817m-2.9.54c-.007-.018.015-.059.037-.084l.037-.04q.223-.237.433-.511a6.7,6.7,0,0,0,.975-.013,5.786,5.786,0,0,0,.8-.125c-.86,1.054-1.215,1-1.823.9L266,268c-.225-.032-.249-.092-.25-.094" transform="translate(-184.908 -183.308)" fill="#fff"/>
  <path id="Tracé_15850" data-name="Tracé 15850" d="M265.544,267.792a.261.261,0,0,0,0,.185c.046.127.186.205.429.24.071.01.139.021.2.031a1.6,1.6,0,0,0,.993-.053,1.551,1.551,0,0,0,.247-.142,2.009,2.009,0,0,0,1.369-.515,2.091,2.091,0,0,0,.871-1.206,1.554,1.554,0,0,0,.2-.2,1.6,1.6,0,0,0,.308-.946c.007-.066.014-.135.022-.206.029-.243-.01-.4-.121-.476a.262.262,0,0,0-.181-.043,1.4,1.4,0,0,0-.114-.862.486.486,0,0,0-.437-.375c0-.028,0-.057,0-.086a.184.184,0,0,0-.081-.155c-.077-.05-.172-.031-.327.025a1.843,1.843,0,0,0-.325-.743,1.6,1.6,0,0,0-.594-.549.225.225,0,0,0-.27.038.177.177,0,0,0-.031.05.338.338,0,0,0-.283-.055,2.282,2.282,0,0,0-.509-.535c-.184-.145-.527-.379-.76-.323-.089.021-.231.1-.209.383a2.461,2.461,0,0,0-1.31-.531.288.288,0,0,0-.238.062.24.24,0,0,0-.056.076.624.624,0,0,0-.571.1h0a.623.623,0,0,0-.244.526.24.24,0,0,0-.088.034.29.29,0,0,0-.121.214,2.461,2.461,0,0,0,.176,1.4c-.268-.095-.381.023-.424.1-.114.211.024.6.116.818a2.277,2.277,0,0,0,.385.63.338.338,0,0,0-.02.287.173.173,0,0,0-.056.017.225.225,0,0,0-.107.251,1.6,1.6,0,0,0,.377.715,1.839,1.839,0,0,0,.634.505c-.1.136-.137.222-.109.31a.185.185,0,0,0,.129.119l.082.026a.485.485,0,0,0,.25.519A1.4,1.4,0,0,0,265.544,267.792Zm-.838-.788a7.26,7.26,0,0,0,1.283.242c-.065.081-.13.159-.2.234-.3.2-.594.026-.923-.2C264.746,267.191,264.693,267.1,264.705,267Zm-.032-.531a7.474,7.474,0,0,0,.6-.932,8.926,8.926,0,0,0,1.741.045,9.08,9.08,0,0,1-.867,1.449,7.036,7.036,0,0,1-1.642-.324A2.661,2.661,0,0,1,264.673,266.473Zm2.529.558a6.5,6.5,0,0,1-.787.019,9.632,9.632,0,0,0,.862-1.491,9.634,9.634,0,0,0,1.663-.449,6.491,6.491,0,0,1-.221.755,4.962,4.962,0,0,1-.462.97A4.977,4.977,0,0,1,267.2,267.032Zm.409-3.935h0c-.01.108-.021.222-.036.34a7.881,7.881,0,0,1-1.573.168,9.036,9.036,0,0,0,.187-1.506,6.942,6.942,0,0,0,1.065-.1l.1-.018c.091-.018.177-.035.2-.011C267.67,262.075,267.627,262.818,267.611,263.1Zm-1.646-1a9.065,9.065,0,0,1-.191,1.5,9.1,9.1,0,0,1-1.5-.2,8.465,8.465,0,0,0,.235-1.443A8.5,8.5,0,0,0,265.966,262.1Zm-2.116,2.52a6.913,6.913,0,0,0,.367-1,9.076,9.076,0,0,0,1.5.208,7.892,7.892,0,0,1-.568,1.476c-.118-.016-.231-.034-.338-.053h0c-.274-.056-1-.206-1.07-.342-.016-.032.023-.111.064-.195C263.821,264.681,263.835,264.652,263.849,264.621Zm3.694-.948a8.7,8.7,0,0,1-.423,1.681,8.7,8.7,0,0,1-1.734-.025,8.214,8.214,0,0,0,.563-1.5A8.216,8.216,0,0,0,267.544,263.673Zm-3.588,1.62c.267.063.633.15,1.083.216a7.179,7.179,0,0,1-.515.79,1.787,1.787,0,0,1-.837-.816.651.651,0,0,1-.089-.265C263.664,265.224,263.812,265.259,263.956,265.293Zm.042-1.731a6.662,6.662,0,0,1-.335.928,2.329,2.329,0,0,1-.284-.5.969.969,0,0,1-.125-.624c.024-.044.131-.008.176.01A5.322,5.322,0,0,0,264,263.562Zm-.307-1.812.02.005c.362.1.5.14.578.164a8.486,8.486,0,0,1-.233,1.427c-.081-.022-.162-.045-.242-.07a2.073,2.073,0,0,1-.285-1.487c.006-.039.016-.055.021-.058C263.572,261.715,263.652,261.738,263.691,261.749Zm.607-.644v.029c0,.241.006.423.009.558-.129-.038-.3-.088-.537-.153l-.018-.005-.01,0a.4.4,0,0,1,.556-.426Zm1.666.518q.006.127.006.253a8.452,8.452,0,0,1-1.439-.143c0-.1-.006-.283-.009-.6v-.02c0-.04,0-.124.018-.142s.023-.01.062-.005A2.072,2.072,0,0,1,265.964,261.623Zm1.212.168a6.683,6.683,0,0,1-.983.084,5.336,5.336,0,0,0-.032-.6c-.006-.048-.013-.161.036-.173.081-.019.289.06.57.282A2.325,2.325,0,0,1,267.176,261.791Zm1.527,1.3a7.2,7.2,0,0,1-.9.294c.052-.452.062-.829.07-1.1,0-.148.009-.3.02-.366a.653.653,0,0,1,.233.155A1.787,1.787,0,0,1,268.7,263.089Zm.4.091a7.038,7.038,0,0,1-.11,1.67,9.106,9.106,0,0,1-1.624.464,8.971,8.971,0,0,0,.405-1.694,7.473,7.473,0,0,0,1.056-.343A2.709,2.709,0,0,1,269.105,263.18Zm.412,1.437c-.09.045-.182.089-.277.13a7.259,7.259,0,0,0,.1-1.3c.1.013.17.088.221.228C269.7,264.05,269.787,264.381,269.517,264.617Zm-.917,2.074a5.784,5.784,0,0,0,.327-.741,6.728,6.728,0,0,0,.264-.938q.318-.132.6-.287l.048-.026c.031-.016.075-.026.091-.015s.054.041.027.266c-.009.073-.016.143-.023.21C269.876,265.774,269.84,266.132,268.6,266.691Zm.045.67a2.316,2.316,0,0,1-.956.467,6.471,6.471,0,0,0,.711-.807,6.469,6.469,0,0,0,.959-.476A2.436,2.436,0,0,1,268.645,267.361Zm-2.9.54c-.007-.018.015-.059.037-.084l.037-.04q.223-.237.433-.511a6.7,6.7,0,0,0,.975-.013,5.786,5.786,0,0,0,.8-.125c-.86,1.054-1.215,1-1.823.9L266,268C265.774,267.964,265.75,267.9,265.749,267.9Z" transform="translate(-184.908 -183.308)" fill="none" stroke="#fff" stroke-miterlimit="10" stroke-width="0.392"/>
  <path id="Tracé_15851" data-name="Tracé 15851" d="M78.287,32.406A45.881,45.881,0,1,1,45.844,45.844,45.881,45.881,0,0,1,78.287,32.406m31.834,14.047a45.021,45.021,0,1,0,13.186,31.834,45.02,45.02,0,0,0-13.186-31.834" transform="translate(-22.782 -22.782)" fill="#fff" fill-rule="evenodd"/>
  <path id="Tracé_15852" data-name="Tracé 15852" d="M123.754,97.078a26.676,26.676,0,1,1-18.862,7.814,26.676,26.676,0,0,1,18.862-7.814" transform="translate(-68.25 -68.249)" fill="none" stroke="#fff" stroke-miterlimit="10" stroke-width="2.352"/>
  <path id="Tracé_15853" data-name="Tracé 15853" d="M225.71,144.424l.018-.025c.173-.283.351-.575.529-.842a3.645,3.645,0,0,1,3.092-1.977h.107a2.665,2.665,0,0,1,2.345,1.3,2.525,2.525,0,0,1,.13,2.179,2.351,2.351,0,0,1-1.422,1.324,2.023,2.023,0,0,1-.667.113,1.906,1.906,0,0,1-1.776-1.145,1.187,1.187,0,0,1,.1-1.027,1.5,1.5,0,0,1,.776-.686,1.332,1.332,0,0,1,.9.054.969.969,0,0,1,.546.518.876.876,0,0,1-.161.857.387.387,0,0,0-.1-.085.421.421,0,0,0-.543.095.338.338,0,0,0-.059.268.359.359,0,0,0,.163.234.515.515,0,0,0,.264.067.479.479,0,0,0,.077-.005,1.042,1.042,0,0,0,.76-.685,1.242,1.242,0,0,0,.009-.9,1.391,1.391,0,0,0-.778-.746,1.864,1.864,0,0,0-.725-.146,1.588,1.588,0,0,0-.515.081,1.824,1.824,0,0,0-1.139,2.245,2.358,2.358,0,0,0,2.2,1.412,2.476,2.476,0,0,0,.816-.138,2.775,2.775,0,0,0,1.682-1.562,2.941,2.941,0,0,0-.15-2.521,3.11,3.11,0,0,0-2.728-1.524h-.127a4.033,4.033,0,0,0-3.459,2.173l0,0c-.19.28-.384.6-.558.888a7.3,7.3,0,0,1-2.257,2.656q.05.211.1.421a7.256,7.256,0,0,0,2.542-2.882" transform="translate(-156.821 -99.244)" fill="#fff"/>
  <path id="Tracé_15854" data-name="Tracé 15854" d="M227.515,165.933a.216.216,0,0,0,.18.2.23.23,0,0,0,.247-.127c1.075-2.368.559-4.442-1.622-6.526a.216.216,0,0,0-.151-.065.228.228,0,0,0-.164.059.2.2,0,0,0-.017.276l.014.014c1.759,1.686,2.358,3.326,1.872,5.145a4.324,4.324,0,0,0-3.227-3.5l-.016,0c.051.162.107.324.162.486a3.985,3.985,0,0,1,2.722,4.041" transform="translate(-157.923 -112.077)" fill="#fff"/>
  <path id="Tracé_15855" data-name="Tracé 15855" d="M213.038,115.6a5.441,5.441,0,0,1,3.688-1.507,4.415,4.415,0,0,1,1.335.2,3.769,3.769,0,0,1,2.251,1.847,2.621,2.621,0,0,1,.128,2.159,2.9,2.9,0,0,1-1.553,1.616,2.528,2.528,0,0,1-1.031.218,2.427,2.427,0,0,1-2.16-1.259,1.614,1.614,0,0,1-.08-1.324,1.777,1.777,0,0,1,.958-.992,1.592,1.592,0,0,1,.647-.125,1.884,1.884,0,0,1,.441.051,1.469,1.469,0,0,1,.72.4.37.37,0,0,0-.181.172.355.355,0,0,0,.174.472l.016.007a.4.4,0,0,0,.3.011.369.369,0,0,0,.221-.187.606.606,0,0,0,.013-.386,1.521,1.521,0,0,0-1.145-.884,2.278,2.278,0,0,0-1.4.1,2.191,2.191,0,0,0-1.181,1.224,2,2,0,0,0,.1,1.643,2.882,2.882,0,0,0,2.56,1.492,2.988,2.988,0,0,0,1.221-.258,3.147,3.147,0,0,0,1.634-4.323,4.189,4.189,0,0,0-2.508-2.06,4.874,4.874,0,0,0-1.478-.223,5.9,5.9,0,0,0-4.01,1.632c-.082.08-.161.163-.237.248q.142.167.277.339c.089-.1.181-.2.28-.3" transform="translate(-149.381 -79.924)" fill="#fff"/>
  <path id="Tracé_15856" data-name="Tracé 15856" d="M222.038,152.941l.161.138a.229.229,0,0,0,.149.052.238.238,0,0,0,.166-.066.2.2,0,0,0-.01-.287l-.008-.007-.66-.552a2.626,2.626,0,0,1-.282-.26q.039.323.087.647l.4.335" transform="translate(-155.759 -106.833)" fill="#fff"/>
  <path id="Tracé_15857" data-name="Tracé 15857" d="M220.78,138.779a.267.267,0,0,0,0-.242.275.275,0,0,0-.09-.114c.019.145.037.289.051.436.013-.027.024-.054.037-.08" transform="translate(-155.153 -97.316)" fill="#fff"/>
  <path id="Tracé_15858" data-name="Tracé 15858" d="M241.323,168.845h0a5.173,5.173,0,0,0-3.739,3.518.277.277,0,0,0-.011.064.208.208,0,0,0,.159.2.234.234,0,0,0,.063.01.3.3,0,0,0,.107-.024.207.207,0,0,0,.106-.126,5.26,5.26,0,0,1,1.718-2.463.689.689,0,0,0,.237.391.826.826,0,0,0,.966.025,1.358,1.358,0,0,0,.331-.316,2.612,2.612,0,0,0,.2-.337l.018-.034a.9.9,0,0,1,.452-.495.831.831,0,0,1,.329-.062,1.758,1.758,0,0,1,.471.078,1.133,1.133,0,0,1,.469.244.623.623,0,0,1,.2.509.44.44,0,0,1-.163.325.507.507,0,0,1-.273.123.341.341,0,0,0,.007-.046.332.332,0,0,0-.091-.26.4.4,0,0,0-.55-.043.352.352,0,0,0-.136.245c-.021.247.2.409.426.478a.851.851,0,0,0,.23.039.168.168,0,0,0,.042,0,.92.92,0,0,0,.95-.854,1,1,0,0,0-.322-.812,1.808,1.808,0,0,0-.989-.419,3.852,3.852,0,0,0-1.207.037m-.218.682h0l-.006,0a.044.044,0,0,0-.023.038v.017l0,0a2.1,2.1,0,0,1-.181.3.8.8,0,0,1-.22.212.347.347,0,0,1-.416.008.322.322,0,0,1-.058-.406,3.786,3.786,0,0,1,1.055-.417,2.482,2.482,0,0,0-.149.245" transform="translate(-167.021 -118.656)" fill="#fff"/>
  <path id="Tracé_15859" data-name="Tracé 15859" d="M246.7,182.475h0a11.438,11.438,0,0,1-4.088-1.594.235.235,0,0,0-.274.029,7.544,7.544,0,0,1-2.808,1.571.207.207,0,0,0-.146.2.2.2,0,0,0,.146.192,7.619,7.619,0,0,1,2.808,1.576.229.229,0,0,0,.158.064.225.225,0,0,0,.118-.034,11.5,11.5,0,0,1,4.085-1.6.2.2,0,0,0,.166-.2.209.209,0,0,0-.164-.2m-4.176,1.566a7.68,7.68,0,0,0-2.308-1.363,7.715,7.715,0,0,0,2.308-1.362,11.387,11.387,0,0,0,3.216,1.362,11.285,11.285,0,0,0-3.216,1.363" transform="translate(-168.292 -127.143)" fill="#fff"/>
  <path id="Tracé_15860" data-name="Tracé 15860" d="M242.889,193.991h-.035a1.125,1.125,0,0,0-.238.044c-.218.069-.444.232-.422.478a.35.35,0,0,0,.135.244.415.415,0,0,0,.26.089h.025a.414.414,0,0,0,.264-.129.33.33,0,0,0,.092-.26.374.374,0,0,0-.007-.048.535.535,0,0,1,.273.12.461.461,0,0,1,.162.33.634.634,0,0,1-.2.51,1.131,1.131,0,0,1-.468.244,1.759,1.759,0,0,1-.472.077.839.839,0,0,1-.328-.061.926.926,0,0,1-.455-.5l-.013-.023a2.968,2.968,0,0,0-.207-.337,1.37,1.37,0,0,0-.332-.317.821.821,0,0,0-.966.027.675.675,0,0,0-.236.391,5.266,5.266,0,0,1-1.718-2.462.206.206,0,0,0-.109-.128.249.249,0,0,0-.168-.017.216.216,0,0,0-.157.2.3.3,0,0,0,.009.063,5.18,5.18,0,0,0,3.741,3.524,4.007,4.007,0,0,0,.729.069,3.89,3.89,0,0,0,.478-.032,1.811,1.811,0,0,0,.989-.418,1.02,1.02,0,0,0,.323-.817.92.92,0,0,0-.952-.851m-2.69,1.191h0a.319.319,0,0,1,.058-.4.349.349,0,0,1,.419.009.839.839,0,0,1,.217.211,2.275,2.275,0,0,1,.189.314l.012.023a2.481,2.481,0,0,0,.16.267,3.836,3.836,0,0,1-1.056-.421" transform="translate(-167.021 -135.157)" fill="#fff"/>
  <path id="Tracé_15861" data-name="Tracé 15861" d="M239.658,213.639v0a2.481,2.481,0,0,0-1.79.06,2.217,2.217,0,0,0-1.045.874q-.086.65-.227,1.287a1.557,1.557,0,0,0,.17.41,1.933,1.933,0,0,0,1.017.884,1.575,1.575,0,0,0,.521.085,1.839,1.839,0,0,0,.72-.146,1.4,1.4,0,0,0,.777-.744,1.245,1.245,0,0,0-.009-.9,1.029,1.029,0,0,0-.759-.685.755.755,0,0,0-.086-.006.466.466,0,0,0-.255.068.349.349,0,0,0-.164.23.346.346,0,0,0,.062.276.423.423,0,0,0,.54.092.373.373,0,0,0,.095-.084.868.868,0,0,1,.15.25.853.853,0,0,1,.01.608.962.962,0,0,1-.544.518,1.326,1.326,0,0,1-.9.053,1.5,1.5,0,0,1-.776-.685,1.19,1.19,0,0,1-.1-1.027,1.906,1.906,0,0,1,1.777-1.145,2.013,2.013,0,0,1,.667.113,2.334,2.334,0,0,1,1.421,1.324,2.522,2.522,0,0,1-.13,2.179,2.664,2.664,0,0,1-2.343,1.3h-.112a3.094,3.094,0,0,1-2.314-1.007c-.054.148-.109.3-.167.441a3.461,3.461,0,0,0,2.477.978h.129a3.1,3.1,0,0,0,2.725-1.528,2.927,2.927,0,0,0,.15-2.517,2.772,2.772,0,0,0-1.681-1.562" transform="translate(-165.816 -150.096)" fill="#fff"/>
  <path id="Tracé_15862" data-name="Tracé 15862" d="M268.532,184.294a.8.8,0,1,0,.865.8.837.837,0,0,0-.865-.8m0,1.2a.391.391,0,1,1,.42-.389.406.406,0,0,1-.42.389" transform="translate(-188.263 -129.564)" fill="#fff"/>
  <path id="Tracé_15863" data-name="Tracé 15863" d="M223.508,248.638a2.254,2.254,0,0,0,1.4.1,1.5,1.5,0,0,0,1.145-.883.6.6,0,0,0-.014-.387.373.373,0,0,0-.217-.182.4.4,0,0,0-.3.01.353.353,0,0,0-.2.458l.009.02a.375.375,0,0,0,.181.172,1.47,1.47,0,0,1-.72.4,1.881,1.881,0,0,1-.44.051,1.6,1.6,0,0,1-.651-.126,1.768,1.768,0,0,1-.822-.728,3.887,3.887,0,0,0-.261.395,2.21,2.21,0,0,0,.889.706" transform="translate(-156.508 -173.832)" fill="#fff"/>
  <path id="Tracé_15864" data-name="Tracé 15864" d="M224.482,237.924a2.906,2.906,0,0,1,1.553,1.615,2.637,2.637,0,0,1-.128,2.16,3.767,3.767,0,0,1-2.251,1.846,4.419,4.419,0,0,1-1.336.2,5.426,5.426,0,0,1-1.752-.32,1.869,1.869,0,0,1-.134.391,5.9,5.9,0,0,0,1.893.34,4.879,4.879,0,0,0,1.475-.221,4.192,4.192,0,0,0,2.508-2.061,3.147,3.147,0,0,0-1.634-4.323h0a2.99,2.99,0,0,0-.809-.227c-.079.131-.158.261-.241.39a2.515,2.515,0,0,1,.86.209" transform="translate(-154.972 -166.847)" fill="#fff"/>
  <path id="Tracé_15865" data-name="Tracé 15865" d="M140.577,115.329a5.821,5.821,0,0,0-4.008-1.634,4.9,4.9,0,0,0-1.479.223,4.191,4.191,0,0,0-2.509,2.06,3.148,3.148,0,0,0,1.633,4.323v0l.007,0a2.983,2.983,0,0,0,1.215.256A2.887,2.887,0,0,0,138,119.064a2,2,0,0,0,.1-1.643,2.207,2.207,0,0,0-1.18-1.224,2.281,2.281,0,0,0-1.4-.1,1.521,1.521,0,0,0-1.144.885.624.624,0,0,0,.013.384.369.369,0,0,0,.217.187.4.4,0,0,0,.3-.01.37.37,0,0,0,.2-.2.332.332,0,0,0-.012-.274.361.361,0,0,0-.18-.173,1.47,1.47,0,0,1,.72-.4,1.908,1.908,0,0,1,.442-.052,1.6,1.6,0,0,1,.649.126,1.766,1.766,0,0,1,.954.992,1.607,1.607,0,0,1-.078,1.324,2.327,2.327,0,0,1-1.363,1.131,2.557,2.557,0,0,1-1.826-.089,2.9,2.9,0,0,1-1.555-1.616,2.622,2.622,0,0,1,.128-2.159,3.768,3.768,0,0,1,2.252-1.847,4.4,4.4,0,0,1,1.338-.2,5.435,5.435,0,0,1,3.685,1.509c.092.09.179.184.263.28q.134-.17.276-.334c-.07-.078-.142-.154-.217-.227" transform="translate(-92.967 -79.931)" fill="#fff"/>
  <path id="Tracé_15866" data-name="Tracé 15866" d="M152.539,138.5a.268.268,0,0,0,0,.242c.023.045.044.093.066.141q.016-.255.044-.507a.288.288,0,0,0-.112.124" transform="translate(-107.22 -97.281)" fill="#fff"/>
  <path id="Tracé_15867" data-name="Tracé 15867" d="M149.325,152.071l-.628.525a.2.2,0,0,0-.024.284l.009.01a.225.225,0,0,0,.157.064h.009A.227.227,0,0,0,149,152.9l.161-.136.463-.39c.032-.222.06-.445.086-.667a2.72,2.72,0,0,1-.382.362" transform="translate(-104.488 -106.656)" fill="#fff"/>
  <path id="Tracé_15868" data-name="Tracé 15868" d="M125.792,144.2l-.1-.161c-.146-.238-.3-.483-.448-.7a4.031,4.031,0,0,0-3.464-2.173h-.124a3.11,3.11,0,0,0-2.726,1.524,2.935,2.935,0,0,0-.149,2.521,2.775,2.775,0,0,0,1.681,1.562v0a2.482,2.482,0,0,0,1.79-.06,2.237,2.237,0,0,0,1.224-1.215,1.825,1.825,0,0,0-1.139-2.245,1.6,1.6,0,0,0-.514-.081,1.861,1.861,0,0,0-.725.146,1.4,1.4,0,0,0-.778.745,1.246,1.246,0,0,0,.01.9,1.042,1.042,0,0,0,.759.685.7.7,0,0,0,.086.005.469.469,0,0,0,.256-.069.351.351,0,0,0,.161-.229.344.344,0,0,0-.061-.276.422.422,0,0,0-.542-.093.387.387,0,0,0-.092.085.9.9,0,0,1-.15-.251.848.848,0,0,1-.01-.608.958.958,0,0,1,.545-.518,1.363,1.363,0,0,1,.537-.111,1.1,1.1,0,0,1,.362.058,1.5,1.5,0,0,1,.777.682,1.187,1.187,0,0,1,.1,1.029,1.907,1.907,0,0,1-1.777,1.145,2.007,2.007,0,0,1-.667-.113,2.351,2.351,0,0,1-1.422-1.324,2.522,2.522,0,0,1,.129-2.179,2.666,2.666,0,0,1,2.344-1.3h.111a3.646,3.646,0,0,1,3.088,1.976c.157.235.32.5.476.757l.068.108a7.113,7.113,0,0,0,2.6,2.914c.036-.14.069-.28.1-.42a7.14,7.14,0,0,1-2.326-2.711" transform="translate(-83.356 -99.241)" fill="#fff"/>
  <path id="Tracé_15869" data-name="Tracé 15869" d="M121.784,218.836h-.11a2.665,2.665,0,0,1-2.345-1.3,2.524,2.524,0,0,1-.129-2.18,2.333,2.333,0,0,1,1.422-1.324,2.006,2.006,0,0,1,.667-.113,1.906,1.906,0,0,1,1.776,1.145,1.165,1.165,0,0,1-.065.957,1.514,1.514,0,0,1-.813.755,1.33,1.33,0,0,1-.9-.053.967.967,0,0,1-.546-.518.855.855,0,0,1,.012-.607.917.917,0,0,1,.151-.251.4.4,0,0,0,.635-.01.34.34,0,0,0,.062-.269.345.345,0,0,0-.163-.234.467.467,0,0,0-.256-.069.585.585,0,0,0-.085.006,1.026,1.026,0,0,0-.76.685,1.234,1.234,0,0,0-.01.893,1.4,1.4,0,0,0,.778.75,1.817,1.817,0,0,0,1.24.06,1.924,1.924,0,0,0,1.016-.884,1.564,1.564,0,0,0,.2-.532q-.108-.508-.18-1.022a2.355,2.355,0,0,0-2.093-1.214,2.481,2.481,0,0,0-.816.138,2.772,2.772,0,0,0-1.681,1.562,2.917,2.917,0,0,0,.148,2.516,3.1,3.1,0,0,0,2.727,1.529h.127a3.471,3.471,0,0,0,2.52-1.02q-.087-.22-.168-.442a3.111,3.111,0,0,1-2.357,1.051" transform="translate(-83.358 -150.099)" fill="#fff"/>
  <path id="Tracé_15870" data-name="Tracé 15870" d="M101.543,184.294a.8.8,0,1,0,.864.8.837.837,0,0,0-.864-.8m0,1.2a.391.391,0,1,1,.421-.389.406.406,0,0,1-.421.389" transform="translate(-70.864 -129.564)" fill="#fff"/>
  <path id="Tracé_15871" data-name="Tracé 15871" d="M115.863,170.89h0a.14.14,0,0,0,.043,0,.877.877,0,0,0,.232-.038c.219-.069.444-.232.423-.479a.348.348,0,0,0-.135-.244.4.4,0,0,0-.285-.089.4.4,0,0,0-.265.129.337.337,0,0,0-.092.261.41.41,0,0,0,.007.046.5.5,0,0,1-.437-.449.627.627,0,0,1,.2-.51,1.125,1.125,0,0,1,.468-.244,1.755,1.755,0,0,1,.47-.078.842.842,0,0,1,.329.062.92.92,0,0,1,.454.5,2.847,2.847,0,0,0,.222.366,1.38,1.38,0,0,0,.331.317.828.828,0,0,0,.966-.027.69.69,0,0,0,.236-.391,5.262,5.262,0,0,1,1.718,2.468.227.227,0,0,0,.113.124.3.3,0,0,0,.1.021.232.232,0,0,0,.062-.01.207.207,0,0,0,.161-.2.248.248,0,0,0-.009-.059,5.178,5.178,0,0,0-3.743-3.523,3.845,3.845,0,0,0-1.205-.037,1.806,1.806,0,0,0-.989.418,1.006,1.006,0,0,0-.322.817.918.918,0,0,0,.951.851m2.69-1.2h0a.322.322,0,0,1-.058.407.349.349,0,0,1-.418-.009.8.8,0,0,1-.217-.213,1.9,1.9,0,0,1-.19-.313,2.634,2.634,0,0,0-.172-.288,3.792,3.792,0,0,1,1.055.417" transform="translate(-80.785 -118.653)" fill="#fff"/>
  <path id="Tracé_15872" data-name="Tracé 15872" d="M113.4,184.512h0a.228.228,0,0,0,.157-.063,7.609,7.609,0,0,1,2.808-1.576.2.2,0,0,0,0-.385,7.613,7.613,0,0,1-2.808-1.576.236.236,0,0,0-.273-.029,11.457,11.457,0,0,1-4.091,1.6.207.207,0,0,0-.163.2.2.2,0,0,0,.164.2,11.538,11.538,0,0,1,4.086,1.6.216.216,0,0,0,.12.035m-.029-3.194a7.691,7.691,0,0,0,2.307,1.362,7.7,7.7,0,0,0-2.307,1.362,11.309,11.309,0,0,0-3.216-1.362,11.412,11.412,0,0,0,3.216-1.362" transform="translate(-76.65 -127.145)" fill="#fff"/>
  <path id="Tracé_15873" data-name="Tracé 15873" d="M116.7,196.11h0a3.955,3.955,0,0,0,.727-.069,5.171,5.171,0,0,0,3.739-3.52.193.193,0,0,0-.143-.259.242.242,0,0,0-.173.014.217.217,0,0,0-.106.121,5.259,5.259,0,0,1-1.717,2.468.694.694,0,0,0-.236-.391.82.82,0,0,0-.966-.027,1.275,1.275,0,0,0-.332.317,2.813,2.813,0,0,0-.207.338l-.016.03a.919.919,0,0,1-.453.5.838.838,0,0,1-.328.061,1.726,1.726,0,0,1-.471-.078,1.109,1.109,0,0,1-.469-.244.634.634,0,0,1-.2-.509.485.485,0,0,1,.437-.45.369.369,0,0,0-.007.048.336.336,0,0,0,.092.26.415.415,0,0,0,.267.129.434.434,0,0,0,.282-.088.347.347,0,0,0,.135-.244c.021-.247-.2-.409-.424-.479a1.1,1.1,0,0,0-.24-.043h-.034a.918.918,0,0,0-.951.851,1.021,1.021,0,0,0,.322.817,1.815,1.815,0,0,0,.991.418,3.889,3.889,0,0,0,.477.032m.969-.8h0l.008-.017a2.666,2.666,0,0,1,.179-.3.858.858,0,0,1,.222-.209.411.411,0,0,1,.227-.074.289.289,0,0,1,.189.069.316.316,0,0,1,.057.4,3.826,3.826,0,0,1-1.055.421,2.621,2.621,0,0,0,.172-.29" transform="translate(-80.784 -135.159)" fill="#fff"/>
  <path id="Tracé_15874" data-name="Tracé 15874" d="M139.83,161.4a4.323,4.323,0,0,0-3.228,3.5c-.487-1.819.112-3.459,1.871-5.145a.2.2,0,0,0,.012-.276l-.015-.014-.009-.006a.239.239,0,0,0-.306.011c-2.181,2.085-2.7,4.16-1.622,6.532a.222.222,0,0,0,.2.121.218.218,0,0,0,.046-.005.209.209,0,0,0,.18-.2,3.98,3.98,0,0,1,2.808-4.063c.053-.159.106-.318.156-.478-.03.008-.061.014-.091.023" transform="translate(-95.606 -112.073)" fill="#fff"/>
  <path id="Tracé_15875" data-name="Tracé 15875" d="M140.065,184.245l.008-.015c.1-.187.2-.369.3-.536a1.148,1.148,0,0,0-.429.8l.113-.235Z" transform="translate(-98.385 -129.143)" fill="#fff"/>
  <path id="Tracé_15876" data-name="Tracé 15876" d="M136.567,243.723a4.42,4.42,0,0,1-1.336-.2,3.767,3.767,0,0,1-2.251-1.847,2.624,2.624,0,0,1-.128-2.159,2.9,2.9,0,0,1,1.554-1.616,2.511,2.511,0,0,1,.919-.212c-.084-.131-.166-.263-.246-.4a2.989,2.989,0,0,0-.867.236,3.146,3.146,0,0,0-1.632,4.323,4.193,4.193,0,0,0,2.508,2.061,4.877,4.877,0,0,0,1.475.221,5.9,5.9,0,0,0,1.941-.357,1.845,1.845,0,0,1-.13-.393,5.431,5.431,0,0,1-1.808.34" transform="translate(-92.966 -166.824)" fill="#fff"/>
  <path id="Tracé_15877" data-name="Tracé 15877" d="M141.709,248.265a1.588,1.588,0,0,1-.647.126,1.9,1.9,0,0,1-.441-.052,1.476,1.476,0,0,1-.72-.4.377.377,0,0,0,.181-.173.354.354,0,0,0-.172-.47l-.018-.008a.4.4,0,0,0-.3-.01.37.37,0,0,0-.22.187.611.611,0,0,0-.013.385,1.5,1.5,0,0,0,1.144.88,2.252,2.252,0,0,0,1.4-.1,2.2,2.2,0,0,0,.915-.741,4.052,4.052,0,0,0-.266-.4,1.759,1.759,0,0,1-.844.769" transform="translate(-97.958 -173.831)" fill="#fff"/>
  <path id="Tracé_15878" data-name="Tracé 15878" d="M142.583,171.78q.444-.8.831-1.636a1.723,1.723,0,0,1,.136-.476,1.916,1.916,0,0,1,.251-.4q.477-1.133.842-2.305a3.946,3.946,0,0,0-.89.141c-.065.018-.127.04-.19.061a25.171,25.171,0,0,1-2.158,4.744l-.013.023a1.127,1.127,0,0,1,1.193-.151" transform="translate(-99.402 -117.38)" fill="#fff"/>
  <path id="Tracé_15879" data-name="Tracé 15879" d="M150.5,162.215a2.866,2.866,0,0,1-.643-.162c-.1-.036-.19-.078-.282-.123q-.155.611-.344,1.218a4.409,4.409,0,0,1,1.051-.142q.115-.394.217-.792" transform="translate(-104.912 -113.843)" fill="#fff"/>
  <path id="Tracé_15880" data-name="Tracé 15880" d="M151.649,153.946a23.7,23.7,0,0,0,.537-3.212c-.348.324-.711.64-1.086.957q-.142.977-.371,1.948a2.8,2.8,0,0,0,.345.16,1.973,1.973,0,0,0,.575.147" transform="translate(-105.967 -105.971)" fill="#fff"/>
  <path id="Tracé_15881" data-name="Tracé 15881" d="M169.339,109.077a8.985,8.985,0,0,1,6.4,3.366,4.976,4.976,0,0,1,.589-.809,9.958,9.958,0,0,0-6.922-3.519c-.226-.015-.454-.022-.678-.022a10.113,10.113,0,0,0-7.673,3.525,4.967,4.967,0,0,1,.586.793,9.152,9.152,0,0,1,7.7-3.335" transform="translate(-113.224 -75.993)" fill="#fff"/>
  <path id="Tracé_15882" data-name="Tracé 15882" d="M152.434,140.082c-.013.211-.022.423-.022.638v.321a21.825,21.825,0,0,1-.146,2.494c.035-.039.073-.076.106-.118a3.538,3.538,0,0,0,.063-3.335" transform="translate(-107.048 -98.482)" fill="#fff"/>
  <path id="Tracé_15883" data-name="Tracé 15883" d="M230.172,185.449a.685.685,0,0,0-.708-.658l-.052,0a.782.782,0,0,0-.084.015c.043.077.085.155.129.232.078.135.155.273.229.411l.275.553a.7.7,0,0,0,.211-.554" transform="translate(-161.225 -129.914)" fill="#fff"/>
  <path id="Tracé_15884" data-name="Tracé 15884" d="M153.191,126.179a4.987,4.987,0,0,0,.775-.059,9.126,9.126,0,0,1,1.709-4.2,4.542,4.542,0,0,0-.573-.829,10.088,10.088,0,0,0-2.12,5.133.287.287,0,0,1,.147-.043Z" transform="translate(-107.551 -85.129)" fill="#fff"/>
  <path id="Tracé_15885" data-name="Tracé 15885" d="M235.112,196.107a4.3,4.3,0,0,1-.186.724c.1.434.191.874.257,1.322a4.312,4.312,0,0,0-.071-2.045" transform="translate(-165.16 -137.869)" fill="#fff"/>
  <path id="Tracé_15886" data-name="Tracé 15886" d="M171.565,258.317H155.055a.919.919,0,0,1-.834-.54,5.878,5.878,0,0,1-.877.4,1.882,1.882,0,0,0,1.711,1.1h16.511a1.881,1.881,0,0,0,1.7-1.087,5.887,5.887,0,0,1-.883-.392.917.917,0,0,1-.82.515" transform="translate(-107.806 -181.225)" fill="#fff"/>
  <path id="Tracé_15887" data-name="Tracé 15887" d="M151.459,245.621a1.991,1.991,0,0,1-.131.64,2.207,2.207,0,0,1-.265.483,3.617,3.617,0,0,1,.507,1.817v.293a1.9,1.9,0,0,0,.04.384,5.412,5.412,0,0,0,.924-.443v-.234a4.687,4.687,0,0,0-1.075-2.94" transform="translate(-106.202 -172.679)" fill="#fff"/>
  <path id="Tracé_15888" data-name="Tracé 15888" d="M222.8,241.192a1.75,1.75,0,0,0,.133.262,4.1,4.1,0,0,1,.351-.416,15.853,15.853,0,0,0,1.927-2.422c-.056,0-.113-.009-.17-.009a2.423,2.423,0,0,0-1.217.311,14.952,14.952,0,0,1-1.073,1.277,1.618,1.618,0,0,0,.049,1" transform="translate(-156.563 -167.748)" fill="#fff"/>
  <path id="Tracé_15889" data-name="Tracé 15889" d="M134.576,196.682a15.417,15.417,0,0,0,.585,2.046,7.021,7.021,0,0,0,.709-.9,14.311,14.311,0,0,1-.572-2.692,15.168,15.168,0,0,1-.059-2.648,4.848,4.848,0,0,1,.065-4.31.228.228,0,0,1,.247-.122.215.215,0,0,1,.181.2,5.357,5.357,0,0,0,.091.988,14.374,14.374,0,0,1,.653-1.751l.011-.022a1.151,1.151,0,0,1-.552-1.067s0-.008,0-.012l-.328.682-.006.012-.005.012a15.692,15.692,0,0,0-1.257,8.141c.016.14.036.279.056.418.036.065.075.129.105.2a1.563,1.563,0,0,1,.075.824" transform="translate(-94.377 -131.042)" fill="#fff"/>
  <path id="Tracé_15890" data-name="Tracé 15890" d="M144.875,241.413a1.735,1.735,0,0,0,.112-.222,1.606,1.606,0,0,0,.02-1.09c-.332-.359-.648-.733-.944-1.123a2.425,2.425,0,0,0-1.314-.371c-.037,0-.074,0-.11.006A15.707,15.707,0,0,0,144.524,241a4.319,4.319,0,0,1,.352.418" transform="translate(-100.28 -167.748)" fill="#fff"/>
  <path id="Tracé_15891" data-name="Tracé 15891" d="M140.258,229.884a14.617,14.617,0,0,1-1.651-3.268,6.2,6.2,0,0,1-.712.831,15.788,15.788,0,0,0,1.162,2.34,3.034,3.034,0,0,1,.356-.022,2.873,2.873,0,0,1,.844.119" transform="translate(-96.945 -159.318)" fill="#fff"/>
  <path id="Tracé_15892" data-name="Tracé 15892" d="M218.754,248.645a3.455,3.455,0,0,1,.47-1.717,2.217,2.217,0,0,1-.291-.519,1.991,1.991,0,0,1-.126-.577,4.509,4.509,0,0,0-1.017,2.813v.334a5.432,5.432,0,0,0,.919.427,1.863,1.863,0,0,0,.045-.4Z" transform="translate(-153.113 -172.828)" fill="#fff"/>
  <path id="Tracé_15893" data-name="Tracé 15893" d="M229.617,226.792A14.628,14.628,0,0,1,228,229.984a2.88,2.88,0,0,1,.769-.1,2.954,2.954,0,0,1,.413.031,15.544,15.544,0,0,0,1.151-2.307,5.993,5.993,0,0,1-.718-.821" transform="translate(-160.293 -159.442)" fill="#fff"/>
  <path id="Tracé_15894" data-name="Tracé 15894" d="M219.917,143.282c.053.067.111.13.17.192a21.623,21.623,0,0,1-.158-2.577q0-.509-.047-1.007a3.548,3.548,0,0,0,.035,3.392" transform="translate(-154.293 -98.347)" fill="#fff"/>
  <path id="Tracé_15895" data-name="Tracé 15895" d="M220.341,162.144q.105.4.224.806a4.406,4.406,0,0,1,1.05.158q-.2-.633-.362-1.268a3.254,3.254,0,0,1-.34.153,2.857,2.857,0,0,1-.572.151" transform="translate(-154.907 -113.779)" fill="#fff"/>
  <path id="Tracé_15896" data-name="Tracé 15896" d="M154.775,140.3c0-.274.015-.546.039-.814a5.4,5.4,0,0,1-.557.047,4.436,4.436,0,0,1,.294,2.815c.059-.054.113-.113.17-.168.035-.518.055-1.037.055-1.559Z" transform="translate(-108.447 -98.066)" fill="#fff"/>
  <path id="Tracé_15897" data-name="Tracé 15897" d="M221.53,166.984a27.815,27.815,0,0,0,2.1,4.925,1.1,1.1,0,0,1,.347-.048c.029,0,.057,0,.086,0a1.151,1.151,0,0,1,.624,2.059,14.555,14.555,0,0,1,.577,1.556,5.4,5.4,0,0,0,.069-.861.22.22,0,0,1,.176-.207.26.26,0,0,1,.043,0,.23.23,0,0,1,.207.124,4.859,4.859,0,0,1,.116,4.208c.026.355.044.712.044,1.073a14.572,14.572,0,0,1-.687,4.425,6.654,6.654,0,0,0,.715.889,15.431,15.431,0,0,0,.569-1.968,1.564,1.564,0,0,1,.048-.946,2.215,2.215,0,0,1,.179-.341,15.7,15.7,0,0,0,.139-2.059,15.508,15.508,0,0,0-1.347-6.354l-.008-.019-.009-.018-.456-.917-.007-.014-.007-.013c-.084-.157-.164-.3-.245-.439a27.413,27.413,0,0,1-2.195-4.826c-.091-.031-.181-.062-.276-.088a3.959,3.959,0,0,0-.807-.138" transform="translate(-155.743 -117.395)" fill="#fff"/>
  <path id="Tracé_15898" data-name="Tracé 15898" d="M142.259,184.682c.039-.067.075-.134.114-.2a.709.709,0,0,0-.946.721.682.682,0,0,0,.287.527l.253-.526c.093-.175.19-.35.293-.521" transform="translate(-99.426 -129.667)" fill="#fff"/>
  <path id="Tracé_15899" data-name="Tracé 15899" d="M217.676,142.242c.037.035.071.073.109.107a4.438,4.438,0,0,1,.294-2.816h0c-.185-.005-.361-.021-.532-.042a9.619,9.619,0,0,1,.068,1.126q0,.817.061,1.626" transform="translate(-152.942 -98.067)" fill="#fff"/>
  <path id="Tracé_15900" data-name="Tracé 15900" d="M213.216,126.166a5.046,5.046,0,0,0,.788.06h.048a.279.279,0,0,1,.159.058,10.6,10.6,0,0,0-2.161-5.127,4.531,4.531,0,0,0-.576.847,9.714,9.714,0,0,1,1.743,4.162" transform="translate(-148.672 -85.177)" fill="#fff"/>
  <path id="Tracé_15901" data-name="Tracé 15901" d="M218.721,154.065a2.421,2.421,0,0,0,.507-.13,2.806,2.806,0,0,0,.4-.19q-.221-.932-.362-1.866c-.374-.317-.739-.632-1.089-.954a23.538,23.538,0,0,0,.542,3.141" transform="translate(-153.387 -106.104)" fill="#fff"/>
  <path id="Tracé_15902" data-name="Tracé 15902" d="M137.633,198.307q.095-.7.255-1.381a4.341,4.341,0,0,1-.221-.821,4.279,4.279,0,0,0-.034,2.2" transform="translate(-96.671 -137.868)" fill="#fff"/>
  <path id="Tracé_15903" data-name="Tracé 15903" d="M220,160.742c.033.135.065.271.1.405a2.874,2.874,0,0,0,.572-.151,3.194,3.194,0,0,0,.34-.153c-.036-.14-.07-.281-.1-.421a2.8,2.8,0,0,1-.4.19,2.419,2.419,0,0,1-.507.13" transform="translate(-154.67 -112.782)" fill="#fff"/>
  <path id="Tracé_15904" data-name="Tracé 15904" d="M221.225,166a3.959,3.959,0,0,1,.807.138c.095.026.186.057.276.088-.055-.162-.11-.324-.162-.486a4.408,4.408,0,0,0-1.05-.158c.041.14.085.279.129.418" transform="translate(-155.437 -116.407)" fill="#fff"/>
  <path id="Tracé_15905" data-name="Tracé 15905" d="M228.912,183.817l.052,0a.685.685,0,0,1,.708.658.7.7,0,0,1-.211.554l.181.365c.011.024.02.049.031.074a1.152,1.152,0,0,0-.624-2.059c-.029,0-.057,0-.086,0a1.1,1.1,0,0,0-.347.048c.069.127.14.254.211.38a.653.653,0,0,1,.084-.015" transform="translate(-160.725 -128.938)" fill="#fff"/>
  <path id="Tracé_15906" data-name="Tracé 15906" d="M218.129,138.085a5.048,5.048,0,0,1-.788-.06q.036.216.061.435c.171.022.347.038.532.043h0a4.435,4.435,0,0,0-.294,2.816c-.037-.035-.072-.072-.109-.107.016.215.037.43.059.644.349.322.714.637,1.089.954q-.048-.323-.086-.646c-.059-.062-.117-.125-.17-.192a3.548,3.548,0,0,1-.035-3.392c-.014-.146-.031-.291-.051-.436a.279.279,0,0,0-.159-.058Z" transform="translate(-152.798 -97.036)" fill="#fff"/>
  <path id="Tracé_15907" data-name="Tracé 15907" d="M210.788,121.2a4.533,4.533,0,0,1,.577-.847q-.135-.172-.277-.339a4.977,4.977,0,0,0-.589.81c.1.123.2.249.289.377" transform="translate(-147.987 -84.375)" fill="#fff"/>
  <path id="Tracé_15908" data-name="Tracé 15908" d="M234.542,193.2a4.312,4.312,0,0,1,.071,2.045q.077.524.115,1.06a4.859,4.859,0,0,0-.116-4.208.23.23,0,0,0-.207-.124.3.3,0,0,0-.043,0,.22.22,0,0,0-.176.207,5.4,5.4,0,0,1-.069.861q.134.433.241.878a4.3,4.3,0,0,0,.186-.724" transform="translate(-164.591 -134.966)" fill="#fff"/>
  <path id="Tracé_15909" data-name="Tracé 15909" d="M233.61,225.077c-.054.171-.109.341-.17.509a6.012,6.012,0,0,0,.718.821c.058-.146.113-.293.167-.441a6.7,6.7,0,0,1-.715-.889" transform="translate(-164.116 -158.236)" fill="#fff"/>
  <path id="Tracé_15910" data-name="Tracé 15910" d="M238.215,218.4q.14-.637.227-1.288a2.222,2.222,0,0,0-.179.342,1.563,1.563,0,0,0-.048.946" transform="translate(-167.436 -152.634)" fill="#fff"/>
  <path id="Tracé_15911" data-name="Tracé 15911" d="M217.559,256.428v.024a.9.9,0,0,1-.1.4,5.917,5.917,0,0,0,.883.392,1.851,1.851,0,0,0,.134-.391,5.435,5.435,0,0,1-.919-.427" transform="translate(-152.883 -180.277)" fill="#fff"/>
  <path id="Tracé_15912" data-name="Tracé 15912" d="M221.632,245.61a3.89,3.89,0,0,1,.261-.395,1.751,1.751,0,0,1-.133-.262,1.618,1.618,0,0,1-.049-1c-.052.056-.1.113-.156.168a5.065,5.065,0,0,0-.34.389,1.992,1.992,0,0,0,.126.577,2.218,2.218,0,0,0,.291.519" transform="translate(-155.521 -171.509)" fill="#fff"/>
  <path id="Tracé_15913" data-name="Tracé 15913" d="M226.945,237.314c-.143.214-.293.423-.446.628a2.424,2.424,0,0,1,1.217-.311c.057,0,.113,0,.17.009.083-.129.162-.259.241-.39a3,3,0,0,0-.413-.031,2.88,2.88,0,0,0-.769.1" transform="translate(-159.236 -166.772)" fill="#fff"/>
  <path id="Tracé_15914" data-name="Tracé 15914" d="M153.119,141.157c-.057.056-.112.114-.17.168a4.436,4.436,0,0,0-.294-2.815,5.318,5.318,0,0,0,.557-.047q.019-.218.049-.434a4.987,4.987,0,0,1-.775.059h-.062a.29.29,0,0,0-.147.043q-.029.252-.044.508a3.538,3.538,0,0,1-.063,3.335c-.033.042-.07.079-.105.118-.026.222-.053.445-.086.667.374-.317.738-.633,1.086-.957.021-.215.04-.43.055-.645" transform="translate(-106.845 -97.039)" fill="#fff"/>
  <path id="Tracé_15915" data-name="Tracé 15915" d="M160.983,120.757a4.966,4.966,0,0,0-.586-.793q-.142.164-.276.334a4.545,4.545,0,0,1,.574.829q.139-.189.289-.37" transform="translate(-112.57 -84.338)" fill="#fff"/>
  <path id="Tracé_15916" data-name="Tracé 15916" d="M151.31,161.22c.034-.132.066-.265.1-.4a1.968,1.968,0,0,1-.575-.147,2.757,2.757,0,0,1-.345-.16q-.049.21-.1.42c.091.045.185.086.282.123a2.867,2.867,0,0,0,.643.162" transform="translate(-105.725 -112.848)" fill="#fff"/>
  <path id="Tracé_15917" data-name="Tracé 15917" d="M134.861,217.791c-.03-.069-.069-.133-.1-.2q.072.514.18,1.022a1.559,1.559,0,0,0-.075-.824" transform="translate(-94.738 -152.975)" fill="#fff"/>
  <path id="Tracé_15918" data-name="Tracé 15918" d="M138.211,225.406q-.09-.253-.171-.511a7,7,0,0,1-.709.9q.081.222.168.442a6.242,6.242,0,0,0,.712-.831" transform="translate(-96.548 -158.108)" fill="#fff"/>
  <path id="Tracé_15919" data-name="Tracé 15919" d="M149.784,165.974q.065-.208.127-.418a4.393,4.393,0,0,0-1.051.142c-.05.16-.1.319-.156.478.063-.02.125-.042.19-.061a3.947,3.947,0,0,1,.89-.141" transform="translate(-104.543 -116.391)" fill="#fff"/>
  <path id="Tracé_15920" data-name="Tracé 15920" d="M148.34,175.126a1.735,1.735,0,0,0-.136.476c.135-.29.263-.582.387-.876a1.9,1.9,0,0,0-.251.4" transform="translate(-104.192 -122.837)" fill="#fff"/>
  <path id="Tracé_15921" data-name="Tracé 15921" d="M136.609,193.2a4.342,4.342,0,0,0,.221.821q.1-.432.228-.854a5.355,5.355,0,0,1-.091-.988.215.215,0,0,0-.18-.2.227.227,0,0,0-.247.122,4.848,4.848,0,0,0-.065,4.31q.033-.509.1-1.007a4.279,4.279,0,0,1,.034-2.2" transform="translate(-95.612 -134.962)" fill="#fff"/>
  <path id="Tracé_15922" data-name="Tracé 15922" d="M140.482,184.968l.178-.369a.682.682,0,0,1-.286-.527.709.709,0,0,1,.946-.721c.079-.137.158-.275.234-.414a1.127,1.127,0,0,0-1.193.151c-.1.167-.2.349-.3.536l-.008.015-.008.016-.113.235s0,.008,0,.012a1.151,1.151,0,0,0,.552,1.067" transform="translate(-98.373 -128.536)" fill="#fff"/>
  <path id="Tracé_15923" data-name="Tracé 15923" d="M150.3,243.637a1.608,1.608,0,0,1-.02,1.09,1.756,1.756,0,0,1-.112.222,4.135,4.135,0,0,1,.265.4,2.2,2.2,0,0,0,.265-.483,2,2,0,0,0,.131-.64c-.1-.125-.207-.246-.32-.362-.071-.074-.14-.151-.21-.227" transform="translate(-105.574 -171.284)" fill="#fff"/>
  <path id="Tracé_15924" data-name="Tracé 15924" d="M153.829,256.368v-.059a5.419,5.419,0,0,1-.924.443,1.842,1.842,0,0,0,.13.393,5.908,5.908,0,0,0,.877-.4.9.9,0,0,1-.084-.377" transform="translate(-107.497 -180.193)" fill="#fff"/>
  <path id="Tracé_15925" data-name="Tracé 15925" d="M142.165,237.63a2.424,2.424,0,0,1,1.314.371c-.164-.216-.319-.439-.471-.664a2.875,2.875,0,0,0-.844-.119,2.976,2.976,0,0,0-.356.022c.08.133.162.265.246.4.037,0,.073-.006.11-.006" transform="translate(-99.696 -166.771)" fill="#fff"/>
  <path id="Tracé_15926" data-name="Tracé 15926" d="M155.167,122.551a4.99,4.99,0,0,0,4.586,3.036h1.262a6.018,6.018,0,0,1-5.37,7.444l-.409.032.047.408a8.187,8.187,0,0,0,8.139,7.25h4.456l.062.126h-4.518a8.319,8.319,0,0,1-7.88-5.653l-.375-1.106-.375,1.106a8.319,8.319,0,0,1-7.88,5.653h-4.521l.061-.126h4.46a8.187,8.187,0,0,0,8.139-7.25l.047-.408-.409-.032a6.018,6.018,0,0,1-5.37-7.445h1.263a4.99,4.99,0,0,0,4.586-3.036m0-1.946a4.586,4.586,0,0,1-4.586,4.586h-1.565a6.415,6.415,0,0,0,5.641,8.235,7.808,7.808,0,0,1-7.745,6.9H142.2l-.442.917h5.151a8.73,8.73,0,0,0,8.255-5.922,8.729,8.729,0,0,0,8.255,5.922h5.157l-.456-.917h-4.7a7.808,7.808,0,0,1-7.745-6.9,6.415,6.415,0,0,0,5.641-8.235h-1.565a4.586,4.586,0,0,1-4.586-4.586" transform="translate(-99.662 -84.789)" fill="#fff"/>
  <path id="Tracé_15927" data-name="Tracé 15927" d="M193.661,189.136a5.513,5.513,0,0,0-3.669-3.669,5.513,5.513,0,0,0,3.669,3.669" transform="translate(-133.57 -130.389)" fill="#fff"/>
  <path id="Tracé_15928" data-name="Tracé 15928" d="M175.129,185.468a5.513,5.513,0,0,0-3.669,3.669,5.513,5.513,0,0,0,3.669-3.669" transform="translate(-120.542 -130.39)" fill="#fff"/>
  <path id="Tracé_15929" data-name="Tracé 15929" d="M184.731,184.213a.917.917,0,1,0-.917-.917.917.917,0,0,0,.917.917" transform="translate(-129.227 -128.218)" fill="#fff"/>
  <path id="Tracé_15930" data-name="Tracé 15930" d="M175.465,139.137a.917.917,0,1,0,.917.917.917.917,0,0,0-.917-.917" transform="translate(-122.713 -97.818)" fill="#fff"/>
  <path id="Tracé_15931" data-name="Tracé 15931" d="M194,140.972a.917.917,0,1,0-.917-.917.917.917,0,0,0,.917.917" transform="translate(-135.741 -97.818)" fill="#fff"/>
  <path id="Tracé_15932" data-name="Tracé 15932" d="M192.936,124.847c-.023-.064-.045-.129-.071-.193-.043-.107-.09-.212-.138-.317-.031-.066-.062-.132-.094-.2-.051-.1-.1-.2-.16-.3-.037-.064-.076-.126-.114-.188-.059-.1-.118-.192-.181-.284-.039-.057-.083-.11-.124-.165q-.177-.239-.376-.46c-.059-.065-.116-.132-.177-.195s-.137-.134-.207-.2-.137-.128-.208-.189-.141-.118-.214-.176-.161-.123-.243-.181-.139-.1-.211-.147c-.1-.066-.206-.128-.311-.189-.058-.034-.114-.07-.173-.1q-.244-.131-.5-.241c-.055-.023-.111-.043-.167-.065-.125-.049-.25-.1-.378-.138-.069-.022-.138-.042-.208-.062-.121-.035-.243-.067-.366-.094-.071-.016-.143-.031-.214-.045-.132-.025-.267-.045-.4-.061-.064-.008-.126-.018-.19-.024-.2-.019-.4-.031-.605-.031a4.586,4.586,0,0,0,4.586,4.586h1.565c-.035-.117-.077-.23-.118-.344" transform="translate(-131.399 -84.789)" fill="#fff"/>
  <path id="Tracé_15933" data-name="Tracé 15933" d="M171.546,120.659c-.135.017-.269.036-.4.061-.072.014-.143.029-.214.045q-.185.042-.366.094c-.069.02-.139.039-.208.062-.128.042-.254.089-.379.139-.055.022-.112.041-.166.064q-.256.11-.5.241c-.059.031-.115.068-.173.1-.105.061-.21.122-.311.189-.072.047-.141.1-.211.147s-.164.119-.243.181-.144.116-.214.176-.14.125-.208.189-.14.131-.208.2-.118.129-.177.195q-.2.221-.376.46c-.041.055-.084.109-.124.165-.064.092-.123.188-.182.284-.039.062-.077.124-.114.188-.056.1-.109.2-.16.3-.032.064-.064.13-.094.2-.048.1-.1.211-.138.318-.025.063-.047.127-.07.191-.042.114-.083.228-.118.346h1.565a4.587,4.587,0,0,0,4.586-4.586c-.2,0-.406.012-.605.031-.064.006-.127.016-.19.024" transform="translate(-116.837 -84.789)" fill="#fff"/>
  <path id="Tracé_15934" data-name="Tracé 15934" d="M184.439,152.868h.124a.459.459,0,0,0,0-.917h-.124a.916.916,0,0,0-1.587,0h-.124a.459.459,0,1,0,0,.917h.124a.916.916,0,0,0,1.587,0" transform="translate(-128.142 -106.504)" fill="#fff"/>
  <path id="Tracé_15935" data-name="Tracé 15935" d="M193.16,205.512c-.241.067-.387.363-.45.581-.081.281.143.454.305.583s.52-.1.64-.191a.562.562,0,0,0-.5-.974" transform="translate(-135.469 -144.467)" fill="#fff"/>
  <path id="Tracé_15936" data-name="Tracé 15936" d="M201.24,219.714c-.284.071-.322.351-.352.556s.349.4.485.459a.562.562,0,0,0,.6-.916.815.815,0,0,0-.729-.1" transform="translate(-141.229 -154.438)" fill="#fff"/>
  <path id="Tracé_15937" data-name="Tracé 15937" d="M177.779,233.91c-.163-.129-.52.1-.64.191a.562.562,0,0,0,.5.974c.241-.067.387-.363.45-.582.08-.281-.143-.454-.305-.583" transform="translate(-124.393 -164.419)" fill="#fff"/>
  <path id="Tracé_15938" data-name="Tracé 15938" d="M193.5,233.71c-.193.076-.171.5-.155.649a.563.563,0,0,0,1.091.058.816.816,0,0,0-.279-.681c-.2-.21-.464-.1-.657-.027" transform="translate(-135.918 -164.238)" fill="#fff"/>
  <path id="Tracé_15939" data-name="Tracé 15939" d="M176.687,206.593a2.854,2.854,0,0,1-.553.2,6.519,6.519,0,0,0-.753.155c-.388.119-.619-.128-.953-.3a1.066,1.066,0,0,1-.214-.1c.053-.118.613-.152.746-.185.239-.061.554.064.759-.115a.336.336,0,0,0-.08-.524c-.236-.166-.611.013-.861.092-.424.135-.834.484-1.272.215-.232-.142-.231-.506-.355-.751-.105-.209-.227-.408-.329-.616.128.042.257.081.382.135a.619.619,0,0,0,.8-.113.449.449,0,0,0-.23-.673,1.665,1.665,0,0,0-.722.088.817.817,0,0,0-.141.04l0-.018c.049-.178.154-.337.211-.508a.84.84,0,0,1,.456-.493.556.556,0,0,1,.061-.02,2.577,2.577,0,0,1,.942.156c.306.052.63.261.938.227.347-.039.534-.568.111-.639-.162-.027-.34.041-.516.031a4.363,4.363,0,0,1-.622-.091,1.737,1.737,0,0,1-.355-.1c.082-.2.635-.391.825-.375.383.034.765.073,1.152.1.294.024.789.369,1.055.151a.518.518,0,0,0,.056-.568c-.089-.191-.265-.181-.468-.165a1.635,1.635,0,0,1-.562-.05c-.176-.042-.4.03-.56-.04-.325-.144-.092-.752.039-.961.159-.255.635-.6.41-.945-.069-.107-.329-.143-.447-.132-.228.023-.329.2-.362.412a2.854,2.854,0,0,1-.106.577,6.521,6.521,0,0,0-.242.73c-.091.4-.421.472-.736.676a1.109,1.109,0,0,1-.2.133c-.076-.1.175-.607.212-.739.067-.237.333-.447.28-.714a.335.335,0,0,0-.493-.193c-.262.121-.295.535-.351.792-.1.434,0,.964-.45,1.209-.239.129-.554-.052-.828-.068-.247-.014-.493-.007-.736-.026.124-.107.24-.221.372-.319.227-.167.452-.444.3-.75a.449.449,0,0,0-.7-.137,1.663,1.663,0,0,0-.285.669.939.939,0,0,0-.045.217l-.028-.029c-.129-.131-.215-.3-.335-.436a.839.839,0,0,1-.2-.641.557.557,0,0,1,.013-.063c.076-.278.429-.523.606-.737.2-.239.541-.415.665-.7.139-.32-.225-.747-.5-.416a5.147,5.147,0,0,0-.231.463,4.5,4.5,0,0,1-.389.493,1.748,1.748,0,0,1-.268.255,1.2,1.2,0,0,1,.088-.9c.22-.315.445-.626.666-.946.167-.243.715-.5.658-.838-.033-.2-.29-.317-.464-.332-.21-.019-.289.139-.377.323a1.62,1.62,0,0,1-.324.461c-.124.13-.176.364-.314.464-.287.209-.7-.3-.813-.514-.14-.265-.2-.848-.614-.827-.127.006-.289.213-.337.321a.423.423,0,0,0,.176.519,2.832,2.832,0,0,1,.447.381,6.52,6.52,0,0,0,.511.574c.3.276.2.6.217.975a1.055,1.055,0,0,1,.017.238c-.128.013-.438-.455-.533-.554-.172-.177-.221-.512-.479-.6a.335.335,0,0,0-.414.331c-.026.287.316.523.51.7.328.3.836.48.822.994-.007.272-.322.453-.473.683-.127.193-.236.394-.362.583-.031-.167-.074-.33-.094-.5-.032-.28-.159-.613-.5-.636a.449.449,0,0,0-.468.536,1.666,1.666,0,0,0,.437.581,1.012,1.012,0,0,0,.224.187c-.039.008-.079.018-.122.03-.178.047-.369.035-.545.072a.842.842,0,0,1-.655-.148.588.588,0,0,1-.048-.042c-.2-.2-.239-.633-.336-.894-.108-.291-.089-.676-.273-.926-.207-.28-.759-.178-.609.223.058.154.206.274.286.431a4.412,4.412,0,0,1,.232.584,1.727,1.727,0,0,1,.086.36c-.21.027-.657-.355-.737-.527-.162-.349-.32-.7-.486-1.05-.127-.267-.075-.868-.4-.989-.185-.07-.419.093-.519.235-.121.173-.024.32.091.488a1.636,1.636,0,0,1,.237.512c.051.173.228.334.246.5.037.353-.606.456-.852.447-.3-.011-.834-.252-1.023.118-.058.113.04.357.109.453a.423.423,0,0,0,.538.107,2.872,2.872,0,0,1,.553-.2,6.465,6.465,0,0,0,.753-.156c.388-.119.619.128.953.3a1.091,1.091,0,0,1,.214.1c-.053.118-.613.152-.746.186-.239.061-.554-.064-.759.114a.336.336,0,0,0,.079.524c.236.166.611-.012.862-.092.424-.135.834-.484,1.272-.215.232.142.232.506.355.751.089.178.191.348.282.523-.138-.046-.278-.087-.412-.145a.619.619,0,0,0-.8.113.449.449,0,0,0,.23.673,1.67,1.67,0,0,0,.722-.088,1.007,1.007,0,0,0,.267-.1c-.02.055-.037.112-.054.177-.049.178-.154.337-.21.508a.841.841,0,0,1-.456.493.56.56,0,0,1-.061.02,2.576,2.576,0,0,1-.941-.156c-.306-.052-.63-.262-.938-.227-.347.039-.534.568-.112.639.163.027.341-.041.517-.031a4.441,4.441,0,0,1,.621.091,1.751,1.751,0,0,1,.355.105c-.082.2-.636.391-.825.375-.383-.033-.765-.072-1.152-.1-.294-.024-.789-.37-1.055-.151a.518.518,0,0,0-.056.568c.089.191.265.181.468.165a1.644,1.644,0,0,1,.562.05c.175.042.4-.029.559.04.324.145.092.753-.039.962-.159.255-.635.6-.41.945.069.106.329.143.446.131.228-.022.329-.2.362-.412a2.853,2.853,0,0,1,.106-.577,6.454,6.454,0,0,0,.242-.729c.091-.4.421-.472.736-.676a1.057,1.057,0,0,1,.2-.133c.075.1-.175.607-.213.739-.067.238-.333.448-.28.715a.336.336,0,0,0,.494.193c.262-.121.295-.535.351-.792.1-.434,0-.964.45-1.209.239-.129.554.052.828.068.186.01.371.009.555.016-.087.078-.173.157-.267.226-.227.167-.452.444-.3.75a.449.449,0,0,0,.7.137,1.667,1.667,0,0,0,.285-.669.924.924,0,0,0,.043-.2c.033.037.068.074.107.114.129.131.214.3.335.436a.839.839,0,0,1,.2.641.5.5,0,0,1-.013.063c-.076.278-.429.524-.606.737-.2.239-.542.415-.665.7-.14.32.225.746.5.415.1-.127.135-.315.231-.463a4.41,4.41,0,0,1,.389-.493,1.761,1.761,0,0,1,.268-.255,1.2,1.2,0,0,1-.088.9c-.221.315-.445.626-.666.946-.167.243-.714.5-.658.838.033.2.29.317.464.332.21.019.289-.139.377-.323a1.643,1.643,0,0,1,.324-.462c.124-.13.176-.364.314-.464.287-.209.7.3.813.515.141.265.2.848.614.827.127-.006.289-.213.337-.321a.424.424,0,0,0-.176-.52,2.849,2.849,0,0,1-.447-.38,6.489,6.489,0,0,0-.511-.574c-.3-.276-.2-.6-.217-.975a1.093,1.093,0,0,1-.017-.238c.128-.013.438.455.534.554.172.177.221.512.478.6a.336.336,0,0,0,.414-.331c.026-.287-.316-.523-.511-.7-.328-.3-.836-.48-.822-.994.007-.272.322-.453.473-.683.112-.17.211-.347.32-.517.023.109.047.219.059.33.032.28.159.613.5.636a.449.449,0,0,0,.468-.536,1.665,1.665,0,0,0-.437-.581.822.822,0,0,0-.1-.1l.073-.018c.178-.046.369-.035.546-.072a.84.84,0,0,1,.655.148.591.591,0,0,1,.048.042c.2.2.239.633.336.893.108.291.089.676.273.926.207.281.759.178.609-.223-.058-.154-.206-.274-.286-.431a4.476,4.476,0,0,1-.232-.584,1.764,1.764,0,0,1-.086-.36c.21-.026.657.355.737.527.163.349.32.7.486,1.049.126.266.075.868.4.989.185.069.419-.093.519-.235.121-.173.024-.32-.091-.488a1.63,1.63,0,0,1-.238-.512c-.051-.173-.227-.334-.246-.5-.037-.353.606-.456.853-.447.3.011.834.252,1.023-.118.058-.113-.04-.356-.109-.453a.422.422,0,0,0-.538-.108m-8.036-3.315a.461.461,0,0,1,.385.055.971.971,0,0,1,.243.254c.026.035.053.069.08.1.049.073.091.135.113.162.008.01.026.03.051.057a.969.969,0,0,1,.132.283l0,.009a2.356,2.356,0,0,1-.417.052c-.31-.006-.664-.017-.839-.306a4.085,4.085,0,0,1-.3-.594,2.083,2.083,0,0,1,.546-.075m.879,2.107c-.16.266-.346.567-.685.574a4.147,4.147,0,0,1-.662-.04,2.092,2.092,0,0,1,.208-.511c.065-.15.086-.228.24-.306a.971.971,0,0,1,.342-.083L169.1,205c.089-.006.162-.011.2-.017l.075-.016a.968.968,0,0,1,.311.027l.009,0a2.356,2.356,0,0,1-.163.387m.392-2.829a4.12,4.12,0,0,1,.366-.553,2.067,2.067,0,0,1,.339.435.463.463,0,0,1,.145.361.969.969,0,0,1-.1.338c-.017.04-.033.08-.049.12-.039.08-.072.146-.084.179,0,.012-.013.037-.024.073a.966.966,0,0,1-.179.255l-.007.007a2.366,2.366,0,0,1-.254-.335.91.91,0,0,1-.155-.88m.888,4.024a4.11,4.11,0,0,1-.366.554,2.09,2.09,0,0,1-.338-.435.462.462,0,0,1-.145-.361.966.966,0,0,1,.1-.338c.017-.04.033-.08.049-.12.039-.079.072-.146.084-.179,0-.012.013-.037.024-.073a.966.966,0,0,1,.179-.255l.007-.007a2.369,2.369,0,0,1,.254.335.91.91,0,0,1,.155.88m.228-2.441a2.362,2.362,0,0,1,.163-.387c.161-.266.346-.567.684-.574a4.112,4.112,0,0,1,.662.04,2.082,2.082,0,0,1-.208.511c-.064.15-.086.227-.24.306a.972.972,0,0,1-.342.083l-.129.018c-.088.006-.162.011-.2.017l-.075.016a.965.965,0,0,1-.31-.027l-.009,0m1.042,1.719a.46.46,0,0,1-.385-.055.971.971,0,0,1-.243-.254c-.026-.035-.053-.069-.08-.1-.049-.074-.091-.135-.113-.163l-.051-.057a.952.952,0,0,1-.132-.282l0-.009a2.4,2.4,0,0,1,.417-.052c.311.006.664.017.84.306a4.114,4.114,0,0,1,.3.594,2.059,2.059,0,0,1-.546.075" transform="translate(-114.861 -138.666)" fill="#fff"/>
  <path id="Tracé_15940" data-name="Tracé 15940" d="M176.478,206.219a.815.815,0,0,0,.279.68c.2.21.465.1.658.027s.171-.5.154-.65a.562.562,0,0,0-1.091-.058" transform="translate(-124.061 -144.697)" fill="#fff"/>
  <path id="Tracé_15941" data-name="Tracé 15941" d="M169.364,221.177c.284-.071.322-.351.352-.556s-.349-.4-.485-.459a.562.562,0,0,0-.6.916.814.814,0,0,0,.728.1" transform="translate(-118.443 -154.751)" fill="#fff"/>
  <path id="Tracé_15942" data-name="Tracé 15942" d="M141.761,170.582h5.151c3.829,0,7.195-2.268,8.255-7.4a8.1,8.1,0,0,0,8.255,7.4h5.157" transform="translate(-99.662 -114.723)" fill="none" stroke="#fff" stroke-linecap="round" stroke-linejoin="round" stroke-width="1.333"/>
</svg>
