<svg xmlns="http://www.w3.org/2000/svg" width="48.29" height="50.412" viewBox="0 0 48.29 50.412">
  <g id="Groupe_4142" data-name="Groupe 4142" transform="translate(-18.6 -18.6)">
    <g id="Groupe_4143" data-name="Groupe 4143" transform="translate(19.6 19.6)">
      <circle id="Ellipse_1" data-name="Ellipse 1" cx="11.336" cy="11.336" r="11.336" fill="#e6cea8" stroke="#34353d" stroke-linecap="round" stroke-linejoin="round" stroke-width="2"/>
      <path id="Tracé_15995" data-name="Tracé 15995" d="M649.731,201.922c2.9-.164,6.949-.621,8.113-.519,1.2.105,8.761.661,11.437-.182a3.187,3.187,0,0,0,2.379-2.819,4.489,4.489,0,0,0-.341-2.392c1.1-.066,2.264-.869,2.461-3.063a3.7,3.7,0,0,0-.922-3.147,4.034,4.034,0,0,0,1.707-3.781c-.174-2.689-2.17-3.014-2.17-3.014,1.085-.974,1.22-2.325.868-4.062-.366-1.811-2.411-2.606-4.311-2.459-1.719.133-4.186.519-4.97.57s-1.831.188-2.1-.04c-.235-.2.933-3.223,1.482-5.391a13.414,13.414,0,0,0,.427-7.074,3.633,3.633,0,0,0-4.333-3.108c-.869.252-1.185,4.494-1.453,6.426s-3.047,5.351-3.624,6.321-3.343,3.452-4.049,6.3c-.4,1.611-3.066,4.6-4.332,5.531" transform="translate(-628.291 -156.923)" fill="#fff"/>
      <path id="Tracé_15997" data-name="Tracé 15997" d="M317.118,896.015c.4,4.913,1.431,12.863,4.039,18.5a30.654,30.654,0,0,0-5.631,2.371l-.2.1c-2.131-1.829-3.767-4.679-4.865-8.48a44.193,44.193,0,0,1-1.519-11.6c.576-.039,1.127-.074,1.666-.108A33.13,33.13,0,0,0,317.118,896.015Z" transform="translate(-299.883 -868.58)" fill="#7c243e" stroke="#34353d" stroke-linecap="round" stroke-linejoin="round" stroke-width="2"/>
      <path id="Tracé_15996" data-name="Tracé 15996" d="M538.31,1389.549a1.03,1.03,0,1,1,1.03-1.03A1.031,1.031,0,0,1,538.31,1389.549Z" transform="translate(-521.706 -1346.066)" fill="#fff" stroke="#34353d" stroke-linecap="round" stroke-linejoin="round" stroke-width="2"/>
      <path id="Tracé_15998" data-name="Tracé 15998" d="M232.054,186.349a5.734,5.734,0,0,1-3.219.941c-3.627,0-5.994-2.955-5.994-6.493s2.367-6.493,5.994-6.493a5.734,5.734,0,0,1,3.219.941" transform="translate(-216.479 -169.46)" fill="none" stroke="#34353d" stroke-linecap="round" stroke-linejoin="round" stroke-width="2"/>
      <line id="Ligne_2" data-name="Ligne 2" x2="10.863" transform="translate(3.833 9.378)" fill="none" stroke="#34353d" stroke-linecap="round" stroke-linejoin="round" stroke-width="2"/>
      <line id="Ligne_3" data-name="Ligne 3" x2="10.863" transform="translate(3.833 13.294)" fill="none" stroke="#34353d" stroke-linecap="round" stroke-linejoin="round" stroke-width="2"/>
      <path id="Tracé_15999" data-name="Tracé 15999" d="M651.081,201.572a56.36,56.36,0,0,1,6.21-.17c1.2.105,8.761.661,11.437-.182a3.187,3.187,0,0,0,2.379-2.819,4.489,4.489,0,0,0-.341-2.392c1.1-.066,2.264-.869,2.461-3.063a3.7,3.7,0,0,0-.922-3.147,4.034,4.034,0,0,0,1.708-3.781c-.174-2.689-2.17-3.014-2.17-3.014,1.085-.974,1.22-2.325.868-4.062-.366-1.811-2.411-2.606-4.311-2.459-1.719.133-4.186.519-4.97.57s-1.831.188-2.1-.04c-.235-.2.933-3.223,1.481-5.391a13.413,13.413,0,0,0,.427-7.074,3.633,3.633,0,0,0-4.333-3.108c-.869.252-1.185,4.494-1.453,6.426s-3.047,5.351-3.624,6.321-3.343,3.452-4.049,6.3a6.661,6.661,0,0,1-2.387,3.932" transform="translate(-627.737 -156.923)" fill="none" stroke="#34353d" stroke-linecap="round" stroke-linejoin="round" stroke-width="2"/>
    </g>
  </g>
</svg>
