<svg xmlns="http://www.w3.org/2000/svg" width="51.523" height="48.312" viewBox="0 0 51.523 48.312">
  <g id="Groupe_4139" data-name="Groupe 4139" transform="translate(0.032 0.031)">
    <g id="Groupe_4140" data-name="Groupe 4140" transform="translate(0.25 0.25)">
      <path id="Tracé_15972" data-name="Tracé 15972" d="M13.32,25.44a12.071,12.071,0,1,1,11.807-9.546c-.031-.14-.062-.292-.087-.44.025.149.055.3.087.445A12.092,12.092,0,0,1,14.3,25.408c-.324.027-.652.044-.983.044" transform="translate(0.146 0.166)" fill="#7c243e"/>
      <path id="Tracé_15973" data-name="Tracé 15973" d="M30.5,25.44A12.071,12.071,0,1,1,42.3,15.894c-.031-.14-.062-.292-.087-.44.025.149.055.3.087.445A12.092,12.092,0,0,1,31.48,25.408c-.324.027-.652.044-.983.044" transform="translate(7.097 0.166)" fill="#e6cea8"/>
      <path id="Tracé_15974" data-name="Tracé 15974" d="M22.045,40.435a12.071,12.071,0,1,1,11.807-9.546c-.031-.14-.062-.292-.087-.44.025.149.055.3.087.445A12.092,12.092,0,0,1,23.029,40.4c-.324.027-.652.044-.983.044" transform="translate(3.677 6.235)" fill="#fff"/>
      <path id="Tracé_15975" data-name="Tracé 15975" d="M7.407,9.774a1.61,1.61,0,1,0-1.613-1.61,1.611,1.611,0,0,0,1.613,1.61" transform="translate(1.994 2.301)" fill="#34353d"/>
      <path id="Tracé_15976" data-name="Tracé 15976" d="M7.407,9.774a1.61,1.61,0,1,0-1.613-1.61,1.611,1.611,0,0,0,1.613,1.61" transform="translate(1.994 2.301)" fill="none" stroke="#34353d" stroke-width="0.5"/>
      <path id="Tracé_15977" data-name="Tracé 15977" d="M13.519,9.774a1.61,1.61,0,1,0-1.613-1.61,1.608,1.608,0,0,0,1.613,1.61" transform="translate(4.468 2.301)" fill="#34353d"/>
      <path id="Tracé_15978" data-name="Tracé 15978" d="M13.519,9.774a1.61,1.61,0,1,0-1.613-1.61,1.608,1.608,0,0,0,1.613,1.61" transform="translate(4.468 2.301)" fill="none" stroke="#34353d" stroke-width="0.5"/>
      <path id="Tracé_15979" data-name="Tracé 15979" d="M24.214,9.774a1.61,1.61,0,1,0-1.61-1.61,1.61,1.61,0,0,0,1.61,1.61" transform="translate(8.797 2.301)" fill="#34353d"/>
      <path id="Tracé_15980" data-name="Tracé 15980" d="M24.214,9.774a1.61,1.61,0,1,0-1.61-1.61,1.61,1.61,0,0,0,1.61,1.61" transform="translate(8.797 2.301)" fill="none" stroke="#34353d" stroke-width="0.5"/>
      <path id="Tracé_15981" data-name="Tracé 15981" d="M30.328,9.774a1.61,1.61,0,1,0-1.611-1.61,1.61,1.61,0,0,0,1.611,1.61" transform="translate(11.271 2.301)" fill="#34353d"/>
      <path id="Tracé_15982" data-name="Tracé 15982" d="M30.328,9.774a1.61,1.61,0,1,0-1.611-1.61,1.61,1.61,0,0,0,1.611,1.61" transform="translate(11.271 2.301)" fill="none" stroke="#34353d" stroke-width="0.5"/>
      <path id="Tracé_15983" data-name="Tracé 15983" d="M17,13.821a.806.806,0,0,0-1.2-1.076,5.631,5.631,0,0,1-7.952.438,6.164,6.164,0,0,1-.44-.438.8.8,0,0,0-1.2,1.073,7.245,7.245,0,0,0,10.229.562,7.555,7.555,0,0,0,.56-.562" transform="translate(2.084 4.699)" fill="#34353d"/>
      <path id="Tracé_15984" data-name="Tracé 15984" d="M17,13.821a.806.806,0,0,0-1.2-1.076,5.631,5.631,0,0,1-7.952.438,6.164,6.164,0,0,1-.44-.438.8.8,0,0,0-1.2,1.073,7.245,7.245,0,0,0,10.229.562,7.555,7.555,0,0,0,.56-.562" transform="translate(2.084 4.699)" fill="none" stroke="#34353d" stroke-width="0.5"/>
      <path id="Tracé_15985" data-name="Tracé 15985" d="M33.815,13.821a.806.806,0,0,0-1.2-1.076,5.634,5.634,0,0,1-7.955.438,5.864,5.864,0,0,1-.438-.438.8.8,0,0,0-1.2,1.073,7.243,7.243,0,0,0,10.79,0" transform="translate(8.887 4.699)" fill="#34353d"/>
      <path id="Tracé_15986" data-name="Tracé 15986" d="M33.815,13.821a.806.806,0,0,0-1.2-1.076,5.634,5.634,0,0,1-7.955.438,5.864,5.864,0,0,1-.438-.438.8.8,0,0,0-1.2,1.073,7.243,7.243,0,0,0,10.79,0" transform="translate(8.887 4.699)" fill="none" stroke="#34353d" stroke-width="0.5"/>
      <path id="Tracé_15987" data-name="Tracé 15987" d="M21.922,21.071a1.61,1.61,0,1,0,1.61,1.61,1.61,1.61,0,0,0-1.61-1.61" transform="translate(7.87 8.177)" fill="#34353d"/>
      <path id="Tracé_15988" data-name="Tracé 15988" d="M21.922,21.071a1.61,1.61,0,1,0,1.61,1.61,1.61,1.61,0,0,0-1.61-1.61" transform="translate(7.87 8.177)" fill="none" stroke="#34353d" stroke-width="0.5"/>
      <path id="Tracé_15989" data-name="Tracé 15989" d="M24.21,27.264a5.633,5.633,0,0,1-8.392,0,.8.8,0,0,0-1.2,1.073,7.243,7.243,0,0,0,10.79,0,.806.806,0,0,0-1.2-1.076" transform="translate(5.486 10.573)" fill="#34353d"/>
      <path id="Tracé_15990" data-name="Tracé 15990" d="M24.21,27.264a5.633,5.633,0,0,1-8.392,0,.8.8,0,0,0-1.2,1.073,7.243,7.243,0,0,0,10.79,0,.806.806,0,0,0-1.2-1.076" transform="translate(5.486 10.573)" fill="none" stroke="#34353d" stroke-width="0.5"/>
      <path id="Tracé_15991" data-name="Tracé 15991" d="M15.809,24.291a1.61,1.61,0,1,0-1.61-1.61,1.61,1.61,0,0,0,1.61,1.61" transform="translate(5.396 8.177)" fill="#34353d"/>
      <path id="Tracé_15992" data-name="Tracé 15992" d="M15.809,24.291a1.61,1.61,0,1,0-1.61-1.61,1.61,1.61,0,0,0,1.61,1.61" transform="translate(5.396 8.177)" fill="none" stroke="#34353d" stroke-width="0.5"/>
      <path id="Tracé_15993" data-name="Tracé 15993" d="M51.22,13.224c-.013-.226-.029-.452-.052-.676-.007-.07-.018-.14-.027-.209-.018-.156-.037-.31-.058-.465-.014-.083-.029-.164-.045-.246-.024-.14-.046-.281-.074-.421-.017-.086-.038-.169-.058-.254-.029-.14-.059-.267-.093-.4-.022-.086-.048-.17-.07-.254-.035-.129-.07-.258-.11-.386-.025-.084-.055-.167-.083-.251-.042-.126-.083-.253-.128-.378-.029-.083-.063-.164-.094-.246-.048-.124-.094-.247-.14-.368-.034-.08-.07-.16-.105-.24-.053-.121-.107-.242-.163-.361-.037-.077-.076-.155-.115-.232-.059-.118-.119-.237-.181-.354-.041-.074-.083-.149-.125-.223-.065-.115-.131-.232-.2-.346-.044-.073-.088-.14-.14-.216-.07-.112-.14-.225-.215-.336-.046-.07-.094-.14-.14-.208-.076-.11-.153-.218-.232-.326-.049-.067-.1-.133-.152-.2-.081-.107-.163-.211-.247-.315-.052-.065-.105-.128-.159-.191-.086-.1-.174-.2-.263-.3l-.167-.183c-.094-.1-.187-.2-.281-.291l-.174-.174c-.094-.094-.191-.187-.292-.281l-.181-.164c-.1-.094-.2-.181-.3-.264l-.19-.157c-.1-.084-.211-.169-.317-.25l-.192-.136c-.11-.08-.219-.159-.33-.235l-.2-.14q-.169-.112-.341-.219L44.569,2.2c-.117-.07-.235-.14-.353-.2-.072-.039-.14-.08-.215-.119-.119-.065-.242-.125-.364-.187-.074-.037-.14-.074-.222-.11-.124-.062-.249-.118-.374-.173l-.222-.1c-.126-.053-.254-.1-.383-.152-.083-.029-.159-.059-.236-.088-.131-.048-.263-.09-.395-.14C41.729.9,41.651.871,41.571.846,41.431.8,41.3.767,41.165.73c-.079-.014-.157-.038-.236-.059-.14-.035-.281-.066-.421-.1-.077-.017-.155-.037-.232-.052-.14-.029-.295-.055-.442-.08C39.759.43,39.686.416,39.612.4c-.163-.024-.319-.042-.479-.06C39.067.337,39,.326,38.936.32,38.751.3,38.562.288,38.374.277L38.252.268C38.02.25,37.788.25,37.555.25H37.5c-.2,0-.395.006-.591.015h-.09c-.062,0-.122.01-.184.014-.121.008-.243.017-.364.028L36.1.324l-.174.021L35.656.39,35.385.43l-.15.02-.17.032c-.126.024-.251.046-.376.073s-.225.051-.336.077l-.177.039L34.048.7l-.039.01c-.125.034-.249.069-.374.107l-.1.037-.044.014-.14.041c-.14.045-.281.093-.421.14l-.2.074c-.16.06-.322.122-.479.19l-.08.038a13.665,13.665,0,0,0-5.115,3.8c-.014.017-.024.035-.037.053a13.792,13.792,0,0,0-1.274,1.826A13.682,13.682,0,1,0,13.829,27.617a13.573,13.573,0,0,0-.955,2.086c0,.008-.007.015-.011.025l-.02.06c-.073.214-.145.43-.209.649-.014.052-.029.105-.044.157-.065.23-.128.462-.181.7l-.038.163c-.025.122-.049.246-.072.369-.017.091-.032.181-.049.273s-.034.215-.049.323-.029.225-.044.337-.021.19-.031.281c-.013.14-.022.273-.029.409,0,.076-.013.152-.015.229-.01.215-.018.431-.018.649s0,.447.018.667c0,.066.01.132.013.2.01.156.022.313.037.468a1.849,1.849,0,0,0,.024.212c.015.153.035.3.059.457l.029.188c.025.164.053.329.088.49.01.046.018.093.028.14.039.192.084.382.132.572l.01.042a13.654,13.654,0,0,0,9.146,9.625c.08.025.163.048.244.072.114.034.228.067.343.1s.249.063.375.093l.232.053c.14.029.281.056.413.081l.129.025h.024a13.658,13.658,0,0,0,15.216-8.85c0-.008.008-.015.011-.024.018-.051.032-.1.049-.152.058-.164.111-.332.162-.5.021-.072.044-.14.065-.218.065-.23.126-.461.18-.7l.038-.163c.027-.122.049-.246.072-.369.017-.091.034-.183.049-.274s.034-.215.049-.322.029-.225.044-.337.021-.19.031-.281c.013-.14.022-.273.031-.409,0-.076.011-.152.014-.229.01-.215.017-.431.017-.649s0-.447-.017-.667c0-.066-.008-.132-.013-.2-.01-.157-.021-.313-.035-.468a1.85,1.85,0,0,0-.024-.212c-.017-.153-.037-.3-.059-.457l-.029-.188c-.027-.164-.055-.329-.088-.49-.008-.045-.018-.091-.028-.14-.041-.192-.084-.382-.132-.572L39,30.9a13.6,13.6,0,0,0-1.319-3.28,13.726,13.726,0,0,0,2.049-.174l.14-.025c.3-.052.6-.112.9-.184.067-.015.14-.029.2-.046l.08-.022A13.6,13.6,0,0,0,51.081,16.052l.01-.06c.014-.093.024-.185.035-.281.008-.069.018-.14.027-.208a.806.806,0,0,1,.01-.081c0-.027.01-.087.014-.131l.017-.174c.007-.059.007-.111.011-.167s.008-.124.013-.187.008-.1.01-.157v-.073c.008-.2.014-.4.014-.6,0-.239-.006-.476-.018-.711M13.946,26a12.071,12.071,0,1,1,11.805-9.546c-.031-.14-.062-.292-.087-.44.025.149.055.3.087.445a12.092,12.092,0,0,1-10.823,9.509c-.323.027-.65.044-.982.044M25.744,46.4a12.07,12.07,0,0,1-2.236-.211c-.1-.02-.206-.039-.309-.062l-.268-.062c-.091-.021-.183-.044-.273-.067-.126-.034-.253-.07-.378-.108l-.14-.042a12.124,12.124,0,0,1-8.077-8.486l-.018-.072c-.039-.155-.074-.31-.108-.466l-.029-.153c-.027-.131-.049-.264-.072-.4-.011-.066-.021-.133-.031-.2-.017-.119-.032-.24-.046-.361-.007-.076-.017-.152-.025-.228-.011-.117-.02-.235-.025-.353,0-.077-.013-.155-.015-.233,0-.14-.01-.281-.013-.431v-.14c0-.2,0-.391.015-.583a.861.861,0,0,1,.01-.159c.008-.14.018-.27.032-.4.006-.074.014-.149.024-.223.011-.11.024-.218.039-.326.014-.088.025-.176.039-.263s.031-.177.048-.264.039-.2.06-.3c.013-.058.028-.115.039-.171a11.719,11.719,0,0,1,.4-1.357v-.007A12.024,12.024,0,0,1,15.809,27.5a13.685,13.685,0,0,0,8.958-5.2c.324-.027.653-.044.983-.044s.645.017.964.042a12.243,12.243,0,0,1,1.275.17l.306.06c.1.021.181.041.27.062l.271.066c.128.034.254.07.381.108l.14.039.032.031-.032-.031a12.152,12.152,0,0,1,6.252,4.565c.028.041.059.08.087.122a12.019,12.019,0,0,1,1.739,3.793l.018.072c.039.155.076.31.108.466.011.051.021.1.031.153.025.131.049.263.07.4.011.066.021.133.031.2.017.119.032.24.046.361.008.076.018.152.025.228.011.117.02.235.027.353,0,.077.013.156.015.233,0,.14.01.281.011.431v.14c0,.2,0,.391-.015.583a.861.861,0,0,1-.01.159c-.008.14-.018.27-.031.4-.007.074-.015.149-.024.223-.013.11-.025.218-.041.326-.013.088-.025.176-.039.263s-.031.176-.048.264-.038.2-.06.306c-.013.058-.027.114-.039.171a12,12,0,0,1-.4,1.357v.007a12.1,12.1,0,0,1-11.368,8.007m14-20.6a12.116,12.116,0,0,1-2.2.2c-.323,0-.643-.015-.962-.039a13.645,13.645,0,0,0-6.743-4.7c-.08-.025-.163-.048-.244-.072-.115-.034-.229-.067-.346-.1s-.249-.062-.374-.091l-.233-.053c-.14-.029-.274-.056-.412-.081l-.129-.025h-.025q-.244-.042-.493-.076c-.044-.063-.086-.126-.128-.19-.025-.038-.051-.074-.076-.114a12.012,12.012,0,0,1-.77-1.393,13.658,13.658,0,0,0,0-10.264,12.143,12.143,0,0,1,4.62-5.161l.124-.076c.112-.067.228-.132.343-.2l.247-.133c.093-.048.184-.1.281-.14.184-.09.368-.177.562-.257l.094-.041c.14-.056.273-.11.41-.162l.187-.07H33.5c.155-.055.31-.107.466-.156l.052-.015q.221-.067.442-.126l.094-.024.029-.007c.1-.027.208-.052.312-.074l.121-.028.17-.034.191-.038.206-.037L35.756,2l.281-.038.133-.017.187-.02c.121-.013.242-.021.362-.029h.065l.174-.011c.2-.01.4-.017.6-.017A12.089,12.089,0,0,1,49.643,13.946c0,.194,0,.386-.015.577,0,.062-.008.122-.011.184-.008.126-.017.253-.029.378-.007.081-.017.162-.027.243s-.024.2-.039.3-.027.188-.042.281-.028.162-.044.242c-.02.11-.041.218-.065.326-.01.048-.022.094-.032.14a12.124,12.124,0,0,1-.4,1.381v.01a12.122,12.122,0,0,1-8.926,7.746c-.086.018-.173.032-.26.048" transform="translate(-0.25 -0.25)" fill="#34353d"/>
      <path id="Tracé_15994" data-name="Tracé 15994" d="M51.22,13.224c-.013-.226-.029-.452-.052-.676-.007-.07-.018-.14-.027-.209-.018-.156-.037-.31-.058-.465-.014-.083-.029-.164-.045-.246-.024-.14-.046-.281-.074-.421-.017-.086-.038-.169-.058-.254-.029-.14-.059-.267-.093-.4-.022-.086-.048-.17-.07-.254-.035-.129-.07-.258-.11-.386-.025-.084-.055-.167-.083-.251-.042-.126-.083-.253-.128-.378-.029-.083-.063-.164-.094-.246-.048-.124-.094-.247-.14-.368-.034-.08-.07-.16-.105-.24-.053-.121-.107-.242-.163-.361-.037-.077-.076-.155-.115-.232-.059-.118-.119-.237-.181-.354-.041-.074-.083-.149-.125-.223-.065-.115-.131-.232-.2-.346-.044-.073-.088-.14-.14-.216-.07-.112-.14-.225-.215-.336-.046-.07-.094-.14-.14-.208-.076-.11-.153-.218-.232-.326-.049-.067-.1-.133-.152-.2-.081-.107-.163-.211-.247-.315-.052-.065-.105-.128-.159-.191-.086-.1-.174-.2-.263-.3l-.167-.183c-.094-.1-.187-.2-.281-.291l-.174-.174c-.094-.094-.191-.187-.292-.281l-.181-.164c-.1-.094-.2-.181-.3-.264l-.19-.157c-.1-.084-.211-.169-.317-.25l-.192-.136c-.11-.08-.219-.159-.33-.235l-.2-.14q-.169-.112-.341-.219L44.569,2.2c-.117-.07-.235-.14-.353-.2-.072-.039-.14-.08-.215-.119-.119-.065-.242-.125-.364-.187-.074-.037-.14-.074-.222-.11-.124-.062-.249-.118-.374-.173l-.222-.1c-.126-.053-.254-.1-.383-.152-.083-.029-.159-.059-.236-.088-.131-.048-.263-.09-.395-.14C41.729.9,41.651.871,41.571.846,41.431.8,41.3.767,41.165.73c-.079-.014-.157-.038-.236-.059-.14-.035-.281-.066-.421-.1-.077-.017-.155-.037-.232-.052-.14-.029-.295-.055-.442-.08C39.759.43,39.686.416,39.612.4c-.163-.024-.319-.042-.479-.06C39.067.337,39,.326,38.936.32,38.751.3,38.562.288,38.374.277L38.252.268C38.02.25,37.788.25,37.555.25H37.5c-.2,0-.395.006-.591.015h-.09c-.062,0-.122.01-.184.014-.121.008-.243.017-.364.028L36.1.324l-.174.021L35.656.39,35.385.43l-.15.02-.17.032c-.126.024-.251.046-.376.073s-.225.051-.336.077l-.177.039L34.048.7l-.039.01c-.125.034-.249.069-.374.107l-.1.037-.044.014-.14.041c-.14.045-.281.093-.421.14l-.2.074c-.16.06-.322.122-.479.19l-.08.038a13.665,13.665,0,0,0-5.115,3.8c-.014.017-.024.035-.037.053a13.792,13.792,0,0,0-1.274,1.826A13.682,13.682,0,1,0,13.829,27.617a13.573,13.573,0,0,0-.955,2.086c0,.008-.007.015-.011.025l-.02.06c-.073.214-.145.43-.209.649-.014.052-.029.105-.044.157-.065.23-.128.462-.181.7l-.038.163c-.025.122-.049.246-.072.369-.017.091-.032.181-.049.273s-.034.215-.049.323-.029.225-.044.337-.021.19-.031.281c-.013.14-.022.273-.029.409,0,.076-.013.152-.015.229-.01.215-.018.431-.018.649s0,.447.018.667c0,.066.01.132.013.2.01.156.022.313.037.468a1.849,1.849,0,0,0,.024.212c.015.153.035.3.059.457l.029.188c.025.164.053.329.088.49.01.046.018.093.028.14.039.192.084.382.132.572l.01.042a13.654,13.654,0,0,0,9.146,9.625c.08.025.163.048.244.072.114.034.228.067.343.1s.249.063.375.093l.232.053c.14.029.281.056.413.081l.129.025h.024a13.658,13.658,0,0,0,15.216-8.85c0-.008.008-.015.011-.024.018-.051.032-.1.049-.152.058-.164.111-.332.162-.5.021-.072.044-.14.065-.218.065-.23.126-.461.18-.7l.038-.163c.027-.122.049-.246.072-.369.017-.091.034-.183.049-.274s.034-.215.049-.322.029-.225.044-.337.021-.19.031-.281c.013-.14.022-.273.031-.409,0-.076.011-.152.014-.229.01-.215.017-.431.017-.649s0-.447-.017-.667c0-.066-.008-.132-.013-.2-.01-.157-.021-.313-.035-.468a1.85,1.85,0,0,0-.024-.212c-.017-.153-.037-.3-.059-.457l-.029-.188c-.027-.164-.055-.329-.088-.49-.008-.045-.018-.091-.028-.14-.041-.192-.084-.382-.132-.572L39,30.9a13.6,13.6,0,0,0-1.319-3.28,13.726,13.726,0,0,0,2.049-.174l.14-.025c.3-.052.6-.112.9-.184.067-.015.14-.029.2-.046l.08-.022A13.6,13.6,0,0,0,51.081,16.052l.01-.06c.014-.093.024-.185.035-.281.008-.069.018-.14.027-.208a.806.806,0,0,1,.01-.081c0-.027.01-.087.014-.131l.017-.174c.007-.059.007-.111.011-.167s.008-.124.013-.187.008-.1.01-.157v-.073c.008-.2.014-.4.014-.6,0-.239-.006-.476-.018-.711M13.946,26a12.071,12.071,0,1,1,11.805-9.546c-.031-.14-.062-.292-.087-.44.025.149.055.3.087.445a12.092,12.092,0,0,1-10.823,9.509c-.323.027-.65.044-.982.044M25.744,46.4a12.07,12.07,0,0,1-2.236-.211c-.1-.02-.206-.039-.309-.062l-.268-.062c-.091-.021-.183-.044-.273-.067-.126-.034-.253-.07-.378-.108l-.14-.042a12.124,12.124,0,0,1-8.077-8.486l-.018-.072c-.039-.155-.074-.31-.108-.466l-.029-.153c-.027-.131-.049-.264-.072-.4-.011-.066-.021-.133-.031-.2-.017-.119-.032-.24-.046-.361-.007-.076-.017-.152-.025-.228-.011-.117-.02-.235-.025-.353,0-.077-.013-.155-.015-.233,0-.14-.01-.281-.013-.431v-.14c0-.2,0-.391.015-.583a.861.861,0,0,1,.01-.159c.008-.14.018-.27.032-.4.006-.074.014-.149.024-.223.011-.11.024-.218.039-.326.014-.088.025-.176.039-.263s.031-.177.048-.264.039-.2.06-.3c.013-.058.028-.115.039-.171a11.719,11.719,0,0,1,.4-1.357v-.007A12.024,12.024,0,0,1,15.809,27.5a13.685,13.685,0,0,0,8.958-5.2c.324-.027.653-.044.983-.044s.645.017.964.042a12.243,12.243,0,0,1,1.275.17l.306.06c.1.021.181.041.27.062l.271.066c.128.034.254.07.381.108l.14.039.032.031-.032-.031a12.152,12.152,0,0,1,6.252,4.565c.028.041.059.08.087.122a12.019,12.019,0,0,1,1.739,3.793l.018.072c.039.155.076.31.108.466.011.051.021.1.031.153.025.131.049.263.07.4.011.066.021.133.031.2.017.119.032.24.046.361.008.076.018.152.025.228.011.117.02.235.027.353,0,.077.013.156.015.233,0,.14.01.281.011.431v.14c0,.2,0,.391-.015.583a.861.861,0,0,1-.01.159c-.008.14-.018.27-.031.4-.007.074-.015.149-.024.223-.013.11-.025.218-.041.326-.013.088-.025.176-.039.263s-.031.176-.048.264-.038.2-.06.306c-.013.058-.027.114-.039.171a12,12,0,0,1-.4,1.357v.007a12.1,12.1,0,0,1-11.368,8.007m14-20.6a12.116,12.116,0,0,1-2.2.2c-.323,0-.643-.015-.962-.039a13.645,13.645,0,0,0-6.743-4.7c-.08-.025-.163-.048-.244-.072-.115-.034-.229-.067-.346-.1s-.249-.062-.374-.091l-.233-.053c-.14-.029-.274-.056-.412-.081l-.129-.025h-.025q-.244-.042-.493-.076c-.044-.063-.086-.126-.128-.19-.025-.038-.051-.074-.076-.114a12.012,12.012,0,0,1-.77-1.393,13.658,13.658,0,0,0,0-10.264,12.143,12.143,0,0,1,4.62-5.161l.124-.076c.112-.067.228-.132.343-.2l.247-.133c.093-.048.184-.1.281-.14.184-.09.368-.177.562-.257l.094-.041c.14-.056.273-.11.41-.162l.187-.07H33.5c.155-.055.31-.107.466-.156l.052-.015q.221-.067.442-.126l.094-.024.029-.007c.1-.027.208-.052.312-.074l.121-.028.17-.034.191-.038.206-.037L35.756,2l.281-.038.133-.017.187-.02c.121-.013.242-.021.362-.029h.065l.174-.011c.2-.01.4-.017.6-.017A12.089,12.089,0,0,1,49.643,13.946c0,.194,0,.386-.015.577,0,.062-.008.122-.011.184-.008.126-.017.253-.029.378-.007.081-.017.162-.027.243s-.024.2-.039.3-.027.188-.042.281-.028.162-.044.242c-.02.11-.041.218-.065.326-.01.048-.022.094-.032.14a12.124,12.124,0,0,1-.4,1.381v.01a12.122,12.122,0,0,1-8.926,7.746c-.086.018-.173.032-.26.048" transform="translate(-0.25 -0.25)" fill="none" stroke="#34353d" stroke-width="0.5"/>
    </g>
  </g>
</svg>
