<svg xmlns="http://www.w3.org/2000/svg" width="21.492" height="20.507" viewBox="0 0 21.492 20.507">
  <path id="Tracé_15784" data-name="Tracé 15784" d="M26.865,29.235a5.617,5.617,0,1,0-5.6-5.633A5.6,5.6,0,0,0,26.865,29.235Zm0-9.757a4.124,4.124,0,1,1-4.124,4.155A4.125,4.125,0,0,1,26.865,19.477ZM17.139,38.007H36.653a.749.749,0,0,0,.739-.739,7.067,7.067,0,0,0-7.049-7.049H23.449A7.067,7.067,0,0,0,16.4,37.268.749.749,0,0,0,17.139,38.007Zm6.31-6.31h6.895a5.551,5.551,0,0,1,5.51,4.832H17.939A5.551,5.551,0,0,1,23.449,31.7Z" transform="translate(-16.15 -17.75)" fill="#34353d" stroke="#fff" stroke-width="0.5"/>
</svg>
